<?xml version="1.0" encoding="utf-8"?>
<!-- Generator: Adobe Illustrator 24.3.0, SVG Export Plug-In . SVG Version: 6.00 Build 0)  -->
<svg version="1.1" id="Layer_1" xmlns="http://www.w3.org/2000/svg" xmlns:xlink="http://www.w3.org/1999/xlink" x="0px" y="0px"
	 viewBox="0 0 1080 1080" style="enable-background:new 0 0 1080 1080;" xml:space="preserve">
<style type="text/css">
	.st0{fill:#EBEBEB;}
	.st1{fill:#F5F5F5;}
	.st2{fill:#FAFAFA;}
	.st3{fill:#E6E6E6;}
	.st4{fill:#E0E0E0;}
	.st5{fill:#F0F0F0;}
	.st6{fill:#CE7A63;}
	.st7{fill:#263238;}
	.st8{opacity:0.8;enable-background:new    ;}
	.st9{opacity:0.2;enable-background:new    ;}
	.st10{fill:#407BFF;}
	.st11{fill:#BA4D3C;}
	.st12{opacity:0.3;enable-background:new    ;}
	.st13{fill:none;stroke:#407BFF;stroke-miterlimit:10;}
	.st14{opacity:0.3;fill:#FFFFFF;enable-background:new    ;}
	.st15{opacity:0.6;fill:#FFFFFF;enable-background:new    ;}
	.st16{opacity:0.5;fill:#407BFF;enable-background:new    ;}
	.st17{opacity:0.5;}
	.st18{opacity:0.8;fill:#FFFFFF;enable-background:new    ;}
	.st19{opacity:0.7;fill:#FFFFFF;enable-background:new    ;}
	.st20{opacity:0.5;fill:#FFFFFF;enable-background:new    ;}
	.st21{opacity:0.9;fill:#FFFFFF;enable-background:new    ;}
	.st22{opacity:0.1;enable-background:new    ;}
	.st23{opacity:0.2;fill:#FFFFFF;enable-background:new    ;}
	.st24{opacity:0.4;enable-background:new    ;}
	.st25{opacity:0.1;fill:#FFFFFF;enable-background:new    ;}
	.st26{opacity:0.4;fill:#FFFFFF;enable-background:new    ;}
	.st27{opacity:0.6;enable-background:new    ;}
	.st28{fill:#FFFFFF;}
	.st29{opacity:0.3;}
	.st30{opacity:0.3;fill:#407BFF;enable-background:new    ;}
</style>
<g>
	<path class="st0" d="M950.99,867.18h-68.1v0.51h68.1V867.18z"/>
	<path class="st0" d="M706.99,872.77h-17.87v0.51h17.87V872.77z"/>
	<path class="st0" d="M880.84,848.1h-39.46v0.51h39.46V848.1z"/>
	<path class="st0" d="M222.66,851.56h-88.8v0.51h88.8V851.56z"/>
	<path class="st0" d="M253.99,851.56h-13.01v0.51h13.01V851.56z"/>
	<path class="st0" d="M488.91,860.23H296.3v0.51h192.61V860.23z"/>
	<path class="st0" d="M513.27,742.4H116.3c-3.11,0-6.1-1.24-8.3-3.44c-2.2-2.2-3.44-5.19-3.44-8.3V172.6
		c0.03-3.1,1.28-6.06,3.47-8.23c2.2-2.18,5.17-3.4,8.27-3.4h396.97c3.11,0,6.1,1.24,8.3,3.44c2.2,2.2,3.44,5.19,3.44,8.3v557.96
		c0,3.11-1.24,6.1-3.44,8.3C519.37,741.17,516.39,742.4,513.27,742.4z M116.3,161.38c-2.98,0.01-5.83,1.19-7.93,3.29
		c-2.1,2.1-3.29,4.96-3.29,7.93v558.06c0.01,2.97,1.19,5.83,3.29,7.93c2.1,2.1,4.96,3.29,7.93,3.29h396.97
		c2.98-0.01,5.83-1.19,7.93-3.29c2.1-2.1,3.29-4.96,3.29-7.93V172.6c-0.01-2.98-1.19-5.83-3.29-7.93c-2.1-2.1-4.96-3.29-7.93-3.29
		H116.3z"/>
	<path class="st0" d="M958.01,742.4H560.99c-3.11,0-6.09-1.24-8.3-3.44c-2.2-2.2-3.44-5.18-3.44-8.29V172.6
		c0.03-3.09,1.28-6.05,3.48-8.23c2.2-2.18,5.16-3.4,8.26-3.41h397.01c3.09,0.01,6.05,1.24,8.24,3.42c2.19,2.18,3.43,5.13,3.46,8.22
		v558.06c0,3.11-1.23,6.09-3.42,8.29C964.09,741.15,961.11,742.39,958.01,742.4z M560.99,161.38c-2.98,0.01-5.83,1.19-7.93,3.29
		c-2.1,2.1-3.29,4.96-3.29,7.93v558.06c0.01,2.97,1.19,5.83,3.29,7.93c2.1,2.1,4.96,3.29,7.93,3.29h397.01
		c2.97-0.01,5.83-1.19,7.93-3.29c2.1-2.1,3.29-4.96,3.29-7.93V172.6c-0.01-2.98-1.19-5.83-3.29-7.93c-2.1-2.1-4.96-3.29-7.93-3.29
		H560.99z"/>
	<path class="st0" d="M1054,834.1H26v0.51h1028V834.1z"/>
	<path class="st0" d="M723.31,415.66v-18.26c-0.43-0.05-0.82-0.25-1.11-0.57c-0.29-0.32-0.45-0.74-0.45-1.17
		c0-0.43,0.16-0.85,0.45-1.17c0.29-0.32,0.68-0.52,1.11-0.57c6.93,0,13.86,0,20.78,0v25.21h-20.78c-0.43-0.05-0.82-0.25-1.11-0.57
		c-0.29-0.32-0.45-0.74-0.45-1.17s0.16-0.85,0.45-1.17C722.49,415.91,722.89,415.71,723.31,415.66z"/>
	<path class="st1" d="M739.47,397.49h-16.16v18.15h16.16V397.49z"/>
	<path class="st2" d="M736.08,417.41h55.99c3.84,0,6.97-4.85,6.97-10.84c0-5.98-3.12-10.83-6.97-10.83h-55.99V417.41z"/>
	<path class="st3" d="M736.08,394.01c18.34,0,36.7-0.33,55.02,0c12.56,0.23,13.24,24.28,0.93,25.12c-8.59,0.6-17.42,0-26.03,0
		h-29.91c-0.43-0.05-0.82-0.25-1.11-0.57c-0.29-0.32-0.45-0.74-0.45-1.17s0.16-0.85,0.45-1.17c0.29-0.32,0.68-0.52,1.11-0.57h52.12
		c4.11,0,6.91,0,8.45-4.79c1.36-4.11,0.93-12.48-4.59-13.38c-0.62-0.05-1.25-0.05-1.87,0h-54.11c-0.43-0.05-0.82-0.25-1.11-0.57
		c-0.29-0.32-0.45-0.74-0.45-1.17s0.16-0.85,0.45-1.17C735.26,394.26,735.65,394.06,736.08,394.01z"/>
	<path class="st0" d="M342.54,351.12h-16.37l-0.8-10.59h17.95L342.54,351.12z"/>
	<path class="st0" d="M343.92,351.85h-19.14v19.41h19.14V351.85z"/>
	<path class="st1" d="M343.61,419.4c4.52,0,8.39-4.69,8.78-10.88c0-0.58,0-1.19,0-1.79v-28c0-9.56-5.65-17.33-12.62-17.33h-10.92
		c-6.97,0-12.62,7.77-12.62,17.33v28c0,0.6,0,1.21,0,1.79c0.39,6.17,4.26,10.88,8.78,10.88H343.61z"/>
	<path class="st1" d="M347.13,351.85h-25.54c-0.88,0-1.6-0.97-1.6-2.18s0.72-2.2,1.6-2.2h25.54c0.88,0,1.58,0.99,1.58,2.2
		C348.79,350.88,348.01,351.85,347.13,351.85z"/>
	<path class="st1" d="M821.28,418.95H317.36v14.5h503.93V418.95z"/>
	<path class="st0" d="M321.12,418.95H208.24v14.5h112.88V418.95z"/>
	<path class="st3" d="M222.02,468.65v-35.22h35.22L222.02,468.65z"/>
	<path class="st1" d="M239.64,468.65l35.2-35.22h-17.6l-35.22,35.22H239.64z"/>
	<path class="st4" d="M751.3,468.65v-35.22h35.22L751.3,468.65z"/>
	<path class="st2" d="M768.92,468.65l35.22-35.22h-17.62l-35.22,35.22H768.92z"/>
	<path class="st0" d="M294.6,357.11h-19.57l-0.94-9.66h21.48L294.6,357.11z"/>
	<path class="st1" d="M296.28,357.77h-22.93v17.72h22.93V357.77z"/>
	<path class="st5" d="M295.89,419.4c2.67-0.04,5.23-1.08,7.18-2.91c1.95-1.83,3.13-4.33,3.33-7c0-0.56,0-1.09,0-1.65v-25.53
		c0.09-4.1-1.45-8.08-4.28-11.04s-6.73-4.69-10.83-4.79h-13.06c-4.1,0.1-8,1.82-10.83,4.79s-4.37,6.94-4.28,11.04v25.53
		c0,0.56,0,1.09,0,1.65c0.19,2.67,1.38,5.17,3.32,7c1.95,1.84,4.51,2.87,7.18,2.91H295.89z"/>
	<path class="st5" d="M300.09,357.77h-30.55c-0.52-0.04-1.01-0.27-1.36-0.65c-0.36-0.38-0.55-0.88-0.55-1.4
		c0-0.52,0.19-1.02,0.55-1.41c0.35-0.38,0.84-0.61,1.36-0.65h30.55c0.52,0.04,1.01,0.27,1.36,0.65c0.35,0.38,0.55,0.88,0.55,1.41
		c0,0.52-0.2,1.02-0.55,1.4C301.09,357.5,300.61,357.73,300.09,357.77z"/>
	<path class="st1" d="M821.28,283.56H317.36v14.49h503.93V283.56z"/>
	<path class="st0" d="M321.12,283.56H208.24v14.49h112.88V283.56z"/>
	<path class="st3" d="M222.02,333.28v-35.22h35.22L222.02,333.28z"/>
	<path class="st1" d="M239.64,333.28l35.2-35.22h-17.6l-35.22,35.22H239.64z"/>
	<path class="st4" d="M751.3,333.28v-35.22h35.22L751.3,333.28z"/>
	<path class="st2" d="M768.92,333.28l35.22-35.22h-17.62l-35.22,35.22H768.92z"/>
	<path class="st5" d="M288.88,285.54h-13.26c-1.42,0-2.82-0.28-4.13-0.84c-1.3-0.55-2.49-1.36-3.47-2.38
		c-0.99-1.02-1.76-2.23-2.27-3.55c-0.51-1.32-0.75-2.73-0.7-4.15l1.69-49.92h31l1.71,50c0.03,1.41-0.21,2.81-0.73,4.13
		c-0.51,1.31-1.29,2.51-2.27,3.52c-0.98,1.01-2.16,1.81-3.46,2.36C291.69,285.26,290.29,285.54,288.88,285.54z"/>
	<path class="st5" d="M386.84,253.88c11.5-11.5,11.5-30.14,0-41.64c-11.5-11.5-30.14-11.5-41.64,0c-11.5,11.5-11.5,30.14,0,41.64
		C356.7,265.38,375.34,265.38,386.84,253.88z"/>
	<path class="st0" d="M368.08,285.11h-4.11V265.6h2.06c8.63,0,16.9-3.43,23-9.53c6.1-6.1,9.53-14.37,9.53-23
		c0-8.63-3.43-16.9-9.53-23s-14.37-9.53-23-9.53v-4.11c9.53,0.02,18.67,3.75,25.5,10.39c6.83,6.65,10.79,15.69,11.06,25.22
		c0.27,9.52-3.18,18.78-9.63,25.8c-6.44,7.02-15.36,11.26-24.87,11.81V285.11z"/>
	<path class="st0" d="M383.31,285.54h-34.95c0.01-2.08,0.84-4.07,2.31-5.54c1.47-1.47,3.47-2.29,5.55-2.29h19.31
		c2.08,0,4.07,0.82,5.55,2.29c1.47,1.47,2.3,3.46,2.31,5.54H383.31z"/>
	<path class="st1" d="M286.91,285.54l27.65-27.65l27.67,27.65H286.91z"/>
	<path class="st3" d="M314.56,257.89l-27.65,27.65h27.65V257.89z"/>
	<path class="st1" d="M507.39,249.37c-0.14,2.63-0.23,4.71-0.23,6.17c0,5.73,1.25,11.39,3.66,16.58c2.41,5.2,5.93,9.8,10.31,13.5
		h48.62c4.38-3.69,7.89-8.3,10.3-13.5c2.41-5.2,3.66-10.85,3.65-16.58c0-1.4,0-3.47-0.23-6.17H507.39z"/>
	<path class="st0" d="M514.03,259.49c-0.01-1.22-0.51-2.39-1.38-3.25c-0.87-0.86-2.04-1.34-3.26-1.34h-27.69
		c-1.22,0.01-2.39,0.49-3.26,1.34c-0.87,0.86-1.37,2.02-1.39,3.24v0.33c-1-0.32-2.04-0.48-3.08-0.49c-4.54,0-7.59,3.54-7.59,8.82
		c0,5.28,5.3,8.82,10.05,8.82c0.48-0.01,0.95-0.05,1.42-0.14c1.11,3.39,3.14,6.41,5.86,8.72h23.68c2.13-1.8,3.84-4.04,5.01-6.57
		c1.17-2.53,1.78-5.28,1.77-8.07C514.18,269.05,514.11,264.77,514.03,259.49z M476.43,274.05c-3.23,0-7.11-2.61-7.11-5.86
		c0-1.38,0.35-5.88,4.65-5.88c1.04,0.03,2.07,0.26,3.02,0.7c0,3.64,0,6.52,0,7.94c0,1.03,0.09,2.05,0.27,3.06L476.43,274.05z"/>
	<path class="st5" d="M733.37,285.54l-3.87-44.31h56.19l3.86,44.31H733.37z"/>
	<path class="st4" d="M733.37,285.54l-3.87-44.31h-3.04l3.89,44.31H733.37z"/>
	<path class="st2" d="M738.71,281.04l-3.11-35.28h44.74l3.11,35.28H738.71z"/>
	<path class="st0" d="M742.13,278.12l-2.57-29.46h37.38l2.57,29.46H742.13z"/>
	<path class="st5" d="M670.02,285.54h56.44l-6.25-71.59h-56.46L670.02,285.54z"/>
	<path class="st4" d="M670.02,285.54h-2.69l-6.27-71.59h2.69L670.02,285.54z"/>
	<path class="st4" d="M675.12,278.24h44.94l-4.98-56.99h-44.95L675.12,278.24z"/>
	<path class="st2" d="M678.41,273.55h37.54l-4.15-47.6h-37.54L678.41,273.55z"/>
	<path class="st0" d="M691.26,235.03l-6.24,6.24c-2.55,2.55-2.55,6.69,0,9.25l6.24,6.24c2.55,2.55,6.69,2.55,9.25,0l6.24-6.24
		c2.55-2.55,2.55-6.69,0-9.25l-6.24-6.24C697.95,232.48,693.81,232.48,691.26,235.03z"/>
	<path class="st3" d="M695.01,250.53l-4.38,4.38c-2.55,2.55-2.55,6.69,0,9.25l4.38,4.38c2.55,2.55,6.69,2.55,9.25,0l4.38-4.38
		c2.55-2.55,2.55-6.69,0-9.25l-4.38-4.38C701.7,247.98,697.56,247.98,695.01,250.53z"/>
	<path class="st1" d="M530.09,919.03c220.16,0,398.64-10.42,398.64-23.28c0-12.85-178.48-23.27-398.64-23.27
		c-220.16,0-398.64,10.42-398.64,23.27C131.45,908.61,309.93,919.03,530.09,919.03z"/>
	<path class="st6" d="M793.59,374.44l-25.7,41.12l-51.07,26.93l-20.44,6.37c-1.49,0.46-2.76,1.44-3.58,2.76
		c0,0-11.25,15.38-12.01,21.32c-0.19,1.54,5.12-0.94,6.17-2.06c2.22-2.26,7.07-9.07,7.07-9.07s10.28,4.77,13.82,4.46
		c3.93-0.33,11.06-4.56,13.94-7.26c2.2-2.49,4.26-5.09,6.17-7.81c0,0,45.91-12.5,57.57-22.62c9.25-8,24.32-42.5,24.32-42.5
		L793.59,374.44z"/>
	<path class="st7" d="M819.8,337.78c0,0-15.62,3.31-36.9,40.36l28.04,15.75C810.94,393.89,835.67,343.44,819.8,337.78z"/>
	<path class="st7" d="M783.33,376.48l27.86,16.06c0.61,0.35,1.07,0.92,1.28,1.59c0.21,0.67,0.16,1.4-0.15,2.03l-1.11,2.3
		c-0.17,0.34-0.4,0.64-0.69,0.89c-0.29,0.25-0.62,0.43-0.98,0.55c-0.36,0.11-0.74,0.15-1.12,0.11c-0.38-0.04-0.74-0.15-1.07-0.34
		l-28.25-15.71c-0.32-0.18-0.6-0.42-0.83-0.71c-0.23-0.29-0.4-0.62-0.5-0.97c-0.1-0.35-0.13-0.72-0.08-1.09
		c0.04-0.36,0.16-0.72,0.34-1.04l1.48-2.63c0.18-0.32,0.42-0.6,0.71-0.83c0.29-0.23,0.63-0.39,0.98-0.49
		c0.36-0.1,0.73-0.12,1.09-0.08C782.66,376.17,783.01,376.29,783.33,376.48z"/>
	<path class="st8" d="M783.33,376.48l27.86,16.06c0.61,0.35,1.07,0.92,1.28,1.59c0.21,0.67,0.16,1.4-0.15,2.03l-1.11,2.3
		c-0.17,0.34-0.4,0.64-0.69,0.89c-0.29,0.25-0.62,0.43-0.98,0.55c-0.36,0.11-0.74,0.15-1.12,0.11c-0.38-0.04-0.74-0.15-1.07-0.34
		l-28.25-15.71c-0.32-0.18-0.6-0.42-0.83-0.71c-0.23-0.29-0.4-0.62-0.5-0.97c-0.1-0.35-0.13-0.72-0.08-1.09
		c0.04-0.36,0.16-0.72,0.34-1.04l1.48-2.63c0.18-0.32,0.42-0.6,0.71-0.83c0.29-0.23,0.63-0.39,0.98-0.49
		c0.36-0.1,0.73-0.12,1.09-0.08C782.66,376.17,783.01,376.29,783.33,376.48z"/>
	<path class="st9" d="M810.94,393.83c0,0,4.38-8.94,8.22-19.72l-0.99-4.42l-12.01-15.46c-5.87,9.03-10.91,18.57-15.07,28.5
		L810.94,393.83z"/>
	<path class="st6" d="M932.7,831.02c1.34,17.64,2.06,29.17,2.06,29.17l-19.53,2.9c0,0-2.28-11.86-5.72-30.08L932.7,831.02z"/>
	<path class="st10" d="M905.97,857.95c-2.45,0-4.98-0.29-5.82-1.32c-0.22-0.3-0.34-0.66-0.34-1.03c0-0.37,0.12-0.73,0.34-1.03
		c0.15-0.28,0.36-0.52,0.61-0.71c0.25-0.19,0.53-0.34,0.83-0.42c3.25-1.03,10.28,2.65,10.53,2.82c0.08,0.04,0.15,0.11,0.2,0.2
		c0.04,0.08,0.06,0.18,0.05,0.28c-0.02,0.1-0.06,0.18-0.13,0.26c-0.06,0.07-0.15,0.13-0.24,0.15
		C910.01,857.58,907.99,857.85,905.97,857.95z M902.72,854.23c-0.3,0-0.6,0.05-0.88,0.14c-0.19,0.04-0.37,0.12-0.53,0.24
		c-0.16,0.12-0.29,0.27-0.38,0.44c-0.31,0.6-0.19,0.86,0,1.03c0.94,1.23,5.9,1.11,9.54,0.53c-2.42-1.29-5.07-2.1-7.79-2.41
		L902.72,854.23z"/>
	<path class="st10" d="M911.85,857.15h-0.21c-2.38-0.97-7.24-5.06-6.91-7.28c0-0.53,0.41-1.19,1.69-1.38
		c0.47-0.06,0.94-0.03,1.39,0.09c0.45,0.12,0.88,0.34,1.24,0.63c2.57,1.95,3.27,7.24,3.31,7.49c0,0.08-0.01,0.16-0.05,0.24
		c-0.04,0.08-0.09,0.14-0.16,0.19C912.06,857.17,911.95,857.18,911.85,857.15z M906.77,849.38h-0.27c-0.84,0.1-0.88,0.43-0.9,0.56
		c0,1.34,3.12,4.56,5.61,5.92c-0.31-2.22-1.29-4.29-2.82-5.94c-0.46-0.37-1.04-0.56-1.62-0.51V849.38z"/>
	<path class="st7" d="M913.82,854.35l21.44-0.74c0.39-0.01,0.77,0.11,1.09,0.35c0.31,0.24,0.54,0.57,0.64,0.95l4.46,17.31
		c0.1,0.37,0.12,0.75,0.07,1.12c-0.05,0.37-0.17,0.74-0.37,1.06c-0.19,0.33-0.45,0.61-0.75,0.84c-0.3,0.23-0.64,0.4-1.01,0.49
		c-0.2,0.02-0.4,0.02-0.6,0c-7.73,0.12-14.62,0-24.24,0.29c-11.35,0.37-8.43,1.65-21.77,2.28c-8.04,0.37-9.81-8.72-6.41-9.27
		c15.54-2.49,17-7.26,22.82-13.06C910.49,854.89,912.13,854.31,913.82,854.35z"/>
	<path class="st9" d="M932.7,831.02l-23.11,2.05c0.49,2.71,0.99,5.24,1.44,7.65l22.27-1.54
		C933.05,836.59,932.84,833.89,932.7,831.02z"/>
	<path class="st6" d="M834.25,827.64c-1.79,17.6-3.02,29.11-3.02,29.11l-19.74-0.58c0,0-0.16-12.11-0.35-30.63L834.25,827.64z"/>
	<path class="st10" d="M802.59,852.73c-2.45,0-5-0.31-5.82-1.34c-0.22-0.3-0.34-0.66-0.34-1.03c0-0.37,0.12-0.73,0.34-1.03
		c0.15-0.27,0.35-0.51,0.6-0.71c0.24-0.19,0.52-0.34,0.82-0.42c3.27-1.01,10.28,2.71,10.53,2.88c0.09,0.05,0.15,0.12,0.2,0.21
		c0.04,0.09,0.06,0.19,0.05,0.28c-0.02,0.09-0.06,0.18-0.13,0.25c-0.06,0.07-0.15,0.12-0.24,0.14
		C806.62,852.4,804.61,852.65,802.59,852.73z M799.34,848.99c-0.3,0.02-0.6,0.07-0.88,0.15c-0.19,0.04-0.36,0.13-0.52,0.24
		c-0.15,0.12-0.28,0.27-0.37,0.44c-0.33,0.6-0.21,0.86,0,1.03c0.94,1.26,5.9,1.13,9.54,0.6C804.7,850.13,802.07,849.3,799.34,848.99
		z"/>
	<path class="st10" d="M808.49,852.01c-0.06,0.02-0.13,0.02-0.18,0c-2.38-0.97-7.22-5.1-6.87-7.32c0-0.54,0.43-1.19,1.71-1.36
		c0.46-0.06,0.93-0.03,1.38,0.09c0.45,0.12,0.87,0.34,1.23,0.63c2.55,2.06,3.23,7.26,3.27,7.5c0.01,0.08-0.01,0.17-0.04,0.24
		c-0.03,0.08-0.09,0.14-0.16,0.19C808.72,852.04,808.6,852.04,808.49,852.01z M803.48,844.17h-0.31c-0.84,0-0.88,0.43-0.91,0.53
		c0,1.34,3.11,4.58,5.57,5.96c-0.29-2.22-1.26-4.3-2.78-5.94c-0.46-0.38-1.03-0.57-1.62-0.56H803.48z"/>
	<path class="st7" d="M810.51,849.19l21.42-0.6c0.39-0.01,0.78,0.1,1.09,0.34c0.32,0.24,0.54,0.57,0.63,0.95l4.36,17.33
		c0.1,0.37,0.12,0.75,0.07,1.12c-0.05,0.38-0.18,0.74-0.37,1.06c-0.19,0.33-0.44,0.61-0.75,0.84c-0.3,0.23-0.64,0.4-1.01,0.49
		c-0.2,0.02-0.4,0.02-0.6,0c-7.73,0-14.62-0.14-24.24,0.14c-11.35,0.31-8.43,1.58-21.77,2.16c-8.04,0.33-9.77-8.78-6.37-9.31
		c15.56-2.41,17.04-7.18,22.9-12.93C807.18,849.73,808.82,849.16,810.51,849.19z"/>
	<path class="st9" d="M811.25,834.37l22.22,0.94c0.25-2.4,0.51-4.95,0.78-7.67l-23.11-2.06
		C811.19,828.69,811.21,831.61,811.25,834.37z"/>
	<path class="st10" d="M800.1,504.77l1.36,134.32l7.63,182.41l29.5,3.21c6.59-34.4,10.2-69.3,10.79-104.32
		c0.35-21.83-4.75-43.67-4.73-63.74c0-14.8,5.16-25.78,10.28-58.27c4.93-30.84,9.91-67.66,10.57-94.29L800.1,504.77z"/>
	<path class="st9" d="M858.68,574.61l-4.59-17.72l-10.71-2.2c0,0-2.28,52.68,2.9,87.38c1.91-10.01,5.34-22.1,8.8-43.69
		C856.23,590.67,857.47,582.73,858.68,574.61z"/>
	<path class="st10" d="M834.24,504.77l27.02,148.48l45.89,179.55l27-2.06c-1.11-36.25-4.67-72.38-10.67-108.14
		c-4.42-25.23-14.39-49.69-19.43-72.08c-3.41-15.21-1.36-27.63-2.73-62.28c-1.07-26.85,1.48-57.88-7.67-83.52L834.24,504.77z"/>
	<path class="st7" d="M798.75,391.69c3.43-37.01,10.28-59.62,42.5-58.25c32.22,1.38,63.74-2.06,58.25,41.8
		c-5.49,43.85-2.06,131.38-2.06,131.38h-99.37c0,0,0.86-31.5,1.03-66.12C799.18,422.39,797.58,404.42,798.75,391.69z"/>
	<path class="st6" d="M831.01,333.92c9.01-1.62,12.07-5.12,11.23-12.77c-0.18-1.91-0.49-3.81-0.93-5.67l14-11.7l10.28-8.51
		c-2.78,12.44-4.22,38.49,3.23,40.3c-3.49,3.06-6.81,8.53-11.55,10.88c-4.23,2.05-10.28,2.49-15.93,2.49
		c-3.76-0.51-7.9-1.44-9.42-3.52C828.52,340.8,831.01,333.92,831.01,333.92z"/>
	<path class="st9" d="M841.31,315.47c0.43,1.87,0.74,3.76,0.93,5.67c5.26-1.03,13.16-5.72,13.88-11.64
		c-0.04-1.94-0.31-3.86-0.8-5.74L841.31,315.47z"/>
	<path class="st6" d="M864.52,270.1c2.06,16.8,4.26,26.5-2.55,36.8c-10.09,15.48-31.81,12.34-38.82-3.47
		c-6.4-14.1-8.64-39.23,6.17-49.34c3.19-2.25,6.91-3.63,10.8-4c3.89-0.37,7.8,0.29,11.36,1.9c3.56,1.61,6.63,4.13,8.91,7.3
		c2.28,3.17,3.7,6.88,4.1,10.76L864.52,270.1z"/>
	<path class="st7" d="M840.18,280.34c0.27,1.38-0.25,2.61-1.13,2.8c-0.88,0.19-1.79-0.74-2.06-2.06s0.25-2.61,1.11-2.8
		C838.96,278.1,839.99,279,840.18,280.34z"/>
	<path class="st7" d="M824.47,283.34c0.27,1.36-0.25,2.61-1.11,2.78c-0.86,0.16-1.79-0.74-2.06-2.06c-0.27-1.32,0.25-2.61,1.13-2.8
		S824.22,281.98,824.47,283.34z"/>
	<path class="st11" d="M830.66,283.15c-0.74,3.83-1.91,7.57-3.49,11.14c0.92,0.42,1.93,0.63,2.94,0.63c1.01,0,2.02-0.22,2.94-0.63
		L830.66,283.15z"/>
	<path class="st7" d="M842.23,272.73c0.1-0.08,0.18-0.19,0.23-0.31c0.04-0.1,0.06-0.2,0.06-0.3c0-0.1-0.02-0.21-0.06-0.3
		c-0.04-0.1-0.1-0.18-0.17-0.26c-0.07-0.07-0.16-0.13-0.26-0.17c-1.16-0.48-2.42-0.67-3.68-0.56c-1.25,0.11-2.46,0.52-3.52,1.2
		c-0.08,0.06-0.15,0.14-0.21,0.23c-0.05,0.09-0.09,0.19-0.1,0.29c-0.01,0.1,0,0.21,0.02,0.31c0.03,0.1,0.08,0.19,0.14,0.28
		c0.06,0.09,0.14,0.16,0.23,0.21c0.09,0.05,0.19,0.09,0.29,0.11c0.1,0.02,0.21,0.01,0.31-0.02c0.1-0.03,0.2-0.07,0.28-0.14
		c0.84-0.54,1.8-0.87,2.8-0.95c1-0.09,2,0.07,2.92,0.46c0.12,0.05,0.24,0.06,0.37,0.05C842.01,272.85,842.13,272.8,842.23,272.73z"
		/>
	<path class="st7" d="M824.82,274.19c0.07-0.11,0.12-0.23,0.15-0.35c0.01-0.1,0.01-0.21-0.02-0.31c-0.03-0.1-0.07-0.19-0.14-0.28
		c-0.06-0.08-0.14-0.15-0.23-0.2c-0.09-0.05-0.19-0.08-0.29-0.1c-1.24-0.17-2.51-0.04-3.69,0.38c-1.18,0.42-2.24,1.12-3.1,2.04
		c-0.07,0.08-0.12,0.17-0.15,0.27c-0.03,0.1-0.04,0.2-0.03,0.31s0.04,0.2,0.1,0.29c0.05,0.09,0.12,0.17,0.21,0.23
		c0.08,0.07,0.17,0.12,0.28,0.15c0.1,0.03,0.21,0.04,0.31,0.03c0.1-0.01,0.21-0.04,0.3-0.09c0.09-0.05,0.18-0.12,0.24-0.2
		c0.67-0.74,1.51-1.3,2.45-1.63c0.94-0.33,1.95-0.43,2.93-0.28c0.13,0.02,0.26,0,0.37-0.05
		C824.63,274.36,824.74,274.29,824.82,274.19z"/>
	<path class="st7" d="M862.03,286.85c0,0-4.28,0-5.14-7.55c-0.54-4.6-1.88-9.06-3.95-13.2c0,0-9.93,0-13.53-4.95
		c0,0-24.38,13.24-32.22,3.76c-7.36-8.9,10.07-9.93,10.07-9.93s-8.35-9.44-3.39-13.88c4.95-4.44,17.48,2.9,17.48,2.9
		s-2.65-9.42,7.24-8.39c9.89,1.03,12.48,7.87,12.48,7.87s13.36-5.3,19.02,1.73c3.66,4.54-1.95,9.42-1.95,9.42s7.42,0.23,9.31,6.52
		c1.54,5.14-3.7,8.8-5.3,9.93c-4.69,3.25-5.55,20.05-5.55,20.05L862.03,286.85z"/>
	<path class="st7" d="M816.88,259.78c0,0-11.7,5.57-9.37,13.26c2.32,7.69,10.12,6.17,12.66,4.11c3.12-2.63,8.06-14.21,8.06-14.21
		L816.88,259.78z"/>
	<path class="st6" d="M873.79,284.33c-0.92,4.09-3.24,7.72-6.56,10.28c-4.26,3.15-7.48-0.66-7.26-6c0.23-4.81,2.69-12.34,7.4-13.22
		C872.09,274.5,874.94,279.1,873.79,284.33z"/>
	<path class="st7" d="M842.23,299.73c0.72-0.37,1.41-0.8,2.05-1.3c0.09-0.07,0.16-0.17,0.17-0.29c0.02-0.11-0.01-0.23-0.07-0.33
		c-0.04-0.04-0.09-0.07-0.14-0.09c-0.05-0.02-0.11-0.03-0.16-0.03c-0.06,0-0.11,0.01-0.16,0.03c-0.05,0.02-0.1,0.05-0.14,0.09
		c-1.46,1.13-3.16,1.91-4.97,2.26c-1.81,0.36-3.68,0.29-5.46-0.21c-0.11-0.04-0.22-0.04-0.33,0.01s-0.19,0.13-0.23,0.24
		c-0.04,0.11-0.04,0.23,0.01,0.34c0.05,0.11,0.13,0.19,0.24,0.24C836.13,301.57,839.41,301.22,842.23,299.73z"/>
	<path class="st7" d="M834.6,332.68c0.06-0.01,0.12,0,0.18,0.02c0.06,0.03,0.11,0.07,0.14,0.12c0.03,0.05,0.05,0.11,0.05,0.17
		c0,0.06-0.01,0.12-0.05,0.18c-1.75,2.82-8.35,14.86,7.07,15.09c16.45,0.25,24.67-12.73,25.66-14.39c0.03-0.05,0.08-0.09,0.13-0.12
		c0.06-0.02,0.12-0.03,0.18-0.02l4.42,0.43c0.09,0.01,0.18,0.04,0.26,0.09c0.08,0.05,0.15,0.11,0.21,0.19
		c0.05,0.07,0.09,0.16,0.12,0.25c0.02,0.09,0.03,0.18,0.01,0.28c-2.3,10.33-8.52,19.37-17.35,25.21c-1.1-2.91-3-5.44-5.5-7.29
		c-2.49-1.85-5.47-2.95-8.57-3.16c-10.79-0.7-19.35,8.04-19.35,8.04s-3.39-14.58,7.44-24.26c0.11-0.1,0.24-0.16,0.39-0.18
		L834.6,332.68z"/>
	<path class="st8" d="M834.6,332.68c0.06-0.01,0.12,0,0.18,0.02c0.06,0.03,0.11,0.07,0.14,0.12c0.03,0.05,0.05,0.11,0.05,0.17
		c0,0.06-0.01,0.12-0.05,0.18c-1.75,2.82-8.35,14.86,7.07,15.09c16.45,0.25,24.67-12.73,25.66-14.39c0.03-0.05,0.08-0.09,0.13-0.12
		c0.06-0.02,0.12-0.03,0.18-0.02l4.42,0.43c0.09,0.01,0.18,0.04,0.26,0.09c0.08,0.05,0.15,0.11,0.21,0.19
		c0.05,0.07,0.09,0.16,0.12,0.25c0.02,0.09,0.03,0.18,0.01,0.28c-2.3,10.33-8.52,19.37-17.35,25.21c-1.1-2.91-3-5.44-5.5-7.29
		c-2.49-1.85-5.47-2.95-8.57-3.16c-10.79-0.7-19.35,8.04-19.35,8.04s-3.39-14.58,7.44-24.26c0.11-0.1,0.24-0.16,0.39-0.18
		L834.6,332.68z"/>
	<path class="st9" d="M879.24,358.34c0,0-1.09,46.14,17.35,63.39c0.39-17.19,1.23-33.76,2.82-46.4c0.44-3.41,0.64-6.84,0.6-10.28
		l-8.86-6.7H879.24z"/>
	<path class="st7" d="M889.31,395.35c0,0-25.14-55.31-6.7-56.64c18.44-1.34,36.49,36.68,36.49,36.68L889.31,395.35z"/>
	<path class="st6" d="M893.84,390.42c0,0,12.09,31.6,14.39,50.74c-1.91,20.51-5.35,40.86-10.28,60.86c0,0-8.22,9.05-9.89,16.12
		c-1.67,7.07-4.11,9.75,4.11,12.77c8.22,3.02,14.39,0.33,17.48-3.7c3.08-4.03,1.69-24.2,1.69-24.2s16.12-48.4,17.13-65.53
		c1.01-17.13-16.45-59.83-16.45-59.83L893.84,390.42z"/>
	<path class="st7" d="M886.23,392.22l1.71,4.38c0.11,0.28,0.29,0.53,0.51,0.73c0.22,0.2,0.48,0.36,0.77,0.45
		c0.29,0.09,0.59,0.12,0.89,0.08c0.3-0.04,0.58-0.14,0.84-0.3l30.14-20.13c0.42-0.3,0.72-0.74,0.83-1.24
		c0.11-0.5,0.03-1.03-0.23-1.47l-2.43-4.11c-0.14-0.23-0.33-0.43-0.56-0.59c-0.22-0.16-0.47-0.27-0.74-0.33
		c-0.27-0.06-0.54-0.07-0.81-0.02s-0.52,0.15-0.75,0.3l-29.4,19.78c-0.39,0.26-0.68,0.65-0.82,1.1
		C886.04,391.31,886.06,391.79,886.23,392.22z"/>
	<path class="st8" d="M886.23,392.22l1.71,4.38c0.11,0.28,0.29,0.53,0.51,0.73c0.22,0.2,0.48,0.36,0.77,0.45
		c0.29,0.09,0.59,0.12,0.89,0.08c0.3-0.04,0.58-0.14,0.84-0.3l30.14-20.13c0.42-0.3,0.72-0.74,0.83-1.24
		c0.11-0.5,0.03-1.03-0.23-1.47l-2.43-4.11c-0.14-0.23-0.33-0.43-0.56-0.59c-0.22-0.16-0.47-0.27-0.74-0.33
		c-0.27-0.06-0.54-0.07-0.81-0.02s-0.52,0.15-0.75,0.3l-29.4,19.78c-0.39,0.26-0.68,0.65-0.82,1.1
		C886.04,391.31,886.06,391.79,886.23,392.22z"/>
	<path class="st10" d="M939.65,831.04l-35.51,3.54l-3-11.72l39.15-3.91L939.65,831.04z"/>
	<path class="st12" d="M939.65,831.04l-35.51,3.54l-3-11.72l39.15-3.91L939.65,831.04z"/>
	<path class="st10" d="M841.39,828.69l-35.01-1.5l-1.64-11.95l39.33,1.69L841.39,828.69z"/>
	<path class="st12" d="M841.39,828.69l-35.01-1.5l-1.64-11.95l39.33,1.69L841.39,828.69z"/>
	<path class="st13" d="M736.64,376.1c0.12,1.1,0,2.22-0.34,3.28c-0.34,1.06-0.91,2.03-1.66,2.85c-0.75,0.82-1.66,1.47-2.68,1.91
		c-1.02,0.44-2.12,0.66-3.23,0.64h-5.29l-15.13,16.59l-18.05-16.59h-25.52c-2.36-0.04-4.63-0.95-6.36-2.55
		c-1.74-1.6-2.83-3.78-3.07-6.13l-5.59-63.98c-0.12-1.1,0-2.22,0.34-3.27c0.34-1.05,0.91-2.02,1.66-2.84
		c0.75-0.82,1.66-1.47,2.68-1.91c1.02-0.44,2.12-0.65,3.23-0.63h63.98c2.36,0.04,4.61,0.95,6.35,2.54c1.74,1.59,2.83,3.77,3.07,6.11
		L736.64,376.1z"/>
	<path class="st10" d="M720.66,368.9c7.41-7.73,6.56-20.55-1.88-28.63c-8.44-8.08-21.28-8.36-28.69-0.63
		c-7.4,7.74-6.56,20.56,1.88,28.64C700.41,376.36,713.25,376.64,720.66,368.9z"/>
	<path class="st10" d="M700.4,368.91c7.4-7.73,6.56-20.56-1.87-28.63c-8.44-8.08-21.29-8.36-28.69-0.62
		c-7.4,7.73-6.56,20.56,1.88,28.63C680.16,376.37,693,376.65,700.4,368.91z"/>
	<path class="st10" d="M673.21,334c0.58,5.47,3.13,10.55,7.19,14.27c4.05,3.73,9.33,5.84,14.83,5.96c2.59,0.05,5.17-0.46,7.55-1.48
		c2.38-1.02,4.52-2.55,6.27-4.46c1.75-1.91,3.07-4.18,3.88-6.65s1.08-5.08,0.8-7.66c-0.58-5.48-3.13-10.56-7.18-14.29
		c-4.06-3.73-9.33-5.85-14.84-5.96c-2.6-0.05-5.17,0.46-7.56,1.48c-2.39,1.03-4.53,2.55-6.28,4.47c-1.75,1.92-3.07,4.19-3.88,6.66
		C673.19,328.8,672.92,331.42,673.21,334z"/>
	<path class="st14" d="M720.66,368.9c7.41-7.73,6.56-20.55-1.88-28.63c-8.44-8.08-21.28-8.36-28.69-0.63
		c-7.4,7.74-6.56,20.56,1.88,28.64C700.41,376.36,713.25,376.64,720.66,368.9z"/>
	<path class="st9" d="M700.4,368.91c7.4-7.73,6.56-20.56-1.87-28.63c-8.44-8.08-21.29-8.36-28.69-0.62
		c-7.4,7.73-6.56,20.56,1.88,28.63C680.16,376.37,693,376.65,700.4,368.91z"/>
	<path class="st15" d="M673.21,334c0.58,5.47,3.13,10.55,7.19,14.27c4.05,3.73,9.33,5.84,14.83,5.96c2.59,0.05,5.17-0.46,7.55-1.48
		c2.38-1.02,4.52-2.55,6.27-4.46c1.75-1.91,3.07-4.18,3.88-6.65s1.08-5.08,0.8-7.66c-0.58-5.48-3.13-10.56-7.18-14.29
		c-4.06-3.73-9.33-5.85-14.84-5.96c-2.6-0.05-5.17,0.46-7.56,1.48c-2.39,1.03-4.53,2.55-6.28,4.47c-1.75,1.92-3.07,4.19-3.88,6.66
		C673.19,328.8,672.92,331.42,673.21,334z"/>
	<path class="st13" d="M640.5,347.1c0.09,0.82,0,1.66-0.25,2.45c-0.26,0.79-0.68,1.51-1.24,2.13c-0.56,0.61-1.25,1.1-2.01,1.43
		c-0.76,0.33-1.59,0.49-2.42,0.47h-6.31l-12.62,13.84l-15.05-13.84h-23.46c-1.77-0.03-3.46-0.71-4.76-1.9
		c-1.3-1.19-2.12-2.82-2.31-4.58l-5.02-57.47c-0.09-0.83-0.01-1.66,0.25-2.45c0.26-0.79,0.68-1.52,1.24-2.13
		c0.56-0.61,1.24-1.1,2.01-1.43s1.59-0.49,2.42-0.48h57.45c1.76,0.04,3.45,0.72,4.75,1.92c1.3,1.2,2.12,2.82,2.3,4.58L640.5,347.1z"
		/>
	<path class="st10" d="M624.75,317.22h-7.69c-0.63-3.47-2.38-6.63-4.98-9.02c-2.6-2.38-5.9-3.85-9.41-4.18l-0.68-7.69
		c-0.03-0.32-0.18-0.62-0.42-0.84c-0.24-0.22-0.55-0.34-0.87-0.35c-0.15,0-0.3,0.03-0.44,0.09c-0.14,0.06-0.26,0.15-0.37,0.26
		s-0.18,0.24-0.23,0.39c-0.05,0.14-0.07,0.3-0.05,0.45l0.68,7.69c-3.31,0.24-6.41,1.74-8.65,4.2c-2.24,2.46-3.46,5.68-3.4,9h-7.69
		c-0.15,0-0.3,0.03-0.44,0.09c-0.14,0.06-0.26,0.15-0.36,0.26c-0.1,0.11-0.18,0.25-0.22,0.39c-0.05,0.14-0.06,0.3-0.04,0.45
		c0.03,0.32,0.18,0.62,0.42,0.84c0.24,0.22,0.55,0.34,0.88,0.35h7.67c0.64,3.47,2.39,6.63,4.98,9.01c2.6,2.38,5.9,3.85,9.41,4.19
		l0.68,7.69c0.03,0.32,0.18,0.62,0.42,0.84c0.24,0.22,0.55,0.34,0.87,0.35c0.15,0,0.31-0.03,0.45-0.09
		c0.14-0.06,0.27-0.15,0.37-0.26c0.1-0.11,0.18-0.25,0.23-0.39c0.05-0.15,0.06-0.3,0.04-0.45l-0.68-7.69
		c3.32-0.24,6.42-1.74,8.66-4.2c2.24-2.46,3.45-5.68,3.39-9h7.69c0.15,0,0.31-0.03,0.45-0.09c0.14-0.06,0.27-0.15,0.37-0.26
		s0.18-0.25,0.23-0.39c0.05-0.15,0.06-0.3,0.04-0.45c-0.03-0.32-0.18-0.62-0.42-0.84C625.38,317.36,625.07,317.23,624.75,317.22z
		 M614.67,317.22h-2.71c-0.47-2.06-1.55-3.93-3.1-5.36c-1.55-1.43-3.51-2.35-5.6-2.64l-0.25-2.82c2.83,0.35,5.49,1.58,7.58,3.52
		C612.69,311.87,614.12,314.42,614.67,317.22z M601.47,317.22h-5.59c0.11-1.37,0.67-2.66,1.59-3.67c0.92-1.01,2.16-1.69,3.51-1.92
		L601.47,317.22z M601.68,319.61l0.49,5.59c-1.44-0.26-2.77-0.92-3.85-1.91c-1.07-0.99-1.84-2.27-2.22-3.68H601.68z M604.06,319.61
		h5.59c-0.11,1.37-0.67,2.66-1.59,3.67c-0.92,1.01-2.16,1.69-3.51,1.92L604.06,319.61z M603.86,317.22l-0.49-5.59
		c1.45,0.26,2.8,0.92,3.89,1.91c1.09,0.99,1.88,2.27,2.28,3.69H603.86z M600.53,306.41l0.25,2.82c-1.98,0.22-3.82,1.15-5.16,2.62
		c-1.35,1.47-2.11,3.38-2.16,5.38h-2.82c-0.02-2.72,0.99-5.35,2.82-7.37c1.83-2.01,4.35-3.27,7.07-3.51V306.41z M590.87,319.61h2.82
		c0.47,2.06,1.55,3.92,3.1,5.35c1.55,1.43,3.5,2.35,5.59,2.64l0.25,2.82c-2.86-0.32-5.55-1.55-7.66-3.51
		c-2.12-1.96-3.55-4.54-4.1-7.37V319.61z M605.01,330.42l-0.25-2.92c1.98-0.22,3.82-1.15,5.16-2.62c1.35-1.47,2.11-3.38,2.16-5.38
		h2.8c0.02,2.72-0.98,5.35-2.81,7.36c-1.83,2.01-4.35,3.26-7.06,3.5V330.42z"/>
	<path class="st16" d="M624.75,317.22h-7.69c-0.63-3.47-2.38-6.63-4.98-9.02c-2.6-2.38-5.9-3.85-9.41-4.18l-0.68-7.69
		c-0.03-0.32-0.18-0.62-0.42-0.84c-0.24-0.22-0.55-0.34-0.87-0.35c-0.15,0-0.3,0.03-0.44,0.09c-0.14,0.06-0.26,0.15-0.37,0.26
		s-0.18,0.24-0.23,0.39c-0.05,0.14-0.07,0.3-0.05,0.45l0.68,7.69c-3.31,0.24-6.41,1.74-8.65,4.2c-2.24,2.46-3.46,5.68-3.4,9h-7.69
		c-0.15,0-0.3,0.03-0.44,0.09c-0.14,0.06-0.26,0.15-0.36,0.26c-0.1,0.11-0.18,0.25-0.22,0.39c-0.05,0.14-0.06,0.3-0.04,0.45
		c0.03,0.32,0.18,0.62,0.42,0.84c0.24,0.22,0.55,0.34,0.88,0.35h7.67c0.64,3.47,2.39,6.63,4.98,9.01c2.6,2.38,5.9,3.85,9.41,4.19
		l0.68,7.69c0.03,0.32,0.18,0.62,0.42,0.84c0.24,0.22,0.55,0.34,0.87,0.35c0.15,0,0.31-0.03,0.45-0.09
		c0.14-0.06,0.27-0.15,0.37-0.26c0.1-0.11,0.18-0.25,0.23-0.39c0.05-0.15,0.06-0.3,0.04-0.45l-0.68-7.69
		c3.32-0.24,6.42-1.74,8.66-4.2c2.24-2.46,3.45-5.68,3.39-9h7.69c0.15,0,0.31-0.03,0.45-0.09c0.14-0.06,0.27-0.15,0.37-0.26
		s0.18-0.25,0.23-0.39c0.05-0.15,0.06-0.3,0.04-0.45c-0.03-0.32-0.18-0.62-0.42-0.84C625.38,317.36,625.07,317.23,624.75,317.22z
		 M614.67,317.22h-2.71c-0.47-2.06-1.55-3.93-3.1-5.36c-1.55-1.43-3.51-2.35-5.6-2.64l-0.25-2.82c2.83,0.35,5.49,1.58,7.58,3.52
		C612.69,311.87,614.12,314.42,614.67,317.22z M601.47,317.22h-5.59c0.11-1.37,0.67-2.66,1.59-3.67c0.92-1.01,2.16-1.69,3.51-1.92
		L601.47,317.22z M601.68,319.61l0.49,5.59c-1.44-0.26-2.77-0.92-3.85-1.91c-1.07-0.99-1.84-2.27-2.22-3.68H601.68z M604.06,319.61
		h5.59c-0.11,1.37-0.67,2.66-1.59,3.67c-0.92,1.01-2.16,1.69-3.51,1.92L604.06,319.61z M603.86,317.22l-0.49-5.59
		c1.45,0.26,2.8,0.92,3.89,1.91c1.09,0.99,1.88,2.27,2.28,3.69H603.86z M600.53,306.41l0.25,2.82c-1.98,0.22-3.82,1.15-5.16,2.62
		c-1.35,1.47-2.11,3.38-2.16,5.38h-2.82c-0.02-2.72,0.99-5.35,2.82-7.37c1.83-2.01,4.35-3.27,7.07-3.51V306.41z M590.87,319.61h2.82
		c0.47,2.06,1.55,3.92,3.1,5.35c1.55,1.43,3.5,2.35,5.59,2.64l0.25,2.82c-2.86-0.32-5.55-1.55-7.66-3.51
		c-2.12-1.96-3.55-4.54-4.1-7.37V319.61z M605.01,330.42l-0.25-2.92c1.98-0.22,3.82-1.15,5.16-2.62c1.35-1.47,2.11-3.38,2.16-5.38
		h2.8c0.02,2.72-0.98,5.35-2.81,7.36c-1.83,2.01-4.35,3.26-7.06,3.5V330.42z"/>
	<path class="st10" d="M573.2,302.38c-0.37-0.01-0.73-0.15-1.01-0.41c-0.28-0.25-0.45-0.6-0.49-0.97l-1.07-12.34h12.34
		c0.38,0.01,0.74,0.15,1.02,0.41c0.28,0.26,0.46,0.61,0.5,0.99c0.02,0.18,0,0.35-0.06,0.52c-0.06,0.17-0.15,0.32-0.27,0.45
		c-0.12,0.13-0.27,0.23-0.43,0.3c-0.16,0.07-0.34,0.1-0.52,0.1h-9.48l0.82,9.5c0.03,0.19,0.01,0.38-0.04,0.56
		c-0.06,0.18-0.16,0.35-0.29,0.49c-0.13,0.14-0.29,0.25-0.47,0.31C573.59,302.37,573.4,302.4,573.2,302.38z"/>
	<path class="st10" d="M616.22,290.12c-0.02-0.18-0.01-0.36,0.04-0.53c0.05-0.17,0.14-0.33,0.26-0.46c0.12-0.13,0.27-0.24,0.43-0.31
		c0.16-0.07,0.34-0.1,0.52-0.1h12.34l1.09,12.34c0.02,0.18,0,0.35-0.06,0.52c-0.06,0.17-0.15,0.32-0.27,0.45
		c-0.12,0.13-0.27,0.23-0.43,0.3c-0.16,0.07-0.34,0.1-0.52,0.1c-0.38-0.01-0.74-0.15-1.01-0.41c-0.28-0.25-0.45-0.6-0.49-0.97
		l-0.84-9.5h-9.56c-0.38-0.01-0.75-0.16-1.03-0.43C616.41,290.87,616.24,290.51,616.22,290.12z"/>
	<path class="st10" d="M632.33,334.33c0.38,0.01,0.74,0.16,1.02,0.41c0.28,0.26,0.45,0.61,0.48,0.98l1.09,12.34h-12.34
		c-0.38-0.01-0.74-0.15-1.01-0.41c-0.28-0.25-0.45-0.6-0.49-0.97c-0.02-0.18,0-0.36,0.05-0.53c0.06-0.17,0.15-0.33,0.27-0.46
		c0.12-0.13,0.27-0.24,0.43-0.31c0.16-0.07,0.34-0.11,0.52-0.1h9.48l-0.84-9.48c-0.03-0.19-0.02-0.38,0.03-0.57
		c0.05-0.18,0.15-0.35,0.28-0.49c0.13-0.14,0.29-0.25,0.47-0.33C631.95,334.35,632.14,334.32,632.33,334.33z"/>
	<path class="st10" d="M589.34,346.6c0.02,0.18,0,0.35-0.06,0.52c-0.06,0.17-0.15,0.32-0.27,0.45c-0.12,0.13-0.27,0.23-0.43,0.3
		c-0.16,0.07-0.34,0.1-0.52,0.1h-12.34l-1.07-12.34c-0.02-0.18,0-0.35,0.05-0.52c0.05-0.17,0.14-0.32,0.26-0.46s0.26-0.24,0.43-0.31
		c0.16-0.07,0.34-0.11,0.52-0.11c0.38,0.01,0.75,0.15,1.03,0.41c0.28,0.26,0.46,0.61,0.5,0.99l0.82,9.48h9.48
		c0.2-0.01,0.4,0.02,0.6,0.09c0.19,0.07,0.36,0.18,0.51,0.31c0.15,0.14,0.27,0.3,0.35,0.49C589.29,346.2,589.34,346.4,589.34,346.6z
		"/>
	<g class="st17">
		<path class="st16" d="M573.2,302.38c-0.37-0.01-0.73-0.15-1.01-0.41c-0.28-0.25-0.45-0.6-0.49-0.97l-1.07-12.34h12.34
			c0.38,0.01,0.74,0.15,1.02,0.41c0.28,0.26,0.46,0.61,0.5,0.99c0.02,0.18,0,0.35-0.06,0.52c-0.06,0.17-0.15,0.32-0.27,0.45
			c-0.12,0.13-0.27,0.23-0.43,0.3c-0.16,0.07-0.34,0.1-0.52,0.1h-9.48l0.82,9.5c0.03,0.19,0.01,0.38-0.04,0.56
			c-0.06,0.18-0.16,0.35-0.29,0.49c-0.13,0.14-0.29,0.25-0.47,0.31C573.59,302.37,573.4,302.4,573.2,302.38z"/>
	</g>
	<g class="st17">
		<path class="st16" d="M616.22,290.12c-0.02-0.18-0.01-0.36,0.04-0.53c0.05-0.17,0.14-0.33,0.26-0.46
			c0.12-0.13,0.27-0.24,0.43-0.31c0.16-0.07,0.34-0.1,0.52-0.1h12.34l1.09,12.34c0.02,0.18,0,0.35-0.06,0.52
			c-0.06,0.17-0.15,0.32-0.27,0.45c-0.12,0.13-0.27,0.23-0.43,0.3c-0.16,0.07-0.34,0.1-0.52,0.1c-0.38-0.01-0.74-0.15-1.01-0.41
			c-0.28-0.25-0.45-0.6-0.49-0.97l-0.84-9.5h-9.56c-0.38-0.01-0.75-0.16-1.03-0.43C616.41,290.87,616.24,290.51,616.22,290.12z"/>
	</g>
	<g class="st17">
		<path class="st16" d="M632.33,334.33c0.38,0.01,0.74,0.16,1.02,0.41c0.28,0.26,0.45,0.61,0.48,0.98l1.09,12.34h-12.34
			c-0.38-0.01-0.74-0.15-1.01-0.41c-0.28-0.25-0.45-0.6-0.49-0.97c-0.02-0.18,0-0.36,0.05-0.53c0.06-0.17,0.15-0.33,0.27-0.46
			c0.12-0.13,0.27-0.24,0.43-0.31c0.16-0.07,0.34-0.11,0.52-0.1h9.48l-0.84-9.48c-0.03-0.19-0.02-0.38,0.03-0.57
			c0.05-0.18,0.15-0.35,0.28-0.49c0.13-0.14,0.29-0.25,0.47-0.33C631.95,334.35,632.14,334.32,632.33,334.33z"/>
	</g>
	<g class="st17">
		<path class="st16" d="M589.34,346.6c0.02,0.18,0,0.35-0.06,0.52c-0.06,0.17-0.15,0.32-0.27,0.45c-0.12,0.13-0.27,0.23-0.43,0.3
			c-0.16,0.07-0.34,0.1-0.52,0.1h-12.34l-1.07-12.34c-0.02-0.18,0-0.35,0.05-0.52c0.05-0.17,0.14-0.32,0.26-0.46
			s0.26-0.24,0.43-0.31c0.16-0.07,0.34-0.11,0.52-0.11c0.38,0.01,0.75,0.15,1.03,0.41c0.28,0.26,0.46,0.61,0.5,0.99l0.82,9.48h9.48
			c0.2-0.01,0.4,0.02,0.6,0.09c0.19,0.07,0.36,0.18,0.51,0.31c0.15,0.14,0.27,0.3,0.35,0.49C589.29,346.2,589.34,346.4,589.34,346.6
			z"/>
	</g>
	<path class="st10" d="M803,627.35H465.08v256.94H803V627.35z"/>
	<path class="st18" d="M803,627.35H465.08v256.94H803V627.35z"/>
	<path class="st10" d="M487.1,627.35H348.59v256.94H487.1V627.35z"/>
	<path class="st19" d="M487.1,627.35H348.59v256.94H487.1V627.35z"/>
	<path class="st10" d="M777.26,658.15H513.75v60.94h263.52V658.15z"/>
	<path class="st19" d="M777.26,658.15H513.75v60.94h263.52V658.15z"/>
	<path class="st10" d="M777.26,727.64H513.75v60.94h263.52V727.64z"/>
	<path class="st19" d="M777.26,727.64H513.75v60.94h263.52V727.64z"/>
	<path class="st10" d="M777.26,797.11H513.75v60.94h263.52V797.11z"/>
	<path class="st19" d="M777.26,797.11H513.75v60.94h263.52V797.11z"/>
	<path class="st10" d="M661.84,672.33h-32.69c-2.41,0-4.76-0.76-6.73-2.16c-1.96-1.4-3.44-3.38-4.23-5.65l-2.22-6.37h59.05
		l-2.22,6.37c-0.79,2.28-2.27,4.26-4.23,5.66C666.6,671.58,664.25,672.33,661.84,672.33z"/>
	<path class="st20" d="M661.84,672.33h-32.69c-2.41,0-4.76-0.76-6.73-2.16c-1.96-1.4-3.44-3.38-4.23-5.65l-2.22-6.37h59.05
		l-2.22,6.37c-0.79,2.28-2.27,4.26-4.23,5.66C666.6,671.58,664.25,672.33,661.84,672.33z"/>
	<path class="st10" d="M662.8,658.15l-2.22,6.37c-0.79,2.28-2.27,4.25-4.23,5.65c-1.96,1.4-4.31,2.15-6.72,2.16h12.21
		c2.41,0,4.77-0.75,6.73-2.15c1.96-1.4,3.44-3.38,4.23-5.66l2.22-6.37H662.8z"/>
	<path class="st15" d="M662.8,658.15l-2.22,6.37c-0.79,2.28-2.27,4.25-4.23,5.65c-1.96,1.4-4.31,2.15-6.72,2.16h12.21
		c2.41,0,4.77-0.75,6.73-2.15c1.96-1.4,3.44-3.38,4.23-5.66l2.22-6.37H662.8z"/>
	<path class="st10" d="M661.84,741.83h-32.69c-2.41,0-4.76-0.76-6.73-2.16c-1.96-1.4-3.44-3.38-4.23-5.65l-2.22-6.37h59.05
		l-2.22,6.37c-0.79,2.28-2.27,4.26-4.23,5.66C666.6,741.07,664.25,741.83,661.84,741.83z"/>
	<path class="st20" d="M661.84,741.83h-32.69c-2.41,0-4.76-0.76-6.73-2.16c-1.96-1.4-3.44-3.38-4.23-5.65l-2.22-6.37h59.05
		l-2.22,6.37c-0.79,2.28-2.27,4.26-4.23,5.66C666.6,741.07,664.25,741.83,661.84,741.83z"/>
	<path class="st10" d="M662.8,727.64l-2.22,6.37c-0.79,2.28-2.27,4.26-4.23,5.65c-1.96,1.4-4.31,2.16-6.72,2.16h12.21
		c2.41,0,4.77-0.75,6.73-2.15c1.96-1.4,3.44-3.38,4.23-5.66l2.22-6.37H662.8z"/>
	<path class="st15" d="M662.8,727.64l-2.22,6.37c-0.79,2.28-2.27,4.26-4.23,5.65c-1.96,1.4-4.31,2.16-6.72,2.16h12.21
		c2.41,0,4.77-0.75,6.73-2.15c1.96-1.4,3.44-3.38,4.23-5.66l2.22-6.37H662.8z"/>
	<path class="st10" d="M661.84,811.32h-32.69c-2.41,0-4.76-0.76-6.73-2.16c-1.96-1.4-3.44-3.38-4.23-5.65l-2.12-6.4h59.05l-2.22,6.4
		c-0.79,2.3-2.29,4.29-4.27,5.69C666.64,810.6,664.27,811.34,661.84,811.32z"/>
	<path class="st20" d="M661.84,811.32h-32.69c-2.41,0-4.76-0.76-6.73-2.16c-1.96-1.4-3.44-3.38-4.23-5.65l-2.12-6.4h59.05l-2.22,6.4
		c-0.79,2.3-2.29,4.29-4.27,5.69C666.64,810.6,664.27,811.34,661.84,811.32z"/>
	<path class="st10" d="M662.8,797.11l-2.22,6.4c-0.79,2.28-2.27,4.25-4.23,5.65c-1.96,1.4-4.31,2.15-6.72,2.16h12.21
		c2.41,0,4.77-0.75,6.73-2.16c1.96-1.4,3.44-3.38,4.23-5.66l2.22-6.4H662.8z"/>
	<path class="st15" d="M662.8,797.11l-2.22,6.4c-0.79,2.28-2.27,4.25-4.23,5.65c-1.96,1.4-4.31,2.15-6.72,2.16h12.21
		c2.41,0,4.77-0.75,6.73-2.16c1.96-1.4,3.44-3.38,4.23-5.66l2.22-6.4H662.8z"/>
	<path class="st10" d="M810.71,627.35H493.39v13.9h317.32V627.35z"/>
	<path class="st21" d="M810.71,627.35H493.39v13.9h317.32V627.35z"/>
	<path class="st10" d="M498.32,627.35H340.88v13.9h157.45V627.35z"/>
	<path class="st18" d="M498.32,627.35H340.88v13.9h157.45V627.35z"/>
	<path class="st22" d="M628.08,627h133.19v51.05c0,1.78-0.35,3.55-1.03,5.19c-0.68,1.65-1.68,3.14-2.94,4.4
		c-1.26,1.26-2.76,2.26-4.4,2.94c-1.65,0.68-3.41,1.03-5.19,1.03h-100c-2.58,0-5.13-0.51-7.51-1.49c-2.38-0.99-4.54-2.43-6.36-4.25
		c-1.82-1.82-3.27-3.98-4.25-6.36c-0.99-2.38-1.49-4.93-1.49-7.5V627z"/>
	<path class="st7" d="M637.6,497.02h1.77c0.48,0.02,0.96-0.08,1.41-0.27c0.44-0.2,0.83-0.49,1.14-0.86
		c0.31-0.37,0.53-0.81,0.65-1.28c0.12-0.47,0.13-0.96,0.03-1.43l-15.4-97.23c-0.19-1.06-0.73-2.02-1.55-2.72
		c-0.81-0.7-1.84-1.1-2.91-1.13H384.67l16.61,104.86L637.6,497.02z"/>
	<path class="st20" d="M637.6,497.02h1.77c0.48,0.02,0.96-0.08,1.41-0.27c0.44-0.2,0.83-0.49,1.14-0.86
		c0.31-0.37,0.53-0.81,0.65-1.28c0.12-0.47,0.13-0.96,0.03-1.43l-15.4-97.23c-0.19-1.06-0.73-2.02-1.55-2.72
		c-0.81-0.7-1.84-1.1-2.91-1.13H384.67l16.61,104.86L637.6,497.02z"/>
	<path class="st7" d="M402.25,497.02c-1.32-0.04-2.58-0.53-3.58-1.39c-1-0.86-1.67-2.04-1.91-3.34l-15.11-95.46
		c-0.12-0.58-0.11-1.18,0.04-1.76c0.14-0.58,0.42-1.11,0.8-1.57c0.38-0.46,0.86-0.82,1.41-1.06c0.54-0.24,1.13-0.36,1.73-0.34
		c1.32,0.04,2.58,0.54,3.58,1.4c1,0.86,1.67,2.04,1.91,3.33l15.11,95.46c0.12,0.58,0.1,1.18-0.04,1.76
		c-0.15,0.58-0.42,1.11-0.8,1.56c-0.38,0.46-0.86,0.82-1.4,1.06C403.43,496.92,402.84,497.03,402.25,497.02z"/>
	<path class="st23" d="M402.25,497.02c-1.32-0.04-2.58-0.53-3.58-1.39c-1-0.86-1.67-2.04-1.91-3.34l-15.11-95.46
		c-0.12-0.58-0.11-1.18,0.04-1.76c0.14-0.58,0.42-1.11,0.8-1.57c0.38-0.46,0.86-0.82,1.41-1.06c0.54-0.24,1.13-0.36,1.73-0.34
		c1.32,0.04,2.58,0.54,3.58,1.4c1,0.86,1.67,2.04,1.91,3.33l15.11,95.46c0.12,0.58,0.1,1.18-0.04,1.76
		c-0.15,0.58-0.42,1.11-0.8,1.56c-0.38,0.46-0.86,0.82-1.4,1.06C403.43,496.92,402.84,497.03,402.25,497.02z"/>
	<path class="st10" d="M731.35,627.18H425.44l17.48-154.65h284.96c2.63,0.01,5.22,0.58,7.61,1.66c2.39,1.08,4.53,2.65,6.28,4.62
		c1.75,1.96,3.06,4.27,3.85,6.78c0.79,2.5,1.05,5.15,0.76,7.76L731.35,627.18z"/>
	<path class="st23" d="M727.88,472.53H447.89v17.39h298.63c-0.33-4.72-2.44-9.14-5.9-12.36
		C737.16,474.33,732.61,472.54,727.88,472.53z"/>
	<path class="st10" d="M458.58,627.18h-83.76V488.2c0-4.16,1.65-8.14,4.59-11.08c2.94-2.94,6.92-4.59,11.08-4.59h64.62
		c2.63,0.01,5.22,0.58,7.62,1.66c2.39,1.08,4.53,2.65,6.28,4.62c1.74,1.96,3.06,4.27,3.85,6.78c0.79,2.5,1.05,5.15,0.76,7.76
		L458.58,627.18z"/>
	<path class="st24" d="M458.58,627.18h-83.76V488.2c0-4.16,1.65-8.14,4.59-11.08c2.94-2.94,6.92-4.59,11.08-4.59h64.62
		c2.63,0.01,5.22,0.58,7.62,1.66c2.39,1.08,4.53,2.65,6.28,4.62c1.74,1.96,3.06,4.27,3.85,6.78c0.79,2.5,1.05,5.15,0.76,7.76
		L458.58,627.18z"/>
	<path class="st7" d="M712,621.8l5.53-48.93H487.72l-5.53,48.93H712z"/>
	<path class="st7" d="M575.47,613.92h232.47c0.91,0.01,1.79,0.39,2.43,1.04c0.64,0.65,1.01,1.52,1.02,2.44v0.84
		c0,0.93-0.37,1.83-1.03,2.49c-0.66,0.66-1.55,1.03-2.49,1.03H575.47v-7.87V613.92z"/>
	<path class="st25" d="M575.47,613.92h232.47c0.91,0.01,1.79,0.39,2.43,1.04c0.64,0.65,1.01,1.52,1.02,2.44v0.84
		c0,0.93-0.37,1.83-1.03,2.49c-0.66,0.66-1.55,1.03-2.49,1.03H575.47v-7.87V613.92z"/>
	<path class="st7" d="M712.89,613.92h62.81c0-4.4-1.75-8.62-4.86-11.73c-3.11-3.11-7.33-4.86-11.73-4.86h-44.35L712.89,613.92z"/>
	<path class="st14" d="M712.89,613.92h62.81c0-4.4-1.75-8.62-4.86-11.73c-3.11-3.11-7.33-4.86-11.73-4.86h-44.35L712.89,613.92z"/>
	<path class="st22" d="M439.4,472.53h142.81l-9.68-80.43H429.7L439.4,472.53z"/>
	<path class="st10" d="M676.01,613.9c3.9,0.08,7.77-0.68,11.35-2.23c3.58-1.55,6.78-3.86,9.38-6.77c2.6-2.91,4.54-6.34,5.69-10.07
		c1.15-3.73,1.48-7.66,0.96-11.53c-0.52-3.87-0.19-7.8,0.95-11.52c1.15-3.73,3.09-7.16,5.69-10.07c2.6-2.91,5.8-5.22,9.38-6.77
		c3.58-1.55,7.45-2.31,11.35-2.23H599.83c-3.9-0.09-7.77,0.67-11.35,2.23c-3.58,1.55-6.78,3.86-9.38,6.77
		c-2.6,2.91-4.54,6.34-5.69,10.07c-1.15,3.73-1.48,7.66-0.96,11.53c0.51,3.87,0.18,7.8-0.96,11.53c-1.15,3.73-3.09,7.16-5.69,10.07
		c-2.6,2.91-5.8,5.22-9.38,6.77c-3.58,1.55-7.45,2.31-11.35,2.23H676.01z"/>
	<path class="st19" d="M676.01,613.9c3.9,0.08,7.77-0.68,11.35-2.23c3.58-1.55,6.78-3.86,9.38-6.77c2.6-2.91,4.54-6.34,5.69-10.07
		c1.15-3.73,1.48-7.66,0.96-11.53c-0.52-3.87-0.19-7.8,0.95-11.52c1.15-3.73,3.09-7.16,5.69-10.07c2.6-2.91,5.8-5.22,9.38-6.77
		c3.58-1.55,7.45-2.31,11.35-2.23H599.83c-3.9-0.09-7.77,0.67-11.35,2.23c-3.58,1.55-6.78,3.86-9.38,6.77
		c-2.6,2.91-4.54,6.34-5.69,10.07c-1.15,3.73-1.48,7.66-0.96,11.53c0.51,3.87,0.18,7.8-0.96,11.53c-1.15,3.73-3.09,7.16-5.69,10.07
		c-2.6,2.91-5.8,5.22-9.38,6.77c-3.58,1.55-7.45,2.31-11.35,2.23H676.01z"/>
	<path class="st10" d="M793.38,669.85c-5.4-0.12-10.57-2.18-14.57-5.8c-4-3.62-6.56-8.56-7.22-13.92l-7.01-66.82
		c-1.02-8.31-4.99-15.98-11.21-21.6c-6.21-5.62-14.24-8.81-22.61-8.99H599.83c8.37,0.18,16.4,3.37,22.61,8.99
		c6.21,5.62,10.18,13.29,11.2,21.6l7.03,66.82c0.65,5.36,3.21,10.31,7.21,13.93c4,3.62,9.18,5.68,14.58,5.79H793.38z"/>
	<path class="st21" d="M793.38,669.85c-5.4-0.12-10.57-2.18-14.57-5.8c-4-3.62-6.56-8.56-7.22-13.92l-7.01-66.82
		c-1.02-8.31-4.99-15.98-11.21-21.6c-6.21-5.62-14.24-8.81-22.61-8.99H599.83c8.37,0.18,16.4,3.37,22.61,8.99
		c6.21,5.62,10.18,13.29,11.2,21.6l7.03,66.82c0.65,5.36,3.21,10.31,7.21,13.93c4,3.62,9.18,5.68,14.58,5.79H793.38z"/>
	<path class="st10" d="M793.38,669.85c2.51,0.05,5.01-0.44,7.32-1.44c2.31-1,4.37-2.49,6.04-4.36c1.68-1.87,2.93-4.09,3.67-6.49
		c0.74-2.4,0.95-4.94,0.62-7.43H680.08c0.33,2.49,0.12,5.03-0.62,7.43c-0.74,2.4-1.99,4.62-3.67,6.49
		c-1.68,1.87-3.74,3.36-6.04,4.36c-2.31,1-4.8,1.49-7.31,1.44H793.38z"/>
	<path class="st15" d="M793.38,669.85c2.51,0.05,5.01-0.44,7.32-1.44c2.31-1,4.37-2.49,6.04-4.36c1.68-1.87,2.93-4.09,3.67-6.49
		c0.74-2.4,0.95-4.94,0.62-7.43H680.08c0.33,2.49,0.12,5.03-0.62,7.43c-0.74,2.4-1.99,4.62-3.67,6.49
		c-1.68,1.87-3.74,3.36-6.04,4.36c-2.31,1-4.8,1.49-7.31,1.44H793.38z"/>
	<path class="st7" d="M583.03,613.92h-17.7c0-2.18-0.43-4.34-1.26-6.36c-0.83-2.01-2.06-3.84-3.6-5.38
		c-1.54-1.54-3.37-2.76-5.39-3.59c-2.02-0.83-4.18-1.26-6.36-1.26h-63.73l-1.87,16.59l-0.88,7.87h100.85c0.79,0,1.55-0.32,2.11-0.87
		c0.56-0.56,0.87-1.32,0.87-2.11v-1.89c0-0.4-0.07-0.79-0.23-1.16c-0.15-0.37-0.37-0.7-0.65-0.98c-0.28-0.28-0.62-0.5-0.98-0.65
		C583.82,613.99,583.43,613.92,583.03,613.92z"/>
	<path class="st14" d="M583.03,613.92h-17.7c0-2.18-0.43-4.34-1.26-6.36c-0.83-2.01-2.06-3.84-3.6-5.38
		c-1.54-1.54-3.37-2.76-5.39-3.59c-2.02-0.83-4.18-1.26-6.36-1.26h-63.73l-1.87,16.59l-0.88,7.87h100.85c0.79,0,1.55-0.32,2.11-0.87
		c0.56-0.56,0.87-1.32,0.87-2.11v-1.89c0-0.4-0.07-0.79-0.23-1.16c-0.15-0.37-0.37-0.7-0.65-0.98c-0.28-0.28-0.62-0.5-0.98-0.65
		C583.82,613.99,583.43,613.92,583.03,613.92z"/>
	<path class="st10" d="M445.4,546.65h-93.92v80.53h93.92V546.65z"/>
	<path class="st10" d="M365.24,546.65h-13.75v80.53h13.75V546.65z"/>
	<path class="st23" d="M365.24,546.65h-13.75v80.53h13.75V546.65z"/>
	<path class="st7" d="M365.24,599.2h-13.75v28h13.75V599.2z"/>
	<path class="st10" d="M445.4,546.65h-38.9v80.53h38.9V546.65z"/>
	<path class="st19" d="M445.4,546.65h-38.9v80.53h38.9V546.65z"/>
	<path class="st10" d="M445.4,582.28h-38.9v44.9h38.9V582.28z"/>
	<path class="st10" d="M406.5,546.65h-13.75v80.53h13.75V546.65z"/>
	<path class="st20" d="M406.5,546.65h-13.75v80.53h13.75V546.65z"/>
	<path class="st10" d="M406.5,582.28h-13.75v44.9h13.75V582.28z"/>
	<path class="st9" d="M406.5,582.28h-13.75v44.9h13.75V582.28z"/>
	<path class="st10" d="M392.75,546.65h-13.75v80.53h13.75V546.65z"/>
	<path class="st26" d="M392.75,546.65h-13.75v80.53h13.75V546.65z"/>
	<path class="st10" d="M392.75,592.19h-13.75v34.99h13.75V592.19z"/>
	<path class="st24" d="M392.75,592.19h-13.75v34.99h13.75V592.19z"/>
	<path class="st10" d="M378.99,546.65h-13.75v80.53h13.75V546.65z"/>
	<path class="st14" d="M378.99,546.65h-13.75v80.53h13.75V546.65z"/>
	<path class="st10" d="M378.99,586.93h-13.75v40.28h13.75V586.93z"/>
	<path class="st27" d="M378.99,586.93h-13.75v40.28h13.75V586.93z"/>
	<path class="st28" d="M403.28,619.12c-0.07,0.84-0.44,1.62-1.06,2.18c-0.62,0.57-1.42,0.88-2.26,0.88c-0.84,0-1.65-0.32-2.26-0.88
		c-0.62-0.57-0.99-1.35-1.06-2.18c0-1.83,3.31-5.94,3.31-5.94S403.28,617.4,403.28,619.12z"/>
	<path class="st10" d="M401.96,619.45c0,0.28-0.11,0.56-0.31,0.76c-0.2,0.2-0.47,0.31-0.76,0.31c-0.6,0-0.23-0.47-0.23-1.07
		c0-0.6-0.37-1.07,0.23-1.07c0.28,0,0.56,0.11,0.76,0.31C401.85,618.9,401.96,619.17,401.96,619.45z"/>
	<path class="st28" d="M389.17,619.12c0,0.88-0.35,1.72-0.97,2.34c-0.62,0.62-1.46,0.97-2.34,0.97c-0.88,0-1.72-0.35-2.34-0.97
		c-0.62-0.62-0.97-1.46-0.97-2.34c0-1.83,3.31-5.94,3.31-5.94S389.17,617.4,389.17,619.12z"/>
	<path class="st10" d="M387.86,619.45c0,0.14-0.03,0.28-0.08,0.41c-0.05,0.13-0.13,0.25-0.23,0.35s-0.22,0.18-0.35,0.23
		c-0.13,0.05-0.27,0.08-0.41,0.08c-0.6,0-0.23-0.47-0.23-1.07c0-0.6-0.37-1.07,0.23-1.07c0.14,0,0.28,0.03,0.41,0.08
		c0.13,0.05,0.25,0.13,0.35,0.23s0.18,0.22,0.23,0.35C387.83,619.17,387.86,619.31,387.86,619.45z"/>
	<path class="st28" d="M374.18,619.12c0,0.88-0.35,1.72-0.97,2.34c-0.62,0.62-1.46,0.97-2.34,0.97c-0.88,0-1.72-0.35-2.34-0.97
		c-0.62-0.62-0.97-1.46-0.97-2.34c0-1.83,3.31-5.94,3.31-5.94S374.18,617.4,374.18,619.12z"/>
	<path class="st10" d="M372.87,619.45c0,0.28-0.11,0.56-0.31,0.76c-0.2,0.2-0.47,0.31-0.76,0.31c-0.6,0-0.23-0.47-0.23-1.07
		c0-0.6-0.37-1.07,0.23-1.07c0.28,0,0.56,0.11,0.76,0.31C372.75,618.9,372.87,619.17,372.87,619.45z"/>
	<path class="st28" d="M361.68,619.12c-0.07,0.84-0.44,1.62-1.06,2.18c-0.62,0.57-1.42,0.88-2.26,0.88c-0.84,0-1.65-0.32-2.26-0.88
		c-0.62-0.57-0.99-1.35-1.06-2.18c0-1.83,3.33-5.94,3.33-5.94S361.68,617.4,361.68,619.12z"/>
	<path class="st10" d="M360.37,619.45c0,0.28-0.11,0.56-0.31,0.76c-0.2,0.2-0.47,0.31-0.76,0.31c-0.6,0-0.23-0.47-0.23-1.07
		c0-0.6-0.37-1.07,0.23-1.07c0.28,0,0.56,0.11,0.76,0.31C360.25,618.9,360.37,619.17,360.37,619.45z"/>
	<path class="st10" d="M595.22,472.53H452.39l-17.21-108.64h142.83L595.22,472.53z"/>
	<path class="st21" d="M595.22,472.53H452.39l-17.21-108.64h142.83L595.22,472.53z"/>
	<path class="st10" d="M508.61,483.76h204.1c-1.45-3.33-3.85-6.17-6.89-8.15c-3.04-1.99-6.6-3.05-10.23-3.05H491.46
		c3.64,0,7.2,1.06,10.24,3.05C504.74,477.59,507.14,480.43,508.61,483.76z"/>
	<path class="st20" d="M508.61,483.76h204.1c-1.45-3.33-3.85-6.17-6.89-8.15c-3.04-1.99-6.6-3.05-10.23-3.05H491.46
		c3.64,0,7.2,1.06,10.24,3.05C504.74,477.59,507.14,480.43,508.61,483.76z"/>
	<path class="st10" d="M735.03,600.09c-12.77-2.55-23.71-6.52-22.14-12.34c1.56-5.82,19.96,11.54,22.18,0
		c2.22-11.53-28.17-9.07-16.3-17.52c6.56-4.67,6.52-11.97,5.16-17.56h-18.05c-0.97,4.63,0.66,9.68-2.67,10.28
		c-3.33,0.6-4.89-5.14-7.07-10.28h-12.87c1.71,8,13.9,18.5,7.15,23.13c-8.88,6.17-26.6-29.71-36.49-14.04
		c-9.89,15.67,31.71,23.09,27.55,31.77c-4.15,8.68-32.5-11.08-30.45,6.56c2.06,17.64,36.68,9.85,36.68,9.85l-7.9,13.3l4.71,3.74
		l4.11-11.47c4.58-11.06,7.75-2.49,11.43,2.8c11.84,16.96,40.69,7.01,17-4.67c-23.69-11.68-14.78-12.64,6-3.7
		C743.85,618.88,747.8,602.64,735.03,600.09z"/>
	<path class="st23" d="M735.03,600.09c-12.77-2.55-23.71-6.52-22.14-12.34c1.56-5.82,19.96,11.54,22.18,0
		c2.22-11.53-28.17-9.07-16.3-17.52c6.56-4.67,6.52-11.97,5.16-17.56h-18.05c-0.97,4.63,0.66,9.68-2.67,10.28
		c-3.33,0.6-4.89-5.14-7.07-10.28h-12.87c1.71,8,13.9,18.5,7.15,23.13c-8.88,6.17-26.6-29.71-36.49-14.04
		c-9.89,15.67,31.71,23.09,27.55,31.77c-4.15,8.68-32.5-11.08-30.45,6.56c2.06,17.64,36.68,9.85,36.68,9.85l-7.9,13.3l4.71,3.74
		l4.11-11.47c4.58-11.06,7.75-2.49,11.43,2.8c11.84,16.96,40.69,7.01,17-4.67c-23.69-11.68-14.78-12.64,6-3.7
		C743.85,618.88,747.8,602.64,735.03,600.09z"/>
	<path class="st10" d="M227.49,886.88h-37.77c-3.53-0.01-6.92-1.41-9.41-3.91c-2.5-2.5-3.9-5.88-3.91-9.41V714.98h64.43v158.58
		c0,3.54-1.41,6.92-3.91,9.42C234.41,885.47,231.02,886.88,227.49,886.88z M184.62,723.2v150.36c0.01,1.35,0.54,2.65,1.5,3.6
		c0.95,0.95,2.25,1.49,3.6,1.5h37.77c1.35,0,2.65-0.54,3.6-1.5c0.95-0.95,1.49-2.25,1.5-3.6V723.2H184.62z"/>
	<g class="st29">
		<path class="st30" d="M227.49,886.88h-37.77c-3.53-0.01-6.92-1.41-9.41-3.91c-2.5-2.5-3.9-5.88-3.91-9.41V714.98h64.43v158.58
			c0,3.54-1.41,6.92-3.91,9.42C234.41,885.47,231.02,886.88,227.49,886.88z M184.62,723.2v150.36c0.01,1.35,0.54,2.65,1.5,3.6
			c0.95,0.95,2.25,1.49,3.6,1.5h37.77c1.35,0,2.65-0.54,3.6-1.5c0.95-0.95,1.49-2.25,1.5-3.6V723.2H184.62z"/>
	</g>
	<path class="st10" d="M370.75,886.88h-37.77c-3.53-0.01-6.92-1.41-9.41-3.91c-2.5-2.5-3.9-5.88-3.91-9.41V714.98h64.42v158.58
		c0,3.53-1.4,6.92-3.9,9.42C377.67,885.47,374.28,886.88,370.75,886.88z M327.88,723.2v150.36c0,1.35,0.54,2.65,1.49,3.61
		c0.96,0.95,2.25,1.49,3.6,1.49h37.77c1.35,0,2.65-0.54,3.61-1.49c0.96-0.96,1.49-2.25,1.49-3.61V723.2H327.88z"/>
	<g class="st29">
		<path class="st30" d="M370.75,886.88h-37.77c-3.53-0.01-6.92-1.41-9.41-3.91c-2.5-2.5-3.9-5.88-3.91-9.41V714.98h64.42v158.58
			c0,3.53-1.4,6.92-3.9,9.42C377.67,885.47,374.28,886.88,370.75,886.88z M327.88,723.2v150.36c0,1.35,0.54,2.65,1.49,3.61
			c0.96,0.95,2.25,1.49,3.6,1.49h37.77c1.35,0,2.65-0.54,3.61-1.49c0.96-0.96,1.49-2.25,1.49-3.61V723.2H327.88z"/>
	</g>
	<g class="st17">
		<path class="st20" d="M227.49,886.88h-37.77c-3.53-0.01-6.92-1.41-9.41-3.91c-2.5-2.5-3.9-5.88-3.91-9.41V714.98h64.43v158.58
			c0,3.54-1.41,6.92-3.91,9.42C234.41,885.47,231.02,886.88,227.49,886.88z M184.62,723.2v150.36c0.01,1.35,0.54,2.65,1.5,3.6
			c0.95,0.95,2.25,1.49,3.6,1.5h37.77c1.35,0,2.65-0.54,3.6-1.5c0.95-0.95,1.49-2.25,1.5-3.6V723.2H184.62z"/>
		<g class="st29">
			<path class="st14" d="M227.49,886.88h-37.77c-3.53-0.01-6.92-1.41-9.41-3.91c-2.5-2.5-3.9-5.88-3.91-9.41V714.98h64.43v158.58
				c0,3.54-1.41,6.92-3.91,9.42C234.41,885.47,231.02,886.88,227.49,886.88z M184.62,723.2v150.36c0.01,1.35,0.54,2.65,1.5,3.6
				c0.95,0.95,2.25,1.49,3.6,1.5h37.77c1.35,0,2.65-0.54,3.6-1.5c0.95-0.95,1.49-2.25,1.5-3.6V723.2H184.62z"/>
		</g>
	</g>
	<g class="st17">
		<path class="st20" d="M370.75,886.88h-37.77c-3.53-0.01-6.92-1.41-9.41-3.91c-2.5-2.5-3.9-5.88-3.91-9.41V714.98h64.42v158.58
			c0,3.53-1.4,6.92-3.9,9.42C377.67,885.47,374.28,886.88,370.75,886.88z M327.88,723.2v150.36c0,1.35,0.54,2.65,1.49,3.61
			c0.96,0.95,2.25,1.49,3.6,1.49h37.77c1.35,0,2.65-0.54,3.61-1.49c0.96-0.96,1.49-2.25,1.49-3.61V723.2H327.88z"/>
		<g class="st29">
			<path class="st14" d="M370.75,886.88h-37.77c-3.53-0.01-6.92-1.41-9.41-3.91c-2.5-2.5-3.9-5.88-3.91-9.41V714.98h64.42v158.58
				c0,3.53-1.4,6.92-3.9,9.42C377.67,885.47,374.28,886.88,370.75,886.88z M327.88,723.2v150.36c0,1.35,0.54,2.65,1.49,3.61
				c0.96,0.95,2.25,1.49,3.6,1.49h37.77c1.35,0,2.65-0.54,3.61-1.49c0.96-0.96,1.49-2.25,1.49-3.61V723.2H327.88z"/>
		</g>
	</g>
	<path class="st10" d="M386.31,668.65H229.3v58.99h157.02V668.65z"/>
	<path class="st18" d="M386.31,668.65H229.3v58.99h157.02V668.65z"/>
	<path class="st10" d="M239.54,668.65h-64.35v58.99h64.35V668.65z"/>
	<path class="st19" d="M239.54,668.65h-64.35v58.99h64.35V668.65z"/>
	<path class="st10" d="M394.27,655.13H240.91v17.19h153.36V655.13z"/>
	<path class="st21" d="M394.27,655.13H240.91v17.19h153.36V655.13z"/>
	<path class="st10" d="M243.3,655.13h-76.09v17.19h76.09V655.13z"/>
	<path class="st18" d="M243.3,655.13h-76.09v17.19h76.09V655.13z"/>
	<path class="st10" d="M373.69,682.16H252.14v33.92h121.55V682.16z"/>
	<path class="st19" d="M373.69,682.16H252.14v33.92h121.55V682.16z"/>
	<path class="st10" d="M321.14,699.64c1.24,0,2.44-0.49,3.31-1.37s1.37-2.07,1.37-3.31c0-1.24-0.49-2.44-1.37-3.31
		c-0.88-0.88-2.07-1.37-3.31-1.37h-6.17c-1.24,0-2.44,0.49-3.31,1.37c-0.88,0.88-1.37,2.07-1.37,3.31c0,1.24,0.49,2.44,1.37,3.31
		c0.88,0.88,2.07,1.37,3.31,1.37H321.14z"/>
	<path class="st14" d="M321.14,699.64c1.24,0,2.44-0.49,3.31-1.37s1.37-2.07,1.37-3.31c0-1.24-0.49-2.44-1.37-3.31
		c-0.88-0.88-2.07-1.37-3.31-1.37h-6.17c-1.24,0-2.44,0.49-3.31,1.37c-0.88,0.88-1.37,2.07-1.37,3.31c0,1.24,0.49,2.44,1.37,3.31
		c0.88,0.88,2.07,1.37,3.31,1.37H321.14z"/>
	<path class="st10" d="M325.83,695.01c0,0.93-0.28,1.83-0.79,2.6c-0.52,0.77-1.25,1.37-2.1,1.73c-0.86,0.35-1.8,0.45-2.71,0.27
		c-0.91-0.18-1.74-0.63-2.4-1.28c-0.66-0.65-1.1-1.49-1.28-2.4c-0.18-0.91-0.09-1.85,0.27-2.71c0.35-0.86,0.95-1.59,1.73-2.1
		c0.77-0.52,1.68-0.79,2.6-0.79c1.24,0,2.44,0.49,3.31,1.37S325.83,693.77,325.83,695.01z"/>
	<path class="st20" d="M325.83,695.01c0,0.93-0.28,1.83-0.79,2.6c-0.52,0.77-1.25,1.37-2.1,1.73c-0.86,0.35-1.8,0.45-2.71,0.27
		c-0.91-0.18-1.74-0.63-2.4-1.28c-0.66-0.65-1.1-1.49-1.28-2.4c-0.18-0.91-0.09-1.85,0.27-2.71c0.35-0.86,0.95-1.59,1.73-2.1
		c0.77-0.52,1.68-0.79,2.6-0.79c1.24,0,2.44,0.49,3.31,1.37S325.83,693.77,325.83,695.01z"/>
	<path class="st7" d="M306.19,646.45h1.77c2.06,0,3.58-1.38,3.23-3.09l-15.4-78.37c-0.3-0.93-0.9-1.74-1.71-2.31
		c-0.81-0.56-1.77-0.84-2.76-0.8h-122.5l16.63,84.56H306.19z"/>
	<path class="st18" d="M306.19,646.45h1.77c2.06,0,3.58-1.38,3.23-3.09l-15.4-78.37c-0.3-0.93-0.9-1.74-1.71-2.31
		c-0.81-0.56-1.77-0.84-2.76-0.8h-122.5l16.63,84.56H306.19z"/>
	<path class="st7" d="M186.37,646.45c-1.2,0.05-2.39-0.29-3.38-0.98c-0.99-0.69-1.72-1.68-2.09-2.83l-15.09-76.96
		c-0.41-2.06,1.36-3.8,3.97-3.8c1.2-0.05,2.39,0.3,3.37,0.98c0.99,0.69,1.72,1.68,2.09,2.82l15.13,76.96
		C190.73,644.76,188.94,646.45,186.37,646.45z"/>
	<path class="st15" d="M186.37,646.45c-1.2,0.05-2.39-0.29-3.38-0.98c-0.99-0.69-1.72-1.68-2.09-2.83l-15.09-76.96
		c-0.41-2.06,1.36-3.8,3.97-3.8c1.2-0.05,2.39,0.3,3.37,0.98c0.99,0.69,1.72,1.68,2.09,2.82l15.13,76.96
		C190.73,644.76,188.94,646.45,186.37,646.45z"/>
	<path class="st7" d="M255.61,646.45h132.9v1.19c0,2.01-0.8,3.93-2.22,5.35c-1.42,1.42-3.34,2.22-5.35,2.22H255.53v-8.78
		L255.61,646.45z"/>
	<path class="st19" d="M255.61,646.45h132.9v1.19c0,2.01-0.8,3.93-2.22,5.35c-1.42,1.42-3.34,2.22-5.35,2.22H255.53v-8.78
		L255.61,646.45z"/>
	<path class="st7" d="M186,646.45h92.89v1.19c0,2.01-0.8,3.93-2.22,5.35c-1.42,1.42-3.34,2.22-5.35,2.22h-77.76
		c-2.01,0-3.93-0.8-5.35-2.22c-1.42-1.42-2.22-3.34-2.22-5.35V646.45z"/>
	<path class="st20" d="M186,646.45h92.89v1.19c0,2.01-0.8,3.93-2.22,5.35c-1.42,1.42-3.34,2.22-5.35,2.22h-77.76
		c-2.01,0-3.93-0.8-5.35-2.22c-1.42-1.42-2.22-3.34-2.22-5.35V646.45z"/>
	<path class="st9" d="M337.65,646.45c0.12,0.81,0.54,1.56,1.19,2.07c0.65,0.51,1.46,0.76,2.29,0.69h14.39
		c0.82,0.07,1.64-0.17,2.29-0.69c0.65-0.51,1.07-1.25,1.19-2.07H337.65z"/>
	<path class="st28" d="M301.77,639.81H197.43l-14.1-71.75h104.34L301.77,639.81z"/>
	<path class="st10" d="M226.6,634.83l8.35-11.06c0,0-29.79,6.48-29.18-8.22c0.62-14.7,21.59,1.79,26.17-5.41
		c4.59-7.2-28.99-13.36-18.71-26.4c10.28-13.03,20.29,16.84,28.48,11.68c8.18-5.16-9.56-18.5,0-24.67
		c9.56-6.17,6.85,15.07,12.34,14.04c5.49-1.03-2.06-15.61,17.13-15.17c0,0,5.82,14.17-5.14,21.18
		c-10.96,7.01,14.62,4.98,11.25,14.56c-3.37,9.58-16.45-4.79-18.5,0c-2.06,4.79,6.52,8.1,16.8,10.28
		c10.28,2.18,4.79,15.64-11.31,8.22c-16.1-7.42-23.64-6.64-5.49,3.06c18.15,9.7-7.11,17.97-14.74,3.89
		c-2.36-4.4-3.86-11.51-9.13-2.34l-4.87,9.5L226.6,634.83z"/>
	<path class="st7" d="M236.62,564.39c0.07,0.32,0.04,0.65-0.08,0.96c-0.13,0.3-0.34,0.56-0.62,0.73c-0.28,0.17-0.6,0.26-0.93,0.24
		c-0.33-0.02-0.64-0.14-0.9-0.34c-0.26-0.21-0.44-0.48-0.53-0.8c-0.09-0.31-0.08-0.65,0.03-0.96c0.11-0.31,0.31-0.58,0.58-0.77
		c0.27-0.19,0.59-0.29,0.92-0.29c0.37-0.03,0.73,0.07,1.02,0.31C236.38,563.69,236.57,564.03,236.62,564.39z"/>
</g>
</svg>
