<?xml version="1.0" encoding="utf-8"?>
<!-- Generator: Adobe Illustrator 24.3.0, SVG Export Plug-In . SVG Version: 6.00 Build 0)  -->
<svg version="1.1" id="Layer_1" xmlns="http://www.w3.org/2000/svg" xmlns:xlink="http://www.w3.org/1999/xlink" x="0px" y="0px"
	 viewBox="0 0 1080 1080" style="enable-background:new 0 0 1080 1080;" xml:space="preserve">
<style type="text/css">
	.st0{fill:#009AFE;}
	.st1{fill:#FCC201;}
	.st2{fill:#01B07E;}
	.st3{fill:#36C202;}
	.st4{fill:#0FB90D;}
	.st5{fill:#054BAD;}
	.st6{fill:#FEC853;}
	.st7{fill:#E00165;}
	.st8{fill:#93E443;}
	.st9{fill:#FA0203;}
	.st10{fill:#1F45D3;}
	.st11{fill:#FCE436;}
	.st12{fill:#83DF3D;}
	.st13{fill:#8901AC;}
	.st14{fill:#4992F0;}
	.st15{fill:#01247B;}
	.st16{fill:#1F46D4;}
	.st17{fill:#6FE4E0;}
	.st18{fill:#FFFFFF;}
	.st19{fill:#366EE3;}
	.st20{fill:#44E01E;}
	.st21{fill:#02257C;}
	.st22{fill:#61D42E;}
	.st23{fill:#20449A;}
	.st24{fill:#189BCD;}
	.st25{fill:#24D1E4;}
	.st26{fill:#44CB22;}
	.st27{fill:#22C09B;}
	.st28{fill:#3357AD;}
	.st29{fill:#8902AC;}
	.st30{fill:#0C67B8;}
	.st31{fill:#3ACBB0;}
	.st32{fill:#1EB7D9;}
	.st33{fill:#476BBF;}
	.st34{fill:#E20263;}
	.st35{fill:#FBB614;}
	.st36{fill:#259E05;}
	.st37{fill:#049AFC;}
	.st38{fill:#0682F1;}
</style>
<path class="st0" d="M99.2,494.9c-5.9,1.6-11.9,2.6-17.3,5.7c-4.5,2.5-7.6,6.1-8.5,11.2c-1.6,8.1,1.6,13.7,9.4,16.3
	c4.2,1.4,8.4,2.6,12.6,4c0.8,2.9-0.9,5.3-1.8,7.8c-5,12.8-13.5,23.3-23,33c-0.3,0.3-0.8,0.4-1.2,0.3c-19,0.9-36.8-13.7-40-33.9
	c-5.6-36.2,11.8-70.5,54.3-79.8c3.6-0.8,7.1-1.7,10.8-1.6c1.8,1.7,1.9,4.1,2.2,6.3c1,8.4,2.1,16.8,3.2,25.2
	C100.2,491.2,100.9,493.2,99.2,494.9z"/>
<path class="st1" d="M449.9,501.3c8.7,14.2,16,29.1,23.6,43.9c4.6,8.9,8.7,18.1,13.2,27.2c1.4,2.8,1,4.3-2.1,5.5
	c-13.3,5.1-27.1,7-41.2,7.2c-3.3,0.1-4.5-2.2-5.9-4.3c-6.3-9.8-11.5-20.1-16.2-30.7c-6.8-15-15.1-29.2-22.4-44
	c-3.3-6.6-3.4-13.3,2.5-18.9c4.2-0.9,7.9,1.3,11.7,2.4c11,4.7,22,9.2,34,10.7C448,500.3,449,500.7,449.9,501.3z"/>
<path class="st2" d="M214,555.8c-2.7-7.4-5.4-14.8-8.1-22.2c-0.8-2.3-1.8-4.5-3.9-6.6c-1.7,10.4-0.3,20.6-1.6,30.6
	c-1.4,1.4-3.4,1.5-5.1,1.6c-9.3,0.5-18.5,1.8-27.8,1.4c-2-0.1-4-0.3-5.6-1.6c1.1-26.4,2.1-52.9,3.2-79.3
	c19.1,20.3,42.4,32.7,69.9,37.5c1.4,0.2,2.7,0.1,4.1,0c1.8,3.2,3.5,6.5,5.3,9.8c0.9,1,1.9,1.9,2,3.4c0.3,4.5,2.2,8.5,4.2,12.4
	c1.1,2.2,1.5,4.3-0.2,6.4c-2.7,2.3-6.2,2.3-9.4,3.1c-7.4,1.8-14.9,3.3-22.5,4.1C216.9,556.5,215.4,556.9,214,555.8z"/>
<path class="st3" d="M391.3,545c-0.1,15.1-0.2,30.2-0.1,45.4c0,2.4-1.4,3.2-3,4.1c-8.4,4.8-17.7,6.4-27.3,6.9
	c-12.9,0.6-12.9,0.5-12.9-12.5c0.1-25.1,0.2-50.1,0.4-75.2c0-2.4,0.3-4.9,0.4-7.3c1.4-2.4,3.9-3.4,6-4.8c4.1-2.7,8.5-4.9,12.5-7.7
	c1.3-0.9,2.7-1.6,4.3-0.8c2.2,2.4,2.2,5.6,2.4,8.6c0.6,7.3,2.1,14.5,4.7,21.4c1.9,5.1,4.9,9.1,10.7,10.2c1.7,0.3,2.4,1.1,2.2,2.8
	C391.4,538.9,392,542,391.3,545z"/>
<path class="st4" d="M239.1,517.3c-0.7,2-2.1,1.7-3.7,1.4c-20-3.4-38.2-11.2-54.7-22.9c-5.2-3.7-9.1-9-14.4-12.6
	c-1.2-0.8-0.8-2.2-1.2-3.3c0.4-8.2,0.9-16.4,1.2-24.7c0.2-4.9,2.5-8,7.1-9.5c10.3-3.4,20.8-5.8,31.8-5.9c3.3,0,4.9,1.1,6.1,4
	c8.5,20.1,16.2,40.5,23.7,60.9C236.4,508.9,237.7,513.1,239.1,517.3z"/>
<path class="st0" d="M813.8,477.4c0,12.2-0.1,24.4,0.1,36.7c0,2.8-1,4.1-3.5,4.9c-4.2,1.4-8.6,2-13,2.2c-2.9,0.1-3.6-1.1-3.5-3.8
	c0.1-8.6-0.2-17.1-0.1-25.7c0-2.7-0.8-3.7-3.4-2.8c-0.9,0.3-1.8,0.4-2.7,0.7c-4.1,1.1-9.8,0-11.9,3.1c-1.9,2.8-0.6,8-0.6,12.1
	c0,5.6-0.1,11.3,0,17c0.1,2.2-0.7,3.2-2.8,3.9c-4.3,1.4-8.6,2-13,2.4c-3,0.2-4.3-0.6-4.2-4c0.3-24.6,0.5-49.2,0.5-73.8
	c0-2.8,1.2-3.8,3.5-4.4c4.3-1.2,8.7-1.6,13.1-2c2.6-0.2,3.1,0.6,3.1,3c-0.1,7.6,0.1,15.3-0.1,22.9c-0.1,3,1,3.8,3.7,3.2
	c2.2-0.5,4.5-1,6.7-1.3c8.8-1.2,8.8-1.2,8.7-10.2c0-6,0-11.9-0.2-17.9c-0.1-2.4,0.7-3.6,3-4.3c4.3-1.3,8.6-2.1,13-2.3
	c2.9-0.1,4,0.7,3.9,3.8C813.7,452.9,813.8,465.2,813.8,477.4C813.8,477.4,813.8,477.4,813.8,477.4z"/>
<path class="st0" d="M822.7,475.4c0-12.4,0.1-24.8,0-37.1c0-2.7,1-3.6,3.6-4c13-2.1,25.9-4.4,38.8-6.7c3.1-0.6,5-0.2,4.6,3.7
	c-0.2,2.4,0.1,4.8,0.2,7.2c0.2,5.3-2.1,7.1-7.1,7.5c-5.6,0.5-11.1,2.1-16.7,2.8c-3,0.4-3.6,1.5-3.6,4.3c0.1,8.3,0,8.3,8,6.9
	c1.8-0.3,3.6-0.6,5.4-0.8c8-1,8-1,8.5,7.2c0.6,7.9-0.3,9-8,10.7c-2.4,0.5-4.8,0.8-7.2,1.4c-2.3,0.5-5.5-0.2-6.4,2.3
	c-1.6,4.2-1.1,8.8-0.1,13.1c0.3,1.5,1.8,0.7,2.8,0.5c6.5-1.2,12.9-2.3,19.4-3.6c3.7-0.7,5.9,0.1,5.9,4.3c0,1.2,0.3,2.4,0.4,3.6
	c0.6,7.1-1.1,9.4-8.2,10.7c-12.2,2.2-24.4,4.2-36.6,6.3c-2.9,0.5-4.1-0.2-4-3.4C822.8,500.1,822.7,487.8,822.7,475.4
	C822.7,475.4,822.7,475.4,822.7,475.4z"/>
<path class="st0" d="M601.9,555.2c-1.6-0.1-4.3-0.5-7-0.4c-3.4,0-4.2-1.6-3.5-4.6c1-4.1,2-8.3,2.8-12.5c0.5-2.5,2.1-2.1,3.8-1.8
	c5.2,0.8,10.5,2.4,15.8,0.6c1-0.3,2.1-0.5,3-1c3.8-1.7,7.8-3.6,7.5-8.7c-0.4-4.9-4.6-5.5-8.3-6.3c-1.9-0.4-3.9-0.8-5.8-1.2
	c-15.6-3.7-21.9-17-15-31.6c4.9-10.5,13.3-16.4,24.5-18.5c6.7-1.2,13.4-0.7,20.1,0c2.2,0.2,2.9,1.1,2.6,3.2c-0.7,4.4-2,8.6-3.6,12.8
	c-0.6,1.6-1.7,1.8-3.2,1.5c-3-0.6-6-1-9.1-1.2c-3.8-0.2-7.3,0.7-10.4,2.9c-2.1,1.5-3.3,3.5-3.1,6.2c0.2,2.8,2.2,4,4.4,4.7
	c4.6,1.5,9.4,2.6,14.1,4c9.5,2.8,13.5,8.1,13.8,18c0.4,16.8-11.3,30-29.5,33.1C611.7,555.2,607.4,555.3,601.9,555.2z"/>
<path class="st5" d="M449.9,501.3c-9.9,0-19-3.1-28-6.8c-3.2-1.3-6.4-2.7-9.6-4.1c-0.8-2.4,0.5-4.1,1.6-5.9c4.7-7,7.1-14.8,7.1-23.2
	c0-2.1,0.2-4.3,1-6.3c0.9-2.2,2.6-3.8,4.2-5.4c13.9-13.2,25.9-27.9,36.9-43.6c2.5-3.5,4.2-7.4,6.2-11.2c0.8-1.5,1.1-3.2,2.7-4.1
	c3.3-1,6.9-0.2,10.3-1.5c2.7-1,1.9,1.4,1.4,2.8c-3.1,8-6,16-9.4,23.8c-9.1,21.1-18.4,42.1-27.9,63.1c-2.9,6.4-3.2,12.2,1,18
	C448.7,498.2,449.2,499.8,449.9,501.3z"/>
<path class="st6" d="M138.8,608.5c0.4,6.2-3.6,10.5-6.8,14.9c-11.2,15.1-26.2,24.8-44.5,29.5c-14.1,3.6-28.4,5.5-43,4.7
	c-5.2-0.3-10.3-1.1-15-3.7c-0.5-2.1,1.3-2.9,2.4-3.9c6.8-6.2,14.9-10.5,22.9-14.9c9.9-5.4,20.1-10,30.6-14.2
	c4.6-1.4,9.1-3.3,13.8-4.5c2.5-0.8,5-1.4,7.6-2.1c8.8-2.5,17.7-4.2,26.5-6.1C135.1,607.8,137.1,606.8,138.8,608.5z"/>
<path class="st7" d="M349,440.2c-0.3-7.3-0.5-14.7-0.8-22c-0.1-1.9,0.3-3.1,2.3-3.8c12.2-4.2,24.4-8.2,37.5-7.2
	c2.4,0.2,4,0.5,3.9,3.6c-0.1,22.6-0.1,45.3-0.1,67.9c0,0.6-0.2,1.2-0.4,1.8c-0.8,1.1-1.9,0.9-3,0.6c-2.3-1.1-4.1-2.9-6.2-4.3
	c-2.8-2.2-5.3-4.7-8.3-6.6C363.9,461.6,356.3,451,349,440.2z"/>
<path class="st0" d="M999.7,412.8c0.5-8.9,0.5-9,8.3-10.4c14.7-2.7,29.5-5.3,44.2-7.9c1.3-0.2,2.9-0.8,4,0.2
	c3.3,3.2,2.2,7.4,1.9,11.3c-0.3,2.8-0.7,5.9-4.6,6.3c-2.7,0.3-5.4,0.9-8.1,1.4c-6.8,1.3-7,1.3-7,8.5c0,14.2,0.2,28.4,0.3,42.7
	c0,2,0.1,4,0.1,6c0,8.1-0.3,8.4-8.4,9.8c-11.3,1.9-11.3,1.9-11.3-9.5c0-16-0.1-32.1,0-48.2c0-3.5-0.8-4.8-4.4-3.8
	c-2.9,0.8-6,1.1-9,1.8c-4.1,1-6.2,0-5.8-4.6C1000,414.9,999.7,413.3,999.7,412.8z"/>
<path class="st8" d="M288.2,424.4c9.7-3.6,19.9-4,30.1-4.2c2.7-0.1,3.1,1.6,3.2,3.9c0.2,9.3,0.7,18.6,1,27.9
	c0.5,14.6,1,29.3,1.5,43.9c-6.1,3.7-11.5,8.8-18.7,10.5c-2.1-0.5-3.7-1.7-4-3.9c-0.5-3.3-2.2-6.5-2-9.8c0.5-11.3-3.5-21.9-4.3-33
	c-0.8-10.8-4.2-21.2-4.5-32C290.3,426.1,288.9,425.6,288.2,424.4z"/>
<path class="st9" d="M69.3,573.2c1.6-2,3.1-4.1,4.9-6c9.8-10.1,16.7-21.9,21.2-35.2c10.9,1.2,21.1,4.5,30.8,9.5
	c10.6,5.5,15.7,14.8,17.6,26.3c-0.8,1.9-2.6,2-4.2,2.1c-17.5,1.8-34.9,3.4-52.4,5.5c-2.5,0.3-4.8-0.7-7.3-0.6
	C76.4,573.9,72.7,574.6,69.3,573.2z"/>
<path class="st10" d="M161.9,559.1c12.9,0.5,25.7-0.6,38.5-1.5c-0.1,16.2-0.4,32.4-1.5,48.5c-1.2,1.4-3,1.5-4.6,1.5
	c-9.9,0.1-19.8,0.1-29.7,0c-1.5,0-3.1-0.1-4.3-1.3C160.8,590.6,161.4,574.9,161.9,559.1z"/>
<path class="st11" d="M197.6,656.8c-0.1,8.4,0.1,16.8-0.2,25.1c-0.3,8-4.5,10.4-12.1,8.3c-16.3-4.5-22.6-16.8-25.4-31.9
	c-1.2-6.6-1.4-13.3-1.1-20c2.8-2.2,6.1-2.8,9.4-3c8.4-0.6,16.7-0.4,25,1.2c3.4,0.6,5,2,4.7,5.8C197.5,647.1,198.3,652,197.6,656.8z"
	/>
<path class="st12" d="M288.2,424.4c3,0.1,6.1,0.1,3.1,4.5c-0.6,0.9,0,2,0.2,3.1c1.7,10.1,3.8,20.2,4.9,30.3
	c0.7,6.3,2.6,12.4,3.3,18.7c0.2,2,0.8,4,0.4,5.9c-0.9,5.5,2.1,10.4,2.1,15.7c0,2.4,2.7,1.9,3.5,3.3c-0.2,1.9-1.8,2.3-3.1,3
	c-4.4,2.4-9.3,3.7-14,5.2c-1.3,0.4-2.7,0.6-3.7-0.7c-0.8-0.8,0.9-3.7-2.1-2.7c-2.3-3.3-2.2-7.2-2.9-10.9
	c-2.1-11.9-3.2-23.9-5.9-35.7c-0.9-4-0.1-8.3-2.1-12.1c2.6-8,5.8-15.8,9.9-23.2C283.3,426.2,285.3,424.7,288.2,424.4z"/>
<path class="st0" d="M585.1,517.6c0,12.1-0.2,24.1,0.1,36.2c0.1,3.5-1.2,5-4.3,5.8c-4,1.1-8,1.8-12.2,1.8c-2.2,0-3.2-0.6-3.2-3.1
	c0.1-25,0.2-50.1,0.2-75.1c0-2.3,1-3.3,3-3.9c4.2-1.3,8.7-1.7,13-2.4c2.9-0.4,3.6,0.8,3.6,3.5C585.1,492.9,585.2,505.2,585.1,517.6
	C585.2,517.6,585.2,517.6,585.1,517.6z"/>
<path class="st10" d="M214,555.8c12.1-1.9,24.1-3.6,35.8-7.4c5.8-3.1,12.4-3.8,18.4-6.3c1-0.2,2,0,2.8,0.7
	c-2.8,10.9-6.4,21.6-10.3,32.2c-1.8,4.9-5.9,7.2-10.5,8.9c-7.1,2.5-14.6,3-22.1,3.3c-1.7,0.1-2.9-0.4-3.5-2.2
	C221.1,575.3,217.5,565.6,214,555.8z"/>
<path class="st13" d="M99.2,494.9c-1.5-12.3-3.1-24.7-4.6-37c12-2.7,24-1.5,36,0.1c9.1,1.2,9,1.4,7.5,10.7c-1.5,9.2-4.8,18-7.5,26.9
	c-0.8,2.8-2.6,2.5-4.6,2.3C117.1,496.9,108.1,495.9,99.2,494.9z"/>
<path class="st7" d="M472.2,390.8c-4,12.1-12.1,21.8-19.7,31.7c-8.9,11.5-18.7,22.1-29.2,32.1c-3.6,4.2-7,8.7-12.9,10
	c0.5-6.2,3.4-11.6,5.6-17.3c5.4-13.8,12.4-26.9,17-41c1.5-4.6,4.5-7.9,9.2-9.5C452,393.5,461.9,391.2,472.2,390.8z"/>
<path class="st14" d="M327.9,579.6c1.4,7.5,0.6,15.2,1.2,22.8c0.2,2.4-2.1,3.2-3.8,4c-8.3,4.4-17.4,5.5-26.5,6
	c-3.6,0.2-8,1.8-10.6-0.4c-2.6-2.1-1-6.6-1.1-10c-0.4-8.4-0.2-16.8-0.3-25.1c2.3,3.6,5.5,3,8.9,1.9
	C306.5,575.2,317.2,576.3,327.9,579.6z"/>
<path class="st15" d="M85.4,621.9c-14.6,6.4-29.3,12.8-42.7,21.6c-4.7,3.1-9.5,6.1-13.2,10.5c-6.4-1-6.4-1-4.9-7.1
	c2.4-10.2,4.8-20.4,6.9-30.7c0.7-3.5,2.2-4.9,5.8-4.3c5.1,0.8,10.3,1.1,15.4,2c10.9,1.9,21.5,1.7,31.9-2.4
	C84.7,615,84.5,618.5,85.4,621.9z"/>
<path class="st16" d="M286.4,560.3c-1-7.6-0.3-15.3-0.8-23c1-2.1,3-2.9,5-3.7c10.2-4,20-9,29.5-14.5c4.9-2.8,5.4-2.5,5.4,3.3
	c0,2.1-0.3,4.3,0.2,6.4c0.4,9.9,0.8,19.7,1.2,29.6c-1.3,1.2-3,1.4-4.7,1.4c-10.8,0.2-21.6-0.6-32.4,1.2
	C288.7,561.4,287.5,561.1,286.4,560.3z"/>
<path class="st6" d="M197.6,656.8c0-5-0.1-10.1-0.1-15.1c0-2.2-0.6-3.1-3-3.5c-10.9-1.8-21.6-3.1-32.5-0.1c-1,0.3-2.1,0.2-3.2,0.2
	c-0.4-10.7,0.5-21.4,1.5-32c12.9,0,25.7-0.1,38.6-0.2C198.7,623.1,198.7,640,197.6,656.8z"/>
<path class="st17" d="M325.8,528.9c-1.1-3.4-0.2-7-1-11.1c-12.5,8-25.8,13.8-39.2,19.6c-0.2-8-0.4-16-0.6-24
	c7.5-0.9,14.3-4,20.8-7.6c6.3-2.9,11.4-7.9,18.2-9.9C324.6,506.9,326.2,517.9,325.8,528.9z"/>
<path class="st18" d="M675.2,587c0-1.1,0-2.1,0-3.2c0.1-10.9,1.5-12.7,12.3-13.6c5-0.4,10-0.7,14.6-2.8c0.5-0.2,1.2-0.3,1.8-0.4
	c5.3-0.8,9,1.5,10.3,6.7c1.5,6,1.4,12.2,0.5,18.2c-0.7,4.6-4.9,2.3-7.5,3.1c-2.8,0.9-1.9-2-2-3.4c-0.1-4,0-8,0-11.9
	c0-2.1-0.7-3.6-3-3.7c-2.6-0.1-2.9,1.7-2.9,3.7c0,4.7,0.1,9.5,0.2,14.2c0,5.6-4.8,3-7.2,3.8c-3.3,1-1.8-2.3-1.9-3.7
	c-0.3-4.1-0.1-8.2-0.3-12.4c-0.1-1.8-0.7-3.1-3.1-2.8c-2.2,0.3-2.3,1.5-2.3,3.1c0,4.9,0,9.8-0.2,14.7c-0.3,5.7-5.2,2.9-7.8,3.7
	c-2.5,0.8-1.5-2.2-1.6-3.6c-0.2-3.2,0-6.4,0-9.6C675.1,587,675.2,587,675.2,587z"/>
<path class="st19" d="M286.4,560.3c13.4-2.9,27-1.5,40.5-1.8c1.2,7,1,14.1,1,21.1c-1.9,0.6-3.8,0.6-5.8,0c-9.5-3.1-19-2-28.2,1
	c-4,1.3-7.1,2-7.2-3.7C286.6,571.4,286.5,565.9,286.4,560.3z"/>
<path class="st20" d="M388.7,480.6c0.9-0.1,1.9-0.1,2.8-0.2c0.8,7,0.2,14,0.3,21.1c0,12.8,0,25.7,0,38.5c0,1.7-0.2,3.3-0.4,5
	c-0.1-1.4-0.2-2.7-0.2-4.1c0-3.4,0.9-6.8-4.7-7.4c-3.9-0.4-6.5-4.4-8-8.1c-3.1-7.5-4.9-15.3-5.5-23.4c-0.2-3-0.5-6-2-8.7
	c-0.1-1.9,1.5-2.6,2.8-3.3C378.8,487.1,383.5,483.5,388.7,480.6z"/>
<path class="st21" d="M79.8,574.9c13.9-1.5,27.8-3,41.7-4.5c7.4-0.8,14.8-1.7,22.2-2.5c0.6,1.3,0.8,2.7,0.7,4.2
	c0.7,2.4,0.1,4.9,0.3,7.3c0.4,3.6-1.5,5.1-4.9,4.9c-12.2-0.5-24,1.6-35.1,6.9c-1.8,0.8-3.6,1.9-5.6,0.4c-1-9.1-7.6-12.6-15.3-14.8
	C82.5,576.3,81.2,575.5,79.8,574.9z"/>
<path class="st22" d="M272,452c4.3,0.7,2.8,4.6,3,6.7c0.6,8.3,2.9,16.3,3.9,24.5c1.1,9.2,2.7,18.3,4,27.4c-0.7,1.2-1.4,2.5-2,3.7
	c-2.9,2.3-6.2,2.7-9.7,1.7c-2.5-1.3-2.9-3.6-3.3-6.1c-1.4-8.8-2-17.8-4.6-26.4c-0.8-2.8,2.1-5.2,0.1-7.9
	C265.9,467.8,268.6,459.8,272,452z"/>
<path class="st23" d="M99.2,591.6c6.1-1,11-4.9,17-6.2c7.8-1.7,15.6-3.3,23.7-2.2c2.6,0.3,4.4-0.7,4.4-3.8c-0.1-2.4,0.1-4.9,0.1-7.3
	c1.5,6.8,1.2,13.6-0.2,20.4c-1.2,1.2-2.8,1.2-4.3,1c-10.7-1.5-20.5,1.3-29.8,6.5c-2.7,1.5-5.1,3.4-7,5.8c-2.7,3.4-4.6,7-3.8,11.5
	c-4.6,1.5-9.2,3.1-13.8,4.6c-3.2-3.2-2.2-6.8-0.9-10.4c2.4-1.5,5-2.8,7.3-4.5C97,603.2,98.8,597.7,99.2,591.6z"/>
<path class="st18" d="M609.4,597.6c0,2.8-0.4,5.6,0.1,8.2c0.8,4.8-1.8,6.4-5.7,7.6c-15.1,4.7-19.7,1.5-19.7-14.4
	c0-2.4,0.4-4.9,0.4-7.3c0-2.6,1.2-3.8,3.7-4.3c5.1-1.1,5.7-0.7,5.7,4.6c0,3.8,0.2,7.6,0.3,11.4c0.1,2.4,1.4,2.9,3.6,2.8
	c2.5-0.1,2.2-1.5,2.2-3.1c0-5-0.1-10.1,0.1-15.1c0.2-5.4,4.8-2.6,7.4-3.4c3.1-1,1.9,1.9,2,3.2C609.6,591.2,609.5,594.4,609.4,597.6z
	"/>
<path class="st18" d="M330.5,646.2c4.8-7.2,4.5-18,16.7-15.2c-1.5,3.3-2.9,6.5-4.5,9.5c-1.7,3.2-1.5,6.1,0.6,9c0.7,1,1.6,2,1.8,3.2
	c0.4,2.1,4.8,3.9,0.8,6.3c-4.3,2.5-7.7,1.5-9.9-2.3c-1.6-2.7-2.5-5.8-5.6-8.9c0,4.4,0.2,7.9,0,11.5c-0.4,5.3-5,2.7-7.5,3.4
	c-2.7,0.8-1.8-2.1-1.8-3.5c-0.1-6.9,0.2-13.8-0.1-20.6c-0.2-5.3,3.6-4.2,6.4-4.7c3.9-0.7,3.1,2.1,3.1,4.3
	C330.5,640.4,330.5,642.6,330.5,646.2z"/>
<path class="st18" d="M897.6,549.2c0,3.5,0.2,6.9,0,10.4c-0.3,5.2-4.8,3-7.4,3.6c-3.3,0.8-2-2.2-2-3.7c-0.1-6.9,0.1-13.8,0-20.7
	c-0.1-5.5,4.5-3.9,7.3-4.5c3.4-0.8,2.3,2.3,2.4,4c0.1,2.3,0,4.6,0.4,7.2c3.8-6.5,5.2-15.7,16.2-14c-1.5,3.2-2.8,6.5-4.4,9.7
	c-1.7,3.2-1.7,6,0.6,8.9c0.7,0.8,1.3,1.8,1.6,2.8c0.5,2.2,4.4,4.1,1.4,6.5c-3.6,2.8-8.2,1.5-10.3-2.3c-1.5-2.6-2.9-5.3-4.4-8
	C898.4,549.1,898,549.1,897.6,549.2z"/>
<path class="st18" d="M823.8,565.1c0,2.1-0.1,4.3,0,6.4c0.1,2.3-0.4,3.4-3.1,3.8c-6.3,0.8-6.3,1.1-6.3-5.4c0-5.8,0.1-11.6-0.1-17.4
	c-0.1-2.9,0.9-4.6,3.6-5.5c4.4-1.3,9-2.1,13.6-1.6c4.8,0.5,7.5,3.6,6.2,8.2c-1.6,5.7-2.2,10.8,1.9,15.7c1.4,1.6,0.7,3-1.5,2.8
	c-2.7-0.2-5.9,2.4-7.8,0.2c-2.3-2.7-3.5-6.3-5.1-9.7c-0.5-1.1,0.4-1.9,1.1-2.8c0.7-0.8,1.4-1.7,1.6-2.7c0.4-1.6,0.6-3.8-1.3-4.4
	c-2.5-0.8-2.7,1.6-2.8,3.1C823.6,559,823.8,562,823.8,565.1C823.8,565.1,823.8,565.1,823.8,565.1z"/>
<path class="st18" d="M531.1,612.4c0-2.3,0.3-4.6-0.1-6.9c-1-5.5,1.8-7.3,6.6-8.7c14.5-4.2,18.8-1.1,18.6,14.1
	c0,2.8-0.3,5.5-0.2,8.2c0.1,2.1-0.8,2.9-2.8,3.5c-6,1.7-7,0.9-6.5-5.4c0.3-3.5,0.3-7-0.7-10.4c-0.4-1.5-1.2-3-3.1-2.9
	c-1.7,0.1-2,1.6-2.4,2.9c-1.2,4.8-0.5,9.7-0.2,14.6c0.4,6.4-4.8,3.6-7.5,4.3c-3.4,0.8-1.7-2.4-1.8-3.7c-0.3-3.2-0.1-6.4-0.1-9.6
	C531,612.4,531,612.4,531.1,612.4z"/>
<path class="st18" d="M917,543.8c0-2.8,0.3-5.5-0.1-8.2c-0.8-4.8,1.5-6.6,5.8-7.1c3.3-0.4,6.5-1.5,10-1.3c6.6,0.3,10.3,4.7,7.3,10.3
	c-2.7,5.1-1.1,8.7,1.4,12.4c2.4,3.6,0.6,4.3-2.4,4.8c-3.9,0.7-7,0.6-8.4-4.2c-1.1-3.7-4.5-7-0.4-10.9c0.8-0.8,1-2.6,0.2-3.9
	c-0.6-0.9-1.5-0.9-2.5-0.5c-1.6,0.7-1.6,2.2-1.6,3.5c-0.1,4.7-0.2,9.5,0.1,14.2c0.2,3-0.6,4.2-3.7,4.5c-5.7,0.6-5.7,0.7-5.7-4.8
	C917,549.6,917,546.7,917,543.8C917,543.8,917,543.8,917,543.8z"/>
<path class="st18" d="M376,639.7c0-3.5,0.1-7,0-10.5c-0.1-2.4,0.9-3.8,3-4.5c4.2-1.4,8.5-2.4,13-1.9c7.2,0.9,10,5.2,6.4,11.5
	c-2.1,3.7-1.8,6.2,0.3,9.3c0.7,1.1,1.1,2.5,1.5,3.8c0.3,0.8,0.6,1.6-0.5,2.3c-3.1,1.9-8,0.6-9.5-2.6c-0.6-1.4-1.3-2.8-2-4.1
	c-1.3-2.5-2.5-4.9,0.6-7.1c0.9-0.6,1.2-1.8,1-2.9c-0.2-1.3-0.3-2.8-2.2-2.9c-2-0.1-2.2,1.2-2.2,2.7c-0.1,5.3-0.5,10.7-0.4,16
	c0.1,5.6-4.1,3.6-6.8,4.1c-3.7,0.6-2.1-2.5-2.2-4.1C375.8,645.8,376,642.8,376,639.7C376,639.7,376,639.7,376,639.7z"/>
<path class="st18" d="M744.5,574.9c0-2.6,0.3-5.2-0.1-7.8c-0.5-4.3,1.4-6.5,5.2-7.9c3.8-1.4,7.7-1.9,11.7-1.6c3.8,0.3,6.2,2.2,7.2,6
	c1.7,6.2,1.5,12.5,0.7,18.7c-0.6,4.2-4.7,3.1-7.4,3.4c-3.1,0.4-1.8-2.5-1.9-4.1c-0.2-4,0-7.9-0.2-11.9c-0.1-1.5,0-3.4-2.8-3.1
	c-2.3,0.2-3.1,1-3,3.3c0.2,4.7,0,9.5,0,14.2c0.1,5.7-4.5,3.1-7,3.9c-3.2,0.9-2.3-1.9-2.3-3.5C744.4,581.3,744.5,578.1,744.5,574.9z"
	/>
<path class="st18" d="M613.2,598.2c0-2.8,0.3-5.5-0.1-8.2c-0.6-4.2,1.5-5.9,5.1-7.2c14.6-5.4,20-1.8,20.1,13.6c0,1.8,0,3.7-0.1,5.5
	c-0.3,6.2-1.4,7-7.6,6.8c-1.9-0.1-1.9-1.1-1.9-2.3c0-3.5,0.1-7,0.1-10.5c0-1.2-0.1-2.5-0.4-3.6c-0.4-2-1.8-2.6-3.8-2.6
	c-2.4,0-2,1.7-2.1,3.2c-0.1,4.7-0.3,9.5-0.1,14.2c0.2,5.1-3.7,3.9-6.3,4.5c-3.4,0.7-3.1-1.9-3-4
	C613.2,604.3,613.1,601.2,613.2,598.2z"/>
<path class="st0" d="M717,504.8c-0.4-9.6-0.3-9.6,8-11.1c6.5-1.1,13-2.1,19.4-3.4c2.4-0.5,3.3,0.2,3.6,2.6c0.5,3.5,0.4,7,0.3,10.5
	c-0.1,2.6-1.6,4.1-4.3,4.5c-7.2,1.2-14.5,2.4-21.6,3.9c-4.2,0.9-5.7-0.4-5.3-4.4C717.1,506.2,717,505,717,504.8z"/>
<path class="st24" d="M388.7,480.6c-4.7,5.9-12.2,8-17.8,12.7c-7.4,4.4-14.7,8.7-22,13c-0.5-7.7-0.1-15.4,0.1-23.1
	c2.2-1.8,4.6-0.9,7-0.4c8.2,1.8,15.6-0.4,22.5-4.8c1.4-0.9,2.7-2,4.5-2C385.2,477.1,386.8,479,388.7,480.6z"/>
<path class="st18" d="M490.4,612.7c0.8,2.2,2.5,1.8,4,2c3.3,0.3,6.6,1.2,7.8,4.6c1.2,3.7,0.1,7.3-2.7,10.1c-4.9,4.7-11,5.5-17.4,5.1
	c-1.7-0.1-2.1-1.2-1.7-2.5c0.7-2.1,0-5.3,3.5-5.5c2.3-0.1,4.6,0.4,6.8-0.3c0.9-0.3,1.7-1,1.6-2c-0.1-0.4-1.1-0.8-1.8-1
	c-0.9-0.2-1.8-0.3-2.7-0.4c-7.1-1.2-9.4-7.4-4.9-13.2c3.3-4.2,12.3-6.9,17.6-5.3c1.2,0.4,1.7,1,1,1.9c-1.3,1.8,0.3,5.3-3.4,5.7
	C495.5,612.2,493,612.4,490.4,612.7z"/>
<path class="st18" d="M233.4,670.2c-1.6-1.8-3.7-1.6-5.6-2c-6.4-1.6-8.4-7.4-4.3-12.6c3.1-3.9,12.8-7,17.6-5.8
	c1.6,0.4,1.7,1.3,1.2,2.3c-0.9,1.9,0.6,5.3-3.2,5.6c-1.8,0.1-3.7,0-5.5,0c-0.9,0-1.6,0.6-1.7,1.3c-0.1,0.8,0.8,1.2,1.6,1.3
	c0.8,0.1,1.5,0.3,2.3,0.3c3.1,0.1,5.9,0.6,7.2,3.8c1.4,3.6,0.5,6.9-1.8,9.9c-3.1,4.1-13.5,7.2-18.6,5.8c-2.1-0.6-1.5-2.1-1.3-3.3
	c0.4-2.4,0.9-4.9,4.3-4.8C228.4,672.1,231.2,672.8,233.4,670.2z"/>
<path class="st25" d="M349,440.2c3.8,3.3,6.6,7.5,9.6,11.5c4.8,6.5,10.2,12.4,16,17.9c-4.2,6.1-10.2,7.5-17.1,6
	c-2.9-0.6-6.1-0.6-8.6-2.5C349,462.1,349,451.2,349,440.2z"/>
<path class="st26" d="M263.2,475.8c3.6-0.5,2.4,2.4,1.7,3.3c-1.5,2-0.7,3.7-0.2,5.5c2.3,8.3,3,16.9,4.2,25.4c0.3,2,0.9,3.8,1.9,5.4
	c-3.4,3.4-8.1,2.3-12.1,3.7c-3.3-0.2-6.6,2.2-9.9-0.2C253.1,504.4,258.2,490.1,263.2,475.8z"/>
<path class="st27" d="M248.9,519c3.4-0.3,6.7-0.6,10.1-0.9c0.9,0.7,1.6,1.5,1.8,2.6c1.4,7.9,3.2,15.6,7.5,22.5
	c-6,2.4-12.1,4.3-18.4,5.3c0.6-1.2,1.3-2.5,0.4-3.9c-3.6-5.3-4.9-11.4-5.8-17.5C247.8,525.4,246.9,521.4,248.9,519z"/>
<path class="st18" d="M1036.5,522.6c0-1.1,0-2.1,0-3.2c0.1-10.7,0.1-10.7,10.8-12.5c1.8-0.3,3.6-0.8,5.4-0.7
	c1.6,0.1,4.4-1.7,4.6,1.5c0.2,2.7,0.5,6.1-3.8,6.5c-2,0.2-3.9,0.4-5.9,0.6c-1.5,0.2-2,1.3-2,2.6c0.1,2.2,1.7,1.1,2.7,1.1
	c0.8,0,1.6-0.4,2.3-0.2c1.5,0.4,4.1-1.9,4.2,1.4c0.1,2.5,1,6.1-3.1,6.4c-4.8,0.4-6.5,2.2-6.4,7.3c0.1,4.5-4.6,2.5-7.1,3
	c-3.1,0.7-1.8-2.1-1.8-3.4C1036.3,529.6,1036.5,526.1,1036.5,522.6C1036.5,522.6,1036.5,522.6,1036.5,522.6z"/>
<path class="st28" d="M99.2,617.3c-2.3-4.4-1.6-7.9,3.4-13c6.8-6.9,15.3-10.1,24.7-11.9c5.7-1.1,11.2-0.1,16.8,0.1
	c0.1,1.6-0.1,3.1-0.8,4.6c-1,2.7-2.9,3.4-5.7,3.2c-7-0.5-13.6,1-19.8,4.3c-3.3,1.8-6,4.2-7.7,7.5c-0.8,1.6-1.8,2.8-3.6,3.2
	C104.2,616.3,101.8,617,99.2,617.3z"/>
<path class="st29" d="M124.9,441.2c0.2-6.2,5.6-11.2,11.7-11c6.1,0.2,11.3,5.8,11.1,11.8c-0.3,6.1-5.8,11.2-11.8,11
	C129.7,452.7,124.7,447.3,124.9,441.2z"/>
<path class="st30" d="M410.4,464.5c4.3-3.3,8.6-6.6,12.9-10c-1.9,5.1-0.5,10.5-1.7,15.8c-1.7,7.4-6,13.5-9.2,20.1
	c-3.7-1.1-7.4-2.2-11.1-3.3C403.7,479.3,406.9,471.8,410.4,464.5z"/>
<path class="st18" d="M583.1,593.6c0.6,2.5-0.4,3.8-3.5,3.8c-3.5,0-5,1.8-4.8,5.5c0.3,4.1,0.3,8.2,0.1,12.3
	c-0.2,3.7-5.6,6.4-8.6,4.6c-1.2-0.7-0.8-1.9-0.8-2.9c0-4.1-0.3-8.2,0-12.3c0.3-3.5-0.8-4.6-4.3-4.1c-1.3,0.2-3.9,1.9-3.9-1.7
	c0-2.7-0.7-5.7,3.4-6.3c6.2-0.9,12.3-2,18.5-2.9C583,589.1,583.1,589.2,583.1,593.6z"/>
<path class="st18" d="M1003.5,522.8c-1.7,0.3-2.8,0.7-4,0.7c-1.6,0-4,1.1-4.1-2c-0.1-2.5-0.5-5.3,2.8-5.9c6.7-1.3,13.5-2.3,20.3-3.3
	c1.3-0.2,3.2-0.3,2.8,1.8c-0.4,2,1.5,5.5-1.7,5.7c-6.6,0.3-6.9,4.1-6.5,9.1c0.3,3,0,6.1,0,9.2c0.2,6.3-5,3.5-7.7,4.2
	c-3.5,0.9-1.7-2.4-1.8-3.7C1003.4,533.4,1003.5,528.2,1003.5,522.8z"/>
<path class="st31" d="M268.3,543.1c-4.6-2.6-5.2-7.5-6.4-11.9c-1.2-4.3-1.9-8.8-2.9-13.2c4-0.9,8-1.7,11.9-2.6
	c3.4,0.4,6.5-0.9,9.9-1.1c-3.3,9.5-6.6,19-9.8,28.5C270,543,269.2,543.1,268.3,543.1z"/>
<path class="st18" d="M419,627.5c-0.1,2.6-0.1,5.2-0.4,7.8c-0.8,8.7-4.5,12.5-13.2,13.5c-1.2,0.1-3.5,1.7-3.4-1.1
	c0.1-2.2-1.6-5.3,1.7-6.8c5.5-2.4,6.8-5.2,5.3-11c-0.3-1.2-0.7-2-2-1.8c-3.1,0.4-3.5-1.3-3.4-3.9c0.1-2.6,0.5-4.6,3.6-4.8
	c0.6,0,1.2-0.2,1.8-0.2C418.6,618,418.6,618,419,627.5z"/>
<path class="st32" d="M349,473.1c3.2-0.3,6.2,0.8,9.3,1.4c5.1,0.9,10.2,0.9,13.6-3.9c0.8-1.1,2.2,0.3,2.7-1c3.2,1.6,5.7,4,8.3,6.4
	c-5.4,5.9-12.8,7.2-20,8.8c-2.8,0.7-5.5-0.4-8-1.1c-2-0.5-3.9-0.4-5.9-0.5C349,479.9,349,476.5,349,473.1z"/>
<path class="st33" d="M106.6,615.3c3.3-4.6,5.8-9.7,11.6-12.3c6.1-2.7,12.3-4.4,18.9-4c2.7,0.2,4.6-0.2,6.3-2
	c-0.7,4.1-1.4,8.3-4.6,11.5C128.1,610.8,117.3,613,106.6,615.3z"/>
<path class="st18" d="M802,563.7c0-3.7,0.1-7.3,0-11c-0.2-4.8,3.7-3.5,6.2-4.1c3.1-0.8,3,1.4,3.1,3.5c0.1,7.3,0.4,14.7,0.3,22
	c0,4.9-4.3,3.1-6.9,3.8c-3.2,0.8-2.9-1.5-2.9-3.6c0.1-3.5,0-7,0-10.5C801.9,563.7,802,563.7,802,563.7z"/>
<path class="st18" d="M245.6,663c0-3.2,0-6.4,0-9.6c0.1-4.3,3.5-6.7,7.8-5.8c1.6,0.3,1.4,1.3,1.5,2.3c0.1,7.8,0.4,15.6,0.3,23.4
	c-0.1,4.8-4.4,3.2-7,3.7c-3.4,0.7-2.6-2-2.6-3.8C245.5,669.7,245.5,666.3,245.6,663C245.5,663,245.5,663,245.6,663z"/>
<path class="st34" d="M430,400.2c-0.1,5-4.6,9.4-9.5,9.3c-5-0.1-9.3-4.4-9.3-9.5c0-5.3,4.5-9.7,9.7-9.5
	C425.8,390.7,430.1,395.2,430,400.2z"/>
<path class="st18" d="M1023.6,525.1c0-2.9,0-5.8,0-8.7c0-5.6,1.3-6.7,6.9-6.5c1.8,0.1,2.3,0.7,2.3,2.4c0.1,7.6,0.3,15.3,0.3,22.9
	c0,5.2-4.4,3.5-7.2,4c-3.6,0.7-2.3-2.3-2.4-4C1023.5,531.8,1023.6,528.5,1023.6,525.1C1023.6,525.1,1023.6,525.1,1023.6,525.1z"/>
<path class="st18" d="M852.3,556.7c0,3.5-0.1,7,0,10.5c0.3,5.4-3.8,3.8-6.7,4.4c-3.8,0.7-2.9-2-2.9-4c0-7,0.1-14,0.1-21.1
	c0-5.5,4.4-3.5,7-4.1c3.2-0.7,2,2.2,2.1,3.7c0.2,3.5,0,7,0,10.5C852.2,556.7,852.2,556.7,852.3,556.7z"/>
<path class="st35" d="M48,678.3c0.1,5-3.4,8.7-8.3,8.9c-5,0.1-8.9-3.4-9.1-8.3c-0.2-4.6,3.8-8.9,8.5-9.1
	C43.6,669.6,47.9,673.6,48,678.3z"/>
<path class="st36" d="M403.5,568.3c-4.3,0.1-7.9-3.3-7.9-7.6c0-4,3.4-7.6,7.4-7.7c4.1-0.1,8,3.5,8,7.7
	C411,564.5,407.5,568.2,403.5,568.3z"/>
<path class="st37" d="M28.4,567c3.5-0.1,6.7,3,6.9,6.6c0.2,3.9-2.9,7.1-6.8,7.1c-3.5,0-6.9-3.1-7-6.5C21.3,570.6,24.8,567,28.4,567z
	"/>
<path class="st38" d="M274.2,589c-0.3,3.3-3.2,5.9-6.6,5.7c-3.5-0.2-6.1-3.3-5.9-6.9c0.3-3.5,3.3-5.9,7.1-5.5
	C272.3,582.7,274.5,585.5,274.2,589z"/>
<path class="st18" d="M873.7,545.7c-0.1,5.4-0.8,5.9-7.3,6c-4.6,0-2.5-3.3-2.6-5.2c-0.3-3.8,2.9-5.9,8.1-5.7
	C873.8,540.8,873.8,540.8,873.7,545.7z"/>
<path class="st18" d="M467.5,618.1c0,5.7-0.7,6.2-7.4,6.3c-4.6,0.1-2.5-3.3-2.6-5.2c-0.3-4,2.4-5.8,8.1-5.6
	C469.5,613.8,466.4,617.1,467.5,618.1z"/>
<path class="st18" d="M661,581.9c-0.1,6-0.5,6.1-7.4,6.4c-4.8,0.1-2.5-3.3-2.6-5.1c-0.3-3.8,2.4-5.6,7.7-5.6
	C662.6,577.6,660.2,580.7,661,581.9z"/>
<path class="st0" d="M559.9,536.6c-0.5-6.9-3.6-12.2-10.2-15c-2.4-1-0.9-2.3-0.1-3.5c3.1-4.7,5.3-9.6,5.4-15.3
	c0.2-9.9-4.2-15.6-14-17.1c-11.3-1.7-22.1,1-32.9,4.1c-3,0.8-4.1,2.5-4.1,5.6c0.1,12.2,0,24.4,0,36.7c0,0-0.1,0-0.1,0
	c0,12.2,0.1,24.5-0.1,36.7c0,2.8,0.8,3.8,3.6,3.6c4.2-0.4,8.6-0.3,12.8-0.9c11.8-1.6,23.2-4.2,32-13
	C558.4,552.4,560.5,544.9,559.9,536.6z M523.5,510.8c0-0.9-0.1-1.4,0-1.8c0.8-2.3-1.9-5.9,2.2-6.9c3.3-0.8,7.1-1.2,9.2,2
	c2,3.1,1.4,6.7-0.7,9.9c-0.6,0.9-1.4,1.7-2.3,2.1c-2.4,1.3-5.4,3.2-7.7,1.8C521.8,516.4,524.2,513,523.5,510.8z M536,549.8
	c-3.4,2.6-7.7,4.6-11.4,3.1c-3.1-1.2-0.4-5.7-1.3-8c0-1.4,0-2.2,0-3c0-7.6,0-7.6,7.4-7.7c3.5,0,7.1-0.4,8.7,4
	C540.7,542.3,539.4,547.1,536,549.8z"/>
<path class="st0" d="M922.3,456.2c-1.5-1-1.8-1.5-0.6-3.1c2.7-3.6,4.4-7.7,5.3-12c2.7-12.3-4.3-21-16.9-21.4
	c-10.4-0.3-20.3,1.7-30.1,4.8c-2.5,0.8-3.2,2-3.2,4.5c0.1,12.2,0.1,24.4,0.1,36.7c0,0,0,0-0.1,0c0,11.9,0.2,23.8-0.1,35.8
	c-0.2,4.8,1.7,5.7,5.8,5.4c12.3-1,24.2-3.2,35.3-8.7c3.5-1.7,6.4-4.1,8.9-7C935.7,480.2,933.7,463.7,922.3,456.2z M900.8,435.8
	c5,0.3,7.9,2.9,7.7,7.5c-0.2,4.9-5.8,9.5-10.8,9.1c-1.5-0.1-1.7-0.8-1.7-2c0-2,0-4,0-5.9c0,0,0,0,0,0c0-0.8,0.1-1.5,0-2.3
	C895.7,438.7,895.7,435.5,900.8,435.8z M910.5,481.7c-2.9,4.4-7.4,5.5-12.3,6c-1.5,0.2-2.3-0.3-2.3-2c0-2.1,0-4.3,0-6.4
	c0,0-0.1,0-0.2,0c0-1.1,0-2.1,0-3.2c0.1-7.1,1.3-8.2,8.4-7.6C911.9,469,914.8,475.2,910.5,481.7z"/>
<path class="st0" d="M1000.7,481.5c-1.3-4.2-2.4-8.5-3.8-12.7c-6-18.7-12.2-37.4-18.1-56.2c-1.1-3.5-2.6-5.2-6.7-4.6
	c-4.1,0.6-8,1.8-12.1,2.4c-2.5,0.4-3.5,1.7-4.1,4.1c-4.6,16.3-9.5,32.5-14.2,48.8c-3,10.1-5.9,20.2-8.8,30.3
	c-0.4,1.3-1.6,3.1,1.3,3.2c5.4,0.1,10.9-0.2,15.6-2.8c3-1.6,2.9-5.9,3.5-9.1c1-5.4,3.3-8.3,9.3-7.3c1.6,0.3,3.3-0.4,4.9-0.7
	c3.2-0.6,7-3.7,9.3-2.1c2.2,1.5,2.5,6,3.1,9.2c0.7,3.2,1.9,5.1,5.1,4.2c4.8,0.1,9.1-1.3,13.4-2.3
	C1001,485.2,1001.4,483.8,1000.7,481.5z M971,461.8c-3.1,1-6.2,1.6-9.5,1.2c-1.7-0.2-2.4-0.9-2-2.7c2.2-8.7,4.3-17.4,6.4-26.1
	c0.3,0,0.5,0.1,0.8,0.1c2,8,3.8,16,6,23.9C973.2,460.2,972.7,461.2,971,461.8z"/>
<path class="st0" d="M714.5,531.5c-6.4-20-12.4-40.2-18.9-60.2c-1.5-4.4-0.6-11-5.9-12.6c-4.6-1.4-9.9,0.7-14.8,1.9
	c-3.2,0.8-4.7,2.6-5.5,5.8c-7.1,25.3-14.4,50.5-21.6,75.7c-1.5,5.4-1.5,5.4,4.2,4.9c12.5-1.2,12.7-1.1,15.9-13.4
	c1.1-4.1,2.8-6.3,7.4-5.8c2.1,0.2,4.3-0.1,6.4-0.4c3.4-0.4,7-4.4,9.6-2c2.2,2,2.3,6.4,3.1,9.8c0.6,2.6,1.7,4.2,4.1,3.5
	c5-0.2,9.3-1.2,13.6-2.3C714.8,535.5,715.5,534.5,714.5,531.5z M683.7,513.1c-0.6,0.2-1.2,0.3-1.8,0.4c-8.9,1.4-9.4,0.9-7.4-7.6
	c1.7-7.1,3.4-14.1,5.4-22.5c2.3,9.3,4.1,17.4,6.2,25.3C686.8,511.4,685.7,512.3,683.7,513.1z"/>
<path class="st18" d="M799,563.2c-0.4-6.6-3.8-10-10.4-10.2c-4.3-0.2-8.4,1-12.6,1.8c-2.2,0.4-3.1,1.3-3,3.6c0.2,3.7,0,7.3,0,11
	c0,0-0.1,0-0.1,0c0,2.9,0,5.8,0,8.7c-0.1,5.6-0.1,5.6,5.7,5.3C791.8,582.5,799.7,574.8,799,563.2z M789.2,571.8
	c-1.1,1.5-2.8,2.3-4.5,2.9c-2.5,1-3.6,0.6-3.4-2.4c0.2-3,0.2-6.1,0.1-9.1c-0.2-2.9,1.2-3.8,3.8-3.7c2.4-0.1,4.1,1.2,4.9,3.3
	C791.3,565.8,791.3,569,789.2,571.8z"/>
<path class="st18" d="M961,523.2c-5.4-0.9-12.1,2.4-15.3,8c-3.2,5.8-3.8,12.1-0.2,17.8c3.7,5.6,9.5,4.3,15,3.1c1-0.2,2-0.7,3-1
	c3.5-1.1,4.9-3.1,3.5-6.9c-1.7-4.4-4-0.7-5.9-0.5c-2.7,0.3-5.4,2.6-7.9-1.6c4.2-0.9,8.2-1.7,12.1-2.6c1.4-0.3,3-0.3,3.7-2.1
	C971.2,532.1,966.7,524.2,961,523.2z M959.5,535.2c-2.2,0.6-4.4,0.8-7.2,1.2c0.6-3.9,2.7-5.8,5.9-6.5c2.3-0.5,3.3,0.9,3.9,2.8
	C962.9,535.2,960.6,534.9,959.5,535.2z"/>
<path class="st18" d="M366.3,627.3c-5.7-1.2-12.2,2-15.9,7.8c-3.4,5.3-3.6,14.1-0.2,18.2c4.4,5.2,10,4.2,15.6,2.6c1-0.3,2-0.7,3-1
	c3.7-1.2,3.9-3.7,2.7-6.9c-1.4-3.6-3.4-0.9-5.1-0.5c-2.8,0.8-5.7,2.5-8.8-1.2c4.8-1.1,9-2,13.1-3c1.1-0.3,2.4-0.1,3-1.6
	C375.8,636.7,371.5,628.3,366.3,627.3z M364.3,639c-2.4,0.3-4.6,1.5-7.2,1c0.2-3.8,2.7-5.4,5.8-6.2c2.3-0.6,3.2,1,3.8,2.9
	C367.3,639.1,365.5,638.9,364.3,639z"/>
<path class="st18" d="M527.4,607.5c-0.9-4.3-3.7-6.4-7.7-6.5c-4.3-0.1-8.5,1-12.4,2.8c-3.1,1.4-1.3,4.1-0.9,6
	c0.5,2.6,2.4,0.8,3.6,0.4c2.5-0.8,5-2.1,8.6,0c-4.6,1.8-8.7,2.6-11.9,5.4c-3.2,2.8-4.3,6.2-2.7,10.2c1.4,3.6,4.3,4.9,8,4.9
	c4.9,0.1,9.2-1.6,13.6-3.3c1.5-0.6,2-1.7,2.1-3.2C528.2,618.7,528.6,613,527.4,607.5z M519.7,619c1,4.6-1.7,5.1-4.6,5.1
	c-1.7,0-3.9,0.4-4.3-2.2c-0.3-2,4.7-5.6,7.5-5.6C521.1,616.2,519.4,618.4,519.7,619z"/>
<path class="st18" d="M426.6,617.1c-0.1,0-0.3,0.1-0.4,0.1c-3.6,1.6-1.1,4.3-0.9,6.3c0.3,2.3,2.1,0.6,3.2,0.2c2.6-0.7,5.2-2,8.7-0.3
	c-4,2.1-8,2.8-11.2,5.2c-3.7,2.8-4.6,6.3-3.3,10.5c1.3,4,4.6,5,8.4,5c1.7,0,3.4-0.1,5-0.5c12.2-3.3,10.4-2.7,10.9-13.1
	C447.9,611.6,438.9,612.8,426.6,617.1z M433.7,637.6c-1.7,0-4,0.3-4-2.4c0-2.3,4.7-5.6,7.7-5.5c2.5,0.1,0.9,2.1,1.2,2.5
	C439.8,637.1,436.8,637.6,433.7,637.6z"/>
<path class="st18" d="M722,564.9c-0.1,0.1-0.3,0.1-0.4,0.1c-3.8,1.2-1.6,4.2-1.4,6.2c0.3,2.6,2.3,0.7,3.5,0.5
	c2.6-0.4,5.1-2.5,8.2,0.1c-2.3,0.9-4.3,1.5-6.3,2.4c-7,3-9.7,6.9-8.3,12.3c1.3,4.9,4.9,6.4,12.7,5.2c10.2-1.5,11.2-2.5,11.7-12.6
	C742.6,563.1,737,559,722,564.9z M733.5,580.8c1.1,4.8-2.3,4.7-4.9,4.8c-1.5,0.1-4,0.2-4.1-2.5c-0.1-2.1,5.1-5.6,7.8-5.5
	C735.3,577.8,732.4,580.3,733.5,580.8z"/>
<path class="st18" d="M995,524.9c-0.7-3.5-2.6-6.2-6.6-6.7c-4.9-0.5-9.4,0.8-13.8,2.7c-3,1.3-1,4-0.7,6c0.4,2.7,2.1,0.7,3.1,0.5
	c2.7-0.6,5.3-2.2,8.1-0.5c0,1.3-1,1.2-1.6,1.4c-3.6,1.2-7.3,2.4-10.1,5.2c-2.8,2.8-3.4,6-2,9.7c1.4,3.4,4.1,4.5,7.7,4.6
	c5,0.1,9.6-1.3,14.1-3.2c1-0.4,1.8-0.9,1.9-2.2C995.6,536.5,996.2,530.6,995,524.9z M987.5,536.4c0.8,4.6-2.1,4.8-5,4.8
	c-1.7,0-4,0.5-4.1-2.3c-0.1-2.2,4.9-5.8,7.7-5.6C988.7,533.4,987.1,535.5,987.5,536.4z"/>
<path class="st18" d="M281.6,650.1c-0.8-3.5-2.8-6-6.7-6.5c-4.9-0.5-9.5,0.8-13.7,2.8c-2.9,1.4-0.9,4-0.5,6c0.5,2.5,2.2,0.5,3.2,0.3
	c2.7-0.6,5.3-2.5,8.6,0c-4,1.5-7.9,2.4-11,4.8c-3.5,2.7-4.9,6.2-3.4,10.5c1.4,3.9,4.4,5.1,8.3,5c4.9,0,9.3-1.5,13.6-3.4
	c1.1-0.5,1.7-1.1,1.8-2.3C282.3,661.6,282.9,655.8,281.6,650.1z M269,666.5c-1.7,0.1-4,0.4-4-2.4c0-2.2,5-5.7,7.7-5.5
	c2.8,0.2,0.6,2.5,1.4,3.1C275,666.5,271.8,666.4,269,666.5z"/>
<path class="st18" d="M309.1,646.6c-1-5.3-4.9-8.3-11.3-8.3c-3.1,0.1-6.5,0.9-9.8,2.3c-1.8,0.7-2.5,1.7-2.5,3.7
	c0.1,7.5,0,15-0.1,22.4c0,1.3-0.4,3,1.9,2.7c2.4-0.3,6.6,0.8,6.4-2.2c-0.2-5.5,2.9-6,6.7-7.1C306.2,658.2,310,651.9,309.1,646.6z
	 M294.7,654.7c-3.5-0.3-0.8-3.2-1.7-4.3c-0.3-3.1-0.7-5.8,3.4-5.7c3,0.1,5,1.2,5.1,4.5C301.6,652,297.9,655,294.7,654.7z"/>
</svg>
