<?xml version="1.0" encoding="utf-8"?>
<!-- Generator: Adobe Illustrator 24.3.0, SVG Export Plug-In . SVG Version: 6.00 Build 0)  -->
<svg version="1.1" id="Layer_1" xmlns="http://www.w3.org/2000/svg" xmlns:xlink="http://www.w3.org/1999/xlink" x="0px" y="0px"
	 viewBox="0 0 1080 1080" style="enable-background:new 0 0 1080 1080;" xml:space="preserve">
<style type="text/css">
	.st0{fill:#F4E829;}
	.st1{fill:#1E9ED1;}
	.st2{fill:#E42285;}
	.st3{fill:#D7D7D8;}
	.st4{fill:#FFFFFF;}
</style>
<g>
	<path class="st0" d="M120.99,352.37c0.2-21.79,14.3-31.89,32.06-32.24c8.9-0.17,15.92,4.24,21.67,10.76
		c2.87,3.25,5.31,6.85,8.66,9.67c6.41,5.39,12.93,5.26,19.06-0.46c2.7-2.51,5.02-5.32,7.02-8.43c2.17-3.38,4.67-6.49,7.63-9.21
		c9.57-8.8,21.47-9.83,32.41-2.81c13.55,8.69,20.82,27.58,16.5,42.14c-7.1,23.93-36.91,27.36-50.95,13.06
		c-3.82-3.88-7.05-8.29-11.15-11.91c-7.39-6.52-13.35-6.26-19.64,1.3c-2.69,3.24-4.85,6.9-7.31,10.33
		c-13.66,19.09-38.35,18.04-50.45-2.24C122.81,366.14,120.63,359.41,120.99,352.37z"/>
	<path class="st1" d="M98.82,292.21c0.77-14.07,7.08-25.2,18.04-33.84c2.7-2.14,5.46-4.18,7.65-6.9c3.64-4.51,4.5-9.49,2.91-15.01
		c-2.52-8.8-1.3-12.62,6.34-17.85c5.76-3.94,11.41-8.12,17.82-11.01c4.26-1.91,8.67-2.58,13.28-1.2c5.21,1.57,7.87,7.1,5.67,12.14
		c-2.11,4.84-5.81,8.37-9.99,11.38c-4.77,3.43-9.76,6.58-14.52,10.02c-2.8,2.02-5.28,4.43-6.79,7.65c-0.89,1.91-0.96,3.62,0.87,5.05
		c0.61,0.47,1.07,1.15,1.71,1.59c15.19,10.52,14.64,29.32,5,42.79c-6.5,9.09-15.14,15.74-26.66,17.18
		c-6.86,0.85-12.74-1.76-16.68-7.58C100.56,302.33,99.15,297.4,98.82,292.21z"/>
	<path class="st2" d="M216.22,195.35c5.23-0.35,10.25,0.95,14.98,3.82c3.81,2.32,5.71,5.78,6.72,9.86c0.84,3.41-1.1,5.72-3.56,7.67
		c-2,1.58-4.18,2.95-5.86,4.91c-2.34,2.73-2.27,3.67,0.49,6.01c2.37,2.01,4.94,3.69,7.75,5.09c12.81,6.36,18.92,19.8,15.2,33.05
		c-1.96,6.95-6.24,11.62-13.22,13.7c-8.99,2.69-17.95,2.55-26.83-0.44c-10.67-3.59-14.98-12.23-17.22-22.28
		c-2.19-9.78,1.77-17.3,9.24-23.36c2.41-1.96,5.25-3.35,7.37-5.68c3.04-3.33,2.93-5.22-0.61-7.92c-1.58-1.21-3.29-2.25-4.99-3.3
		c-4.04-2.51-5.53-6.59-6.24-10.89c-0.65-3.89,2.06-7.57,6-8.94c0.93-0.32,1.93-0.48,2.89-0.7
		C210.86,195.36,213.41,195.27,216.22,195.35z"/>
	<path class="st2" d="M91.97,272.93c0.07,2.75-0.7,5.08-1.5,7.38c-3.59,10.42-8.29,20.32-14.1,29.7c-2.11,3.4-3.98,6.92-5.32,10.71
		c-3.01,8.48-2.2,16.36,3.53,23.5c5.91,7.35,9.25,15.88,10.99,25.04c1.84,9.73,1.15,19.47-0.82,29.12c-0.9,4.45-3.18,7.77-8.06,8.63
		c-4.85,0.85-8.19-1.48-10.65-5.25c-6.48-9.97-9.72-21.03-10.9-32.81c-0.41-4.07,0.11-7.8,1.5-11.67c3.24-9.04,3.3-18.51,2.96-27.96
		c-0.43-12.11-0.79-24.19,2.27-36.07c2.84-11.03,9.59-19.96,16.05-28.92c3.89-5.4,10.4-3.65,12.73,2.78
		C91.36,269.09,92.29,270.99,91.97,272.93z"/>
	<path class="st1" d="M144,465.9c-0.03,6.6-4.99,10.29-10.43,8.07c-4.92-2-9.57-4.66-14.36-6.99c-0.72-0.35-1.48-1.39-2.34-0.44
		c-0.82,0.9-0.29,1.84,0.3,2.71c1.02,1.5,2.33,2.71,3.79,3.72c2.93,2,4.25,5.01,5.29,8.18c0.91,2.81-1.89,5.79-5.27,5.65
		c-2.32-0.09-4.25-1.19-6.04-2.55c-10.97-8.44-20.5-18.37-29.64-28.7c-2.05-2.32-2.8-5.28-3.63-8.13c-0.65-2.28,0.34-4.2,2.26-5.47
		c1.86-1.23,3.58-0.54,5.17,0.75c2.33,1.89,4.68,3.75,7.04,5.6c0.44,0.34,0.9,0.65,1.4,0.9c1.63,0.83,3.77,1.69,5.05,0.66
		c1.37-1.09,0.56-3.3-0.02-4.97c-1.09-3.13-2.41-6.2-3.33-9.39c-2.26-7.84,4.3-14.68,12.39-13.08c3.03,0.6,5.61,2.07,7.97,3.97
		c11.85,9.53,20.39,21.25,23.82,36.3C143.73,463.99,143.9,465.31,144,465.9z"/>
	<path class="st3" d="M930.33,726.92c0.16-0.52,0.39-1.11,0.99-1.07c0.63,0.04,0.37,0.68,0.31,1.02c-0.11,0.73-0.36,1.44-0.55,2.16
		C930.83,728.34,931.19,727.42,930.33,726.92z"/>
	<path class="st4" d="M747.62,586.31c-5.78,0-11.57,0.14-17.34-0.06c-3.3-0.11-4.86,1.01-5.25,4.38
		c-1.73,14.99-3.61,29.98-5.46,44.96c-3.03,24.57-6.07,49.14-9.11,73.7c-1.33,10.8-2.58,21.6-4.01,32.38
		c-0.66,4.95-2.34,6.28-7.26,6.28c-18,0.01-36.02-0.27-54.01,0.15c-6.64,0.16-8.59-3.53-8.17-9.46c0.69-9.73,2.26-19.4,3.46-29.08
		c2.56-20.71,5.14-41.43,7.7-62.14c2.37-19.17,4.67-38.35,7.16-57.5c0.38-2.94-0.13-3.85-3.25-3.71
		c-5.88,0.27-11.78,0.08-17.68,0.08c-5.54,0-8.26-2.81-7.64-8.49c1.09-10.15,2.45-20.28,3.68-30.42c0.61-4.95,1.21-9.92,1.81-14.87
		c0.67-5.56,2.39-7.12,7.91-7.13c6.56,0,13.12-0.06,19.67,0.03c2.45,0.03,3.52-0.8,3.79-3.41c0.9-9.05,1.95-18.08,4.21-26.94
		c6.48-25.4,23.06-39.58,48.44-44.26c12.74-2.35,25.58-2.84,38.49-2.67c6.55,0.09,13.11,0.08,19.67,0.1
		c5.51,0.02,8.62,3.06,8.02,8.46c-1.39,12.69-2.97,25.36-4.61,38.02c-0.58,4.47-2.64,5.89-7.27,6.03
		c-6.76,0.2-13.54-0.57-20.28,0.71c-11.78,2.24-16,10.39-17.04,22.62c-0.17,2.03,1.43,1.28,2.32,1.29
		c11.23,0.05,22.47,0.29,33.67-0.07c6.6-0.22,8.05,1.78,8.24,9.03c0.17,6.59-1.37,13.22-2.18,19.83
		c-1.01,8.27-2.11,16.52-3.05,24.79c-0.67,5.79-2.29,7.37-7.97,7.37C758.74,586.31,753.18,586.31,747.62,586.31z"/>
	<path class="st4" d="M287.07,748.41c-14.35,1.07-28.66,0.77-42.61-3.14c-19.22-5.4-28.56-17.23-29.87-37.22
		c-0.73-11.06,1.11-21.91,2.38-32.81c2.26-19.41,4.65-38.8,6.98-58.19c1.14-9.48,2.2-18.96,3.43-28.43c0.29-2.3-0.2-3.1-2.67-3.03
		c-6,0.17-12.01,0.06-18,0.06c-5.66-0.01-8.64-3.02-8-8.67c1.7-15.22,3.54-30.43,5.44-45.63c0.48-3.87,2.81-5.68,6.94-5.71
		c6.89-0.06,13.78-0.14,20.67,0.05c2.7,0.08,3.71-0.88,4.01-3.48c1.78-15.1,3.68-30.19,5.55-45.29c0.15-1.21,0.32-2.42,0.51-3.63
		c0.71-4.38,2.44-5.89,6.94-5.9c13.12-0.03,26.23-0.01,39.34-0.01c4.22,0,8.45-0.01,12.67,0c5.21,0.02,8.34,3.44,7.7,8.69
		c-1.8,14.76-3.7,29.51-5.55,44.26c-0.07,0.55-0.09,1.12-0.21,1.65c-0.67,2.74-0.01,3.8,3.18,3.73c10.44-0.24,20.9,0.14,31.34-0.17
		c6.17-0.19,8.77,2.38,8.12,9.5c-1.36,15.02-3.62,29.97-5.54,44.95c-0.52,4.08-2.35,5.64-6.76,5.66
		c-11.45,0.05-22.89,0.1-34.34-0.04c-2.89-0.04-3.77,0.99-4.1,3.77c-2.92,23.91-6.01,47.79-9.02,71.69
		c-0.48,3.84-1.12,7.69-0.84,11.61c0.52,7.17,4.75,11.76,11.95,12.26c5.2,0.36,10.48,0.69,15.64,0.22c6.71-0.62,8.45,3.4,8.17,9.4
		c-0.33,7.3-1.63,14.55-2.52,21.82c-1.05,8.59-2.09,17.19-3.22,25.77c-0.59,4.47-2.47,6.18-7.06,6.25
		C300.82,748.48,293.94,748.41,287.07,748.41z"/>
	<path class="st4" d="M228.16,849.02c1.56,0,3.11,0,4.67,0c5.3,0,6.51,1.14,6.41,6.52c-0.03,1.66,0.63,2.73,1.75,3.71
		c4.05,3.61,13.23,4.55,17.96,1.83c1.27-0.73,2.31-1.71,3.12-2.94c2.16-3.23,1.89-4.88-1.71-6.44c-7-3.04-14.2-5.65-21.18-8.72
		c-8.58-3.77-14.25-10.23-15.85-19.58c-2.02-11.76,2.11-21.44,11.97-27.95c12.38-8.17,25.81-8.84,39.4-3.12
		c11.97,5.03,16.56,20.15,14.65,30.12c-0.32,1.68-1.36,2.2-2.82,2.2c-5.12,0.02-10.22,0.07-15.34-0.02
		c-3.87-0.07-3.29-4.12-3.39-5.66c-0.24-3.85-2.19-5.82-5.14-6.99c-4.83-1.91-9.83-2.12-14.33,0.94c-4.55,3.09-4.3,7.23,0.58,9.53
		c4.1,1.94,8.4,3.46,12.61,5.14c2.57,1.02,5.15,2.04,7.76,2.98c21,7.6,20.98,34.32,5.83,46.02c-11.72,9.06-32.61,10.7-45.49,3.41
		c-8.91-5.04-14.55-18.5-12.06-28.53c0.46-1.85,1.39-2.57,3.26-2.49C223.27,849.1,225.71,849.02,228.16,849.02z"/>
	<path class="st4" d="M822.51,849.02c1.56,0,3.12,0,4.67,0c5.36,0,6.55,1.11,6.46,6.45c-0.03,1.65,0.57,2.71,1.72,3.71
		c4.23,3.74,13.37,4.63,18.24,1.76c1.38-0.81,2.44-1.94,3.24-3.3c1.66-2.83,1.3-4.45-1.67-5.84c-3.3-1.54-6.76-2.76-10.14-4.14
		c-3.9-1.58-7.85-3.07-11.67-4.81c-10.28-4.68-15.96-12.9-16.11-24.02c-0.16-11.49,5.54-20.28,15.82-25.47
		c11.02-5.57,22.51-6.03,34.22-1.87c13.64,4.85,18.46,21.14,16.53,30.63c-0.36,1.75-1.17,2.54-2.85,2.55
		c-5.11,0.01-10.22,0.04-15.34-0.01c-3.72-0.04-2.92-3.69-3.38-5.41c-1.24-4.65-2.39-6.8-6.97-7.94c-3.62-0.9-7.31-0.92-10.79,0.58
		c-2.8,1.21-4.86,3.32-4.97,6.53c-0.1,2.99,2.69,3.65,4.66,4.49c5.81,2.48,11.69,4.78,17.65,6.86c11.03,3.88,17.94,11.3,18.41,23.13
		c0.51,12.6-5.33,22.07-16.86,27.47c-11.6,5.44-23.62,5.59-35.64,1.38c-13.27-4.63-17.59-19.63-15.76-29.87
		c0.39-2.17,1.36-3.04,3.57-2.91C817.84,849.13,820.18,849.02,822.51,849.02z"/>
	<path class="st4" d="M370.51,822.35c6.27-7.3,12.54-14.61,18.81-21.9c2.53-2.95,5.1-5.86,7.57-8.87c1.08-1.31,2.33-1.87,4.03-1.85
		c5.78,0.06,11.56,0.01,17.33,0.03c1.45,0.01,3.25-0.21,2.15,2.27c-0.12,0.28-0.23,0.84-0.14,0.88c4.03,2.01,0.49,3.59-0.5,4.78
		c-9.22,11.1-18.56,22.11-27.97,33.07c-1.28,1.49-1.44,2.59-0.62,4.36c6.23,13.33,12.37,26.71,18.51,40.09
		c0.87,1.91,1.58,3.89,2.35,5.84c0.68,1.74-0.01,2.54-1.78,2.54c-6.23,0.01-12.44-0.01-18.67,0.01c-1.85,0.01-2.33-1.34-2.93-2.69
		c-4.47-10-8.97-19.99-13.47-29.97c-1.52-3.39-1.17-2.93-3.97-0.61c-7.04,5.84-6.66,14.04-7.73,21.83c-0.34,2.53-0.69,5.07-0.8,7.61
		c-0.11,2.77-1.25,3.99-4.12,3.87c-4.11-0.16-8.22-0.04-12.33-0.04c-4.1,0-6.32-2.27-5.84-6.35c2.14-17.95,4.38-35.91,6.59-53.86
		c1.23-10.02,2.55-20.03,3.63-30.07c0.29-2.72,1.39-3.66,4.01-3.59c4.11,0.12,8.22,0.03,12.33,0.03c4.51,0,6.37,1.96,5.87,6.55
		c-0.81,7.28-1.77,14.54-2.66,21.82c-0.16,1.32-0.23,2.65-0.33,3.97C370.07,822.18,370.29,822.26,370.51,822.35z"/>
	<path class="st4" d="M740.68,883.59c-1.56,0-3.12,0-4.66,0c-5.38,0-7.1-1.78-6.45-7.23c2.51-21.04,5.1-42.06,7.68-63.09
		c0.77-6.27,1.61-12.54,2.32-18.82c0.51-4.56,0.57-4.68,5.3-4.69c3.78,0,7.55,0,11.33,0c4.12,0,6.21,2.26,5.72,6.36
		c-1.7,14.21-3.41,28.41-5.16,42.61c-1.68,13.65-3.5,27.28-5.03,40.95c-0.33,2.99-1.42,4.16-4.37,3.94
		C745.13,883.47,742.9,883.59,740.68,883.59z"/>
	<path class="st4" d="M1016.87,525.6c-1.65,0.14-3.33,0.02-5,0.02c-16.23,0-32.47-0.01-48.69,0.01c-5.02,0.01-6.85,1.58-7.59,6.44
		c-0.5,3.29-0.87,6.61-1.37,9.9c-0.14,0.95,0.01,2.29-1.06,2.62c-1.43,0.44-1.71-1.09-2.25-1.96c-6.15-9.87-15.03-16.01-26.28-18.37
		c-22.27-4.68-43.32-0.98-62.74,10.79c-24.36,14.76-38.98,37-47.67,63.6c-5.67,17.34-7.79,35.29-9.12,53.36
		c-1.36,18.61,0.88,36.74,7.95,54.16c13.38,32.98,44.27,50.27,79.21,44.04c15.68-2.79,28.04-11.17,38.08-23.28
		c1.78,0.15,0.95,1.25,0.76,2.11c-0.37,3.2-0.97,6.39-1.07,9.59c-0.16,5.2,1.59,9.69,7.85,9.52c17.89-0.47,35.8-0.17,53.69-0.17
		c5.91,0,7.48-1.57,8.2-7.56c2.3-18.96,4.68-37.9,7.03-56.86c2.77-22.37,5.52-44.74,8.28-67.12c2.55-20.6,5.11-41.21,7.65-61.81
		c0.84-6.72,2.23-13.45,2.28-20.18C1025.07,527.83,1023.07,525.05,1016.87,525.6z M929.75,673.93
		c-7.05,10.91-18.92,15.71-30.77,13.24c-11.29-2.35-18.82-10.8-19.97-22.36c-0.48-4.87-0.72-9.75-0.59-14.64
		c1.13-16,3.02-31.84,11.22-46.1c7.08-12.34,17.48-18.9,32.06-17.83c10,0.73,18.93,7.64,20.45,17.96
		C945.76,628.66,943.61,652.48,929.75,673.93z"/>
	<path class="st4" d="M577.46,586.18c-6.26-20.52-16.78-38.07-35.06-50.2c-15.74-10.46-33.23-14.19-51.89-13.95
		c-29.07,0.36-53.87,10.89-74.64,30.99c-17.18,16.6-27.57,37.06-33.26,60.05c-5.8,23.36-7.83,46.86-1.87,70.51
		c7.57,30.09,25.13,51.55,54.95,61.73c21.94,7.49,44.5,7.88,67.08,3.45c21.68-4.25,41.05-13.43,57.09-28.96
		c4.49-4.34,4.7-6.69,1.02-11.76c-8.72-12.06-17.47-24.1-26.23-36.12c-2.66-3.64-4.61-3.75-7.81-0.65
		c-15.96,15.54-35.04,20.24-56.47,15.63c-13.59-2.92-22.16-12.15-23.82-24.49c-0.54-4.01-0.19-4.46,3.83-4.47
		c20.35-0.01,40.69-0.01,61.03-0.01c20.35,0,40.69,0.01,61.03-0.01c5.09-0.01,7.07-1.78,7.71-6.75c0.35-2.75,0.73-5.5,1.04-8.27
		C583.41,623.77,583.13,604.79,577.46,586.18z M512.47,611.61c-0.19,2.42-1.59,2.51-3.41,2.51c-8.99-0.03-17.97-0.01-26.96-0.01
		s-17.97,0-26.96,0c-1.28,0-2.54,0.49-1.93-1.96c4.74-18.85,23.39-30.01,42.08-24.99C506.73,590.23,513.38,599.77,512.47,611.61z"/>
	<path class="st4" d="M660.64,848.53c-0.49-1.45-1.27-2.68,0.97-3.73c13.11-6.14,18.51-17.05,17.11-30.91
		c-1.37-13.67-8.37-23.24-23.01-23.84c-12.76-0.51-25.55-0.22-38.33-0.29c-2.84-0.02-2.98,1.94-3.23,4.04
		c-1.88,15.53-3.84,31.06-5.74,46.59c-1.48,12.12-2.95,24.24-4.36,36.38c-0.55,4.78,1.32,6.83,5.96,6.83c4,0,8.01-0.11,12,0.04
		c2.79,0.11,3.93-0.94,4.22-3.77c1.01-9.72,2.31-19.4,3.41-29.1c0.25-2.21,0.93-3.57,3.48-3.11c0.86,0.15,1.79,0.15,2.65,0
		c2.57-0.46,3.7,0.7,4.39,3.12c2.36,8.29,4.92,16.52,7.41,24.77c2.42,8.04,2.42,8.04,10.67,8.04c0.89,0,1.78,0,2.67,0
		c2.44,0,4.88,0.01,7.33,0c3.9-0.02,4.11-0.24,2.86-4C667.67,869.22,664.14,858.88,660.64,848.53z M656.44,819.13
		c-1.13,5.03-5.04,8.3-10.47,8.51c-3.76,0.14-7.53-0.05-11.3,0.07c-1.72,0.06-2.07-0.55-1.86-2.12c0.53-3.95,0.99-7.9,1.38-11.86
		c0.16-1.62,1.06-1.99,2.47-1.97c2.21,0.04,4.43,0.01,7.1,0.01c2.63,0.2,5.76-0.45,8.78,0.56
		C656.18,813.53,657.27,815.45,656.44,819.13z"/>
	<path class="st4" d="M1012.88,878.47c-3.29-17.65-6.42-35.34-9.88-52.96c-2.15-10.96-3.45-22.08-6.56-32.87
		c-0.67-2.34-1.75-2.95-3.96-2.93c-6.33,0.1-12.67,0.19-18.99-0.04c-2.92-0.1-4.36,0.95-5.46,3.59
		c-6.19,14.71-12.54,29.35-18.82,44.02c-5.5,12.83-11,25.67-16.49,38.51c-2.04,4.76-0.11,7.78,4.95,7.78c4.67,0,9.33-0.07,14,0.03
		c2.07,0.04,3.33-0.69,4.03-2.66c0.81-2.3,2.06-4.46,2.66-6.81c0.85-3.34,2.74-4.16,6.01-3.98c5.43,0.29,10.89,0.04,16.32,0.1
		c2.54,0.03,5.76-1.05,7.41,0.49c1.44,1.35,1.12,4.56,1.64,6.92c0.16,0.74,0.7,1.41,0.76,2.14c0.32,3.65,2.72,4.01,5.66,3.8
		c2.1-0.15,4.22-0.03,6.33-0.03c2.11,0,4.22,0,6.33,0C1013.71,883.59,1013.8,883.42,1012.88,878.47z M983.2,850.23
		c-4.86,0-9.72,0-15.08,0c4.03-9.97,7.92-19.56,12.13-30c1.65,9.93,3.13,18.9,4.65,27.86C985.13,849.51,984.67,850.23,983.2,850.23z
		"/>
	<path class="st4" d="M546.62,878.56c-3.3-17.77-6.46-35.56-9.93-53.3c-2.14-10.96-3.46-22.08-6.57-32.87
		c-0.64-2.2-1.78-2.7-3.82-2.67c-6.22,0.09-12.45,0.25-18.66-0.05c-3.39-0.16-4.88,1.2-6.13,4.14
		c-11.55,27.23-23.21,54.39-34.92,81.56c-0.9,2.1-0.43,3.67-0.01,5.82c0.84,4.25,3.59,1.89,5.38,2.31c1.68,0.4,3.54,0.16,5.31,0.07
		c3.53-0.18,7.54,1.24,10.46-0.59c2.95-1.85,3.05-6.19,4.57-9.36c0.14-0.3,0.33-0.59,0.41-0.91c0.47-1.9,1.59-2.55,3.61-2.52
		c6.22,0.13,12.44,0.05,18.66,0.05c7.08,0,7.08,0,8.4,7.02c1.16,6.14,1.37,6.32,7.39,6.32c1.77,0,3.56,0,5.33,0
		c2.11,0,4.22,0,6.33,0C547.48,883.59,547.54,883.49,546.62,878.56z M517.11,850.22c-4.55,0.02-9.08,0-13.63,0.03
		c-1.88,0.01-1.22-0.98-0.84-1.92c3.67-9.11,7.34-18.22,11.33-28.16c1.66,9.99,3.17,19.04,4.68,28.09
		C518.87,849.52,518.39,850.21,517.11,850.22z"/>
</g>
</svg>
