<?xml version="1.0" encoding="utf-8"?>
<!-- Generator: Adobe Illustrator 24.3.0, SVG Export Plug-In . SVG Version: 6.00 Build 0)  -->
<svg version="1.1" id="Layer_1" xmlns="http://www.w3.org/2000/svg" xmlns:xlink="http://www.w3.org/1999/xlink" x="0px" y="0px"
	 viewBox="0 0 1080 1080" style="enable-background:new 0 0 1080 1080;" xml:space="preserve">
<style type="text/css">
	.st0{fill:#EBEBEB;}
	.st1{fill:#E0E0E0;}
	.st2{fill:#F5F5F5;}
	.st3{fill:#FFFFFF;}
	.st4{fill:#F0F0F0;}
	.st5{opacity:0.3;fill:#FFFFFF;enable-background:new    ;}
	.st6{opacity:0.9;fill:#FFFFFF;enable-background:new    ;}
	.st7{fill:#E6E6E6;}
	.st8{fill:#CE7A63;}
	.st9{fill:#263238;}
	.st10{opacity:0.2;enable-background:new    ;}
	.st11{fill:#407BFF;}
	.st12{opacity:0.5;fill:#FFFFFF;enable-background:new    ;}
	.st13{opacity:0.3;enable-background:new    ;}
	.st14{fill:#BA4D3C;}
	.st15{opacity:0.2;fill:#407BFF;enable-background:new    ;}
	.st16{opacity:0.6;fill:#FFFFFF;enable-background:new    ;}
	.st17{opacity:0.4;fill:#407BFF;enable-background:new    ;}
	.st18{fill:#B55B52;}
	.st19{fill:#A02724;}
	.st20{opacity:0.2;}
</style>
<g>
	<path class="st0" d="M1047,826.19H33v0.51h1014V826.19z"/>
	<path class="st0" d="M945.4,858.82h-67.17v0.51h67.17V858.82z"/>
	<path class="st0" d="M587.09,852.47h-26.14v0.51h26.14V852.47z"/>
	<path class="st0" d="M742.13,854.62h-55.04v0.51h55.04V854.62z"/>
	<path class="st0" d="M876.2,840H762.41v0.51H876.2V840z"/>
	<path class="st0" d="M193.19,863.47h-53.8v0.51h53.8V863.47z"/>
	<path class="st0" d="M257.89,863.47h-46.64v0.51h46.64V863.47z"/>
	<path class="st0" d="M421.99,852.23H298.67v0.51h123.32V852.23z"/>
	<path class="st0" d="M513.64,735.74H122.05c-3.07-0.01-6.01-1.23-8.18-3.4c-2.17-2.17-3.38-5.11-3.38-8.18V173.7
		c0.03-3.05,1.26-5.97,3.42-8.12c2.16-2.15,5.09-3.36,8.14-3.36h391.59c3.07,0,6.02,1.22,8.19,3.39c2.17,2.17,3.39,5.12,3.39,8.19
		v550.36c0,3.07-1.22,6.02-3.39,8.19C519.65,734.52,516.71,735.74,513.64,735.74z M122.05,162.63c-2.93,0.01-5.74,1.17-7.82,3.25
		c-2.07,2.08-3.24,4.89-3.24,7.82v550.46c0,2.93,1.16,5.75,3.24,7.82c2.07,2.08,4.88,3.25,7.82,3.25h391.59
		c2.94,0,5.75-1.17,7.82-3.25c2.08-2.08,3.24-4.89,3.25-7.82V173.7c0-2.94-1.17-5.75-3.25-7.82c-2.08-2.08-4.89-3.24-7.82-3.25
		H122.05z"/>
	<path class="st0" d="M952.31,735.74H560.71c-3.07-0.01-6.01-1.23-8.18-3.4c-2.17-2.17-3.39-5.11-3.4-8.18V173.7
		c0.03-3.05,1.26-5.97,3.43-8.12c2.17-2.15,5.09-3.36,8.15-3.36h391.61c3.05,0.01,5.97,1.22,8.13,3.37
		c2.16,2.15,3.39,5.06,3.41,8.11v550.46c0,3.06-1.22,6-3.38,8.17C958.31,734.51,955.38,735.73,952.31,735.74z M560.71,162.63
		c-2.94,0.01-5.75,1.17-7.82,3.25c-2.07,2.08-3.24,4.89-3.25,7.82v550.46c0.01,2.94,1.17,5.75,3.25,7.82
		c2.08,2.08,4.89,3.24,7.82,3.25h391.61c2.94,0,5.75-1.17,7.82-3.25c2.08-2.08,3.24-4.89,3.25-7.82V173.7
		c-0.01-2.94-1.17-5.75-3.25-7.82c-2.08-2.08-4.89-3.24-7.82-3.25H560.71z"/>
	<path class="st1" d="M164.43,826.19h14.64V202.78h-14.64V826.19z"/>
	<path class="st2" d="M171.76,826.19h385.4V223.51h-385.4V826.19z"/>
	<path class="st1" d="M214.38,591.04h163.25v-255.3l-160.76-0.97L214.38,591.04z"/>
	<path class="st3" d="M216.86,589.24h163.25V333.95H216.86V589.24z"/>
	<path class="st2" d="M298.51,464.58c26.23,0,47.5-21.26,47.5-47.5c0-26.23-21.26-47.5-47.5-47.5c-26.23,0-47.5,21.26-47.5,47.5
		C251.01,443.31,272.28,464.58,298.51,464.58z"/>
	<path class="st2" d="M309.49,537.38c14.65-6.07,21.61-22.87,15.54-37.52c-6.07-14.65-22.87-21.61-37.52-15.54
		c-14.65,6.07-21.61,22.87-15.54,37.52C278.04,536.49,294.84,543.45,309.49,537.38z"/>
	<path class="st1" d="M901.61,826.19h14.64V202.78h-14.64V826.19z"/>
	<path class="st4" d="M819.58,210.9H157.22v93.73h662.37V210.9z"/>
	<path class="st3" d="M792.33,235.23H480.68v45.06h311.64V235.23z"/>
	<path class="st3" d="M184.49,280.29h270.49v-45.06H184.49V280.29z"/>
	<path class="st1" d="M819.58,304.63h103.21V210.9H819.58V304.63z"/>
	<path class="st3" d="M913.03,235.23H869v45.06h44.03V235.23z"/>
	<path class="st3" d="M834.91,280.29h30.46v-45.06h-30.46V280.29z"/>
	<path class="st1" d="M827.43,826.19H476.48V547.81c0-5.38,2.14-10.54,5.94-14.34c3.8-3.8,8.96-5.94,14.34-5.94h310.45
		c5.38,0,10.54,2.14,14.34,5.94c3.8,3.8,5.94,8.96,5.94,14.34v278.38H827.43z"/>
	<path class="st1" d="M786.73,826.19H435.76V547.81c0-5.38,2.14-10.54,5.94-14.34c3.8-3.8,8.96-5.94,14.34-5.94h310.47
		c5.38,0,10.54,2.14,14.34,5.94c3.8,3.8,5.94,8.96,5.94,14.34v278.38H786.73z"/>
	<path class="st5" d="M779.99,547.81v278.38h-337.5V547.81c0-3.58,1.42-7.01,3.95-9.54c2.53-2.53,5.96-3.95,9.54-3.95h310.53
		c3.58,0,7.01,1.42,9.54,3.95C778.57,540.8,779.99,544.23,779.99,547.81z"/>
	<path class="st6" d="M779.97,547.81v278.44H446.08V547.81c0-3.58,1.42-7.01,3.95-9.54c2.53-2.53,5.96-3.95,9.54-3.95h306.94
		c3.57,0.01,7,1.43,9.52,3.96C778.56,540.81,779.97,544.23,779.97,547.81z"/>
	<path class="st1" d="M715.73,527.59h-25.65l-7.65-39.81h25.65L715.73,527.59z"/>
	<path class="st7" d="M730.51,438.36h-34.47c-1.26,0.03-2.49,0.46-3.49,1.24c-1,0.77-1.72,1.85-2.07,3.06l-14.83,63.88
		c-0.15,0.53-0.17,1.08-0.06,1.62c0.11,0.54,0.35,1.04,0.7,1.46c0.35,0.42,0.79,0.76,1.3,0.97c0.51,0.21,1.05,0.3,1.6,0.26h34.48
		c1.27-0.03,2.49-0.47,3.49-1.25c1-0.78,1.72-1.86,2.07-3.07l14.82-63.88c0.15-0.53,0.16-1.08,0.05-1.62
		c-0.12-0.53-0.36-1.03-0.7-1.45c-0.35-0.42-0.79-0.75-1.3-0.97C731.6,438.4,731.06,438.31,730.51,438.36z"/>
	<path class="st3" d="M714.73,503.31h-33.1c-0.29,0.02-0.58-0.02-0.85-0.14c-0.27-0.11-0.5-0.29-0.69-0.51
		c-0.18-0.22-0.31-0.49-0.38-0.77c-0.06-0.28-0.05-0.58,0.02-0.86l13.49-58.08c0.18-0.64,0.57-1.21,1.09-1.62
		c0.53-0.41,1.18-0.64,1.85-0.65h33.1c0.29-0.02,0.58,0.02,0.85,0.14c0.27,0.11,0.5,0.29,0.69,0.51c0.18,0.22,0.31,0.49,0.37,0.77
		c0.06,0.28,0.06,0.58-0.02,0.86l-13.49,58.08c-0.18,0.64-0.57,1.21-1.1,1.62C716.05,503.07,715.4,503.3,714.73,503.31z"/>
	<path class="st1" d="M646.35,527.59h-25.67l-7.65-39.81h25.65L646.35,527.59z"/>
	<path class="st7" d="M668.25,430.71h-43.44c-1.26,0.03-2.49,0.46-3.48,1.24c-1,0.77-1.73,1.85-2.07,3.06l-16.61,71.53
		c-0.15,0.53-0.16,1.09-0.04,1.62c0.12,0.54,0.36,1.04,0.71,1.46c0.35,0.42,0.8,0.76,1.3,0.97c0.51,0.21,1.06,0.3,1.6,0.26h43.42
		c1.27-0.03,2.49-0.47,3.49-1.25c1-0.78,1.72-1.86,2.07-3.07l16.63-71.53c0.15-0.53,0.16-1.09,0.05-1.62
		c-0.12-0.54-0.36-1.04-0.71-1.46c-0.35-0.42-0.8-0.75-1.3-0.97C669.35,430.75,668.8,430.67,668.25,430.71z"/>
	<path class="st3" d="M650.69,503.31h-42.04c-0.29,0.02-0.58-0.02-0.84-0.14c-0.27-0.11-0.5-0.29-0.69-0.51
		c-0.18-0.22-0.31-0.49-0.37-0.77c-0.06-0.28-0.05-0.58,0.03-0.85l15.25-65.73c0.18-0.64,0.57-1.21,1.09-1.62
		c0.53-0.41,1.18-0.64,1.85-0.65h42.02c0.29-0.03,0.58,0.02,0.85,0.13c0.27,0.11,0.51,0.29,0.69,0.51c0.19,0.22,0.31,0.49,0.37,0.78
		c0.06,0.29,0.05,0.58-0.03,0.86l-15.31,65.73c-0.18,0.63-0.55,1.19-1.07,1.6C651.98,503.05,651.35,503.29,650.69,503.31z"/>
	<path class="st1" d="M567.42,527.59h-25.65l-7.65-39.81h25.65L567.42,527.59z"/>
	<path class="st7" d="M595.26,421.14h-55.38c-1.26,0.03-2.49,0.46-3.49,1.24c-1,0.77-1.72,1.85-2.07,3.06l-18.84,81.12
		c-0.14,0.53-0.16,1.09-0.04,1.62c0.12,0.54,0.36,1.04,0.71,1.46c0.35,0.42,0.8,0.76,1.3,0.97s1.06,0.31,1.6,0.26h55.42
		c1.27-0.03,2.49-0.47,3.49-1.25c1-0.78,1.72-1.86,2.07-3.07l18.82-81.12c0.15-0.53,0.17-1.09,0.06-1.63
		c-0.11-0.54-0.36-1.04-0.71-1.47c-0.35-0.42-0.81-0.76-1.32-0.96C596.37,421.17,595.81,421.08,595.26,421.14z"/>
	<path class="st3" d="M575.49,503.31H521.5c-0.29,0.03-0.58-0.02-0.85-0.13c-0.27-0.11-0.51-0.29-0.69-0.51
		c-0.19-0.23-0.31-0.49-0.37-0.78c-0.06-0.29-0.05-0.58,0.03-0.86l17.48-75.3c0.18-0.64,0.57-1.21,1.1-1.62
		c0.53-0.41,1.17-0.64,1.84-0.65h53.99c0.29-0.02,0.58,0.02,0.85,0.14c0.27,0.11,0.5,0.29,0.69,0.51c0.18,0.22,0.31,0.49,0.37,0.77
		c0.06,0.28,0.05,0.58-0.03,0.85l-17.36,75.3c-0.19,0.66-0.59,1.24-1.14,1.65C576.84,503.1,576.18,503.32,575.49,503.31z"/>
	<path class="st4" d="M715.73,590.8H465.57v20.28h250.15V590.8z"/>
	<path class="st4" d="M629.68,633.92H465.57v20.28h164.11V633.92z"/>
	<path class="st4" d="M679.69,677.03H465.57v20.28h214.12V677.03z"/>
	<path class="st2" d="M540,917.78c217.16,0,393.21-10.28,393.21-22.96c0-12.68-176.05-22.96-393.21-22.96
		s-393.21,10.28-393.21,22.96C146.79,907.5,322.84,917.78,540,917.78z"/>
	<path class="st8" d="M352.31,871.64l15.6-3.61l-6.08-36.5l-15.62,3.63L352.31,871.64z"/>
	<path class="st9" d="M368.33,865.94L350.79,870c-0.3,0.06-0.56,0.23-0.73,0.48c-0.17,0.25-0.24,0.56-0.18,0.86l2.27,14.01
		c0.08,0.36,0.23,0.7,0.44,1c0.21,0.3,0.48,0.56,0.79,0.76c0.31,0.2,0.66,0.33,1.02,0.39c0.36,0.06,0.73,0.06,1.1-0.03
		c6.08-1.52,8.92-2.56,16.63-4.34c4.75-1.09,25.01-5.29,31.56-6.81c6.55-1.52,4.91-7.93,2.03-7.87
		c-13.04,0.26-29.28,0.22-34.48-2.19C370.33,865.84,369.31,865.72,368.33,865.94z"/>
	<path class="st10" d="M346.2,835.18l15.62-3.63l3.14,18.8l-15.62,3.63L346.2,835.18z"/>
	<path class="st11" d="M322.78,472.83c0,0,20.5,130.08,26.59,175.44c6.61,49.7,20.56,195.03,20.56,195.03l-28.27,7.79
		c0,0-26.77-140.82-37.8-189.13c-11.99-52.42-38.19-189.13-38.19-189.13H322.78z"/>
	<path class="st12" d="M322.78,472.83c0,0,20.5,130.08,26.59,175.44c6.61,49.7,20.56,195.03,20.56,195.03l-28.27,7.79
		c0,0-26.77-140.82-37.8-189.13c-11.99-52.42-38.19-189.13-38.19-189.13H322.78z"/>
	<path class="st13" d="M289.24,518.52c10.81,27.56,10.14,82.09,5.54,101.3c-6.51-31.54-13.97-69.28-19.71-98.6
		C277.25,513.7,282.67,501.75,289.24,518.52z"/>
	<path class="st11" d="M340.97,851.66l30.28-8.34l-0.49-12.31l-34.11,11.76L340.97,851.66z"/>
	<path class="st11" d="M374.45,867.46c-1.41,0.28-2.84,0.42-4.28,0.41c-0.07,0-0.14-0.02-0.2-0.06c-0.06-0.04-0.1-0.1-0.13-0.17
		c-0.04-0.06-0.06-0.13-0.06-0.2c0-0.07,0.02-0.14,0.06-0.2c0.43-0.45,4.16-4.48,6.23-4.18c0.24,0.03,0.46,0.12,0.65,0.26
		s0.34,0.33,0.43,0.55c0.18,0.31,0.27,0.66,0.27,1.01c0,0.36-0.09,0.7-0.27,1.01C376.47,866.73,375.51,867.28,374.45,867.46z
		 M371.07,867.12c2.9-0.1,4.95-0.67,5.52-1.56c0.12-0.21,0.18-0.44,0.18-0.68c0-0.24-0.06-0.47-0.18-0.68
		c-0.04-0.11-0.11-0.2-0.2-0.27c-0.09-0.07-0.2-0.12-0.31-0.13C374.92,863.63,372.61,865.54,371.07,867.12z"/>
	<path class="st11" d="M370.26,867.85h-0.16c-0.06-0.01-0.12-0.05-0.16-0.09c-0.05-0.04-0.08-0.1-0.1-0.16
		c0-0.18-1.42-4.58-0.18-6.45c0.16-0.24,0.36-0.45,0.61-0.6c0.25-0.15,0.52-0.24,0.81-0.27c0.31-0.07,0.64-0.02,0.92,0.12
		c0.28,0.14,0.51,0.38,0.64,0.67c0.75,1.62-0.85,5.39-2.19,6.69C370.39,867.82,370.33,867.84,370.26,867.85z M370.97,861.05
		c-0.29,0.08-0.54,0.26-0.71,0.51c-0.56,1.68-0.56,3.49,0,5.17c1.19-1.51,1.77-3.42,1.6-5.33c0-0.2-0.26-0.43-0.81-0.37
		L370.97,861.05z"/>
	<path class="st8" d="M328.44,351.03c1.54,4.26,3.18,8.9,4.91,13.3c1.72,4.4,3.45,8.88,5.29,13.24c3.46,8.57,7.53,16.87,12.17,24.86
		l1.72,2.7l0.67,1.03c0.12,0.21,0.25,0.4,0.41,0.59c0.27,0.39,0.57,0.75,0.91,1.08c0.79,0.33,1.67,0.39,2.5,0.16
		c1.64-0.29,3.24-0.82,4.72-1.58c7.06-3.35,14.62-9.82,21.29-16.02l9.67,7.12c-2.62,4.66-5.65,9.08-9.07,13.2
		c-3.57,4.39-7.69,8.3-12.27,11.62c-2.68,1.92-5.61,3.46-8.7,4.61c-3.89,1.42-8.07,1.84-12.17,1.22c-4.47-0.75-8.63-2.8-11.94-5.9
		c-0.72-0.68-1.39-1.4-2.03-2.15l-0.93-1.07l-0.63-0.83l-2.58-3.35c-6.12-8.66-11.41-17.87-15.8-27.52
		c-2.15-4.71-4.22-9.41-6.09-14.2c-1.87-4.79-3.61-9.47-5.17-14.6L328.44,351.03z"/>
	<path class="st9" d="M317.61,334.6c-15.86-3.69-25.49,6.43-20.73,26.36c2.95,11.36,6.56,22.54,10.83,33.48
		c0.93,2.45,1.79,4.64,2.5,6.41l36.04-20.08C342.27,365.02,328.24,337.1,317.61,334.6z"/>
	<path class="st13" d="M318.3,353.44c-9.57-8.54,0.22,26.1,4.24,40.56l10.59-5.9C332.07,378.06,325.66,359.99,318.3,353.44z"/>
	<path class="st8" d="M234.02,878.49H250l2.37-37.01h-16L234.02,878.49z"/>
	<path class="st9" d="M250.85,876.65H232.9c-0.15-0.01-0.3,0.01-0.44,0.07c-0.14,0.05-0.27,0.13-0.38,0.23
		c-0.11,0.1-0.2,0.23-0.27,0.36c-0.06,0.14-0.1,0.29-0.1,0.44l-0.99,14.2c0,0.37,0.06,0.74,0.2,1.08c0.14,0.34,0.34,0.66,0.6,0.92
		c0.26,0.26,0.57,0.47,0.91,0.62c0.34,0.14,0.7,0.22,1.08,0.22c6.25-0.1,9.25-0.47,17.14-0.47c4.87,0,25.51,0.51,32.2,0.51
		s6.57-6.63,3.73-7.24c-12.72-2.7-28.39-6.41-32.98-9.96C252.81,877,251.84,876.66,250.85,876.65z"/>
	<path class="st10" d="M236.37,841.5h16l-1.24,19.08h-15.98L236.37,841.5z"/>
	<path class="st11" d="M291.57,472.83c0,0,0.57,121.29-2.39,167.05c-3.22,50.11-31.07,216.08-31.07,216.08h-29.35
		c0,0,14.54-161.94,13.16-211.54c-1.48-53.84-4.6-171.59-4.6-171.59H291.57z"/>
	<path class="st12" d="M291.57,472.83c0,0,0.57,121.29-2.39,167.05c-3.22,50.11-31.07,216.08-31.07,216.08h-29.35
		c0,0,14.54-161.94,13.16-211.54c-1.48-53.84-4.6-171.59-4.6-171.59H291.57z"/>
	<path class="st11" d="M227.57,855.96h31.64l1.85-11.09l-34.92,1.72L227.57,855.96z"/>
	<path class="st11" d="M256.49,879.43c-1.43-0.04-2.86-0.23-4.26-0.57c-0.07-0.01-0.13-0.05-0.18-0.1
		c-0.05-0.05-0.08-0.11-0.09-0.18c-0.05-0.07-0.07-0.16-0.05-0.24c0.01-0.09,0.05-0.16,0.11-0.22c0.53-0.35,5.07-3.45,7.02-2.68
		c0.22,0.09,0.42,0.23,0.56,0.42c0.15,0.18,0.25,0.4,0.29,0.64c0.11,0.35,0.12,0.72,0.04,1.08c-0.08,0.36-0.27,0.68-0.52,0.95
		C258.58,879.16,257.54,879.49,256.49,879.43z M253.26,878.31c2.86,0.59,4.97,0.49,5.72-0.24c0.16-0.18,0.26-0.4,0.31-0.63
		c0.05-0.23,0.03-0.48-0.04-0.7c-0.01-0.12-0.06-0.23-0.13-0.32s-0.17-0.16-0.28-0.21C257.78,875.8,255.13,877.13,253.26,878.31z"/>
	<path class="st11" d="M252.31,878.88h-0.16c-0.06-0.03-0.1-0.08-0.14-0.13c-0.04-0.05-0.06-0.11-0.07-0.18
		c0-0.2-0.32-4.81,1.3-6.35c0.21-0.2,0.46-0.36,0.73-0.45c0.27-0.09,0.57-0.12,0.85-0.08c0.32,0.01,0.62,0.13,0.87,0.34
		c0.24,0.21,0.41,0.49,0.47,0.8c0.34,1.74-2.03,5.07-3.65,6.08C252.44,878.93,252.37,878.91,252.31,878.88z M254.56,872.39
		c-0.15,0-0.3,0.02-0.44,0.08c-0.14,0.06-0.27,0.14-0.37,0.25c-0.89,1.54-1.28,3.32-1.09,5.09c1.4-1.18,3.02-3.71,2.78-4.87
		c0-0.2-0.16-0.47-0.71-0.53L254.56,872.39z"/>
	<path class="st9" d="M322.78,472.83h-85.46c-0.55-7.65,1.42-32.45,0.35-64.08c-0.63-23.43-3.29-46.76-7.95-69.72
		c-0.37-1.72-0.75-3.43-1.14-5.15c0,0,4.34-0.87,10.55-1.79c5.17-0.75,11.64-1.54,17.97-1.83c12.1-0.7,24.22-0.7,36.32,0
		c5.58,0.51,11.03,1.44,15.37,2.27c5.56,1.12,8.82,2.03,8.82,2.03S338.3,382.95,322.78,472.83z"/>
	<path class="st11" d="M291.35,381.92c-0.21,0-0.41-0.06-0.59-0.18c-0.34-0.24-35.41-25.33-47.84-49.83
		c-0.12-0.24-0.14-0.52-0.06-0.77c0.08-0.25,0.26-0.47,0.5-0.59c0.12-0.06,0.25-0.1,0.38-0.11c0.13-0.01,0.27,0,0.39,0.05
		c0.13,0.04,0.24,0.11,0.34,0.2c0.1,0.09,0.18,0.19,0.24,0.31c12.17,24.05,46.87,48.83,47.21,49.1c0.22,0.16,0.36,0.39,0.41,0.65
		c0.05,0.26-0.01,0.53-0.16,0.75c-0.1,0.13-0.22,0.24-0.37,0.31C291.67,381.88,291.51,381.92,291.35,381.92z"/>
	<path class="st11" d="M291.35,381.92c-0.21,0-0.41-0.06-0.59-0.18c-0.11-0.08-0.2-0.17-0.27-0.28c-0.07-0.11-0.12-0.24-0.14-0.37
		c-0.02-0.13-0.02-0.26,0.01-0.39c0.03-0.13,0.08-0.25,0.16-0.36c8.73-14.73,12.22-31.99,9.92-48.96c-0.03-0.26,0.05-0.53,0.21-0.74
		c0.16-0.21,0.4-0.35,0.66-0.39c0.13-0.02,0.27-0.01,0.4,0.03c0.13,0.04,0.25,0.1,0.36,0.18c0.1,0.08,0.19,0.19,0.26,0.3
		c0.07,0.12,0.11,0.25,0.12,0.38c2.37,17.46-1.25,35.21-10.26,50.35c-0.09,0.13-0.22,0.24-0.36,0.32
		C291.67,381.88,291.51,381.92,291.35,381.92z"/>
	<path class="st11" d="M305.5,412.26h-23.67l-2.47-34.03h23.67L305.5,412.26z"/>
	<path class="st3" d="M304.43,410.37h-20.97l-2.25-30.93h20.99L304.43,410.37z"/>
	<path class="st11" d="M292.68,395.06h-8.78l-0.83-11.19h8.8L292.68,395.06z"/>
	<path class="st11" d="M301.28,399.72h-17.06l-0.12-1.74h17.05L301.28,399.72z"/>
	<path class="st11" d="M301.57,403.64h-17.06l-0.12-1.72h17.05L301.57,403.64z"/>
	<path class="st11" d="M300.27,407.57H284.8l-0.12-1.72h15.47L300.27,407.57z"/>
	<path class="st13" d="M237.67,408.75c-0.63-23.42-3.29-46.74-7.95-69.7c5.72-0.51,15.47,0,17.04,9.29
		C248.41,358.25,245.94,381.57,237.67,408.75z"/>
	<path class="st8" d="M245.29,354.15l-8.56,29.47l-4.3,14.74l-4.06,14.7l-0.26,0.91l-0.12,0.45v0.24c0.03-0.2,0.03-0.41,0-0.61
		c0-0.32-0.16-0.28,0,0c0.43,1.3,1.12,2.5,2.03,3.53c2.91,3.34,6.17,6.34,9.74,8.96c7.97,5.94,16.27,11.43,24.86,16.45l-4.54,11.11
		c-5.22-1.43-10.36-3.16-15.39-5.17c-5.1-2.03-10.08-4.36-14.91-6.98c-5.28-2.81-10.18-6.28-14.58-10.32
		c-2.8-2.61-5.11-5.7-6.81-9.13c-1.14-2.34-1.83-4.88-2.03-7.48c-0.1-1.5-0.02-3,0.22-4.48l0.43-2.27
		c1.87-10.44,4.06-20.71,6.69-30.89c2.64-10.18,5.38-20.28,8.62-30.32L245.29,354.15z"/>
	<path class="st9" d="M228.58,333.87c-10.65,2.47-22.59,30.52-26.81,46.3c-0.69,2.68-1.26,4.99-1.68,6.75
		c-0.57,2.33-0.87,3.73-0.87,3.73l35.73,10.14c0.73-1.76,1.62-4.06,2.58-6.41c4.44-10.91,8.24-22.07,11.38-33.42
		C254.05,341.05,244.5,330.18,228.58,333.87z"/>
	<path class="st8" d="M291.69,330.12c-10.53-2.49-12.33-9.02-11.56-16.22c0.18-1.8,0.47-3.59,0.87-5.35l-13.14-10.99l-9.65-8.11
		c2.59,11.7,5.46,33.02-2.51,40.82c3.17,4.68,7.5,8.46,12.56,10.99c5.06,2.52,10.69,3.7,16.34,3.41
		C293.68,334.83,291.69,330.12,291.69,330.12z"/>
	<path class="st3" d="M249.27,330.2c2.27-0.52,4.56-0.92,6.88-1.18c3.83,6.53,20.28,15.76,25.86,15.76c0,0-5.58,2.43-6.98,11.23
		C266.46,351.21,250,338.9,249.27,330.2z"/>
	<path class="st3" d="M295.67,330.26c-1.6-0.48-3.28-0.66-4.95-0.53c0.12,6.39-1.89,9.35-4.99,13.73c2.21,0.77,4.16,2.17,5.6,4.02
		c1.44,1.85,2.31,4.08,2.51,6.42C300.19,347.2,298.06,335.07,295.67,330.26z"/>
	<path class="st10" d="M281,308.56c-0.4,1.76-0.7,3.55-0.87,5.35c-4.93-0.99-12.37-5.39-13.04-10.95c0.04-1.82,0.29-3.63,0.77-5.39
		L281,308.56z"/>
	<path class="st8" d="M252.02,271.74c2.51,15.72,3.2,25.03,11.97,32.57c13.16,11.34,31.92,2.74,34.13-13.28
		c2.03-14.42-2.45-37.7-18.5-42.89c-3.47-1.2-7.19-1.47-10.8-0.79c-3.61,0.68-6.97,2.3-9.76,4.68c-2.79,2.39-4.91,5.46-6.14,8.92
		C251.69,264.4,251.38,268.12,252.02,271.74z"/>
	<path class="st9" d="M257.68,289.12c5.52-9.9,8.78-21.72,3.02-26.95c7.77,0,16.96-2.94,20.28-5.86c6.08,2.82,12.92,2.43,15.72-4.06
		c2.35-5.37-1.05-12.61-10.32-12.05c-14.77-11.72-40.56-9.25-32.45,0.79c-21.23-1.58-23.61,10.14-15.52,14.2
		C225.66,262.95,228.38,282.55,257.68,289.12z"/>
	<path class="st8" d="M247.64,287.19c2.33,3.15,5.69,5.4,9.49,6.35c4.85,1.07,6.08-3.43,4.06-7.93c-2.03-4.06-6.98-9.51-11.4-8.56
		S244.68,283.21,247.64,287.19z"/>
	<path class="st9" d="M276.36,274.41c0.12,1.3,0.91,2.29,1.74,2.23c0.83-0.06,1.42-1.16,1.3-2.43c-0.12-1.28-0.91-2.29-1.76-2.23
		C276.79,272.04,276.36,273.14,276.36,274.41z"/>
	<path class="st9" d="M290.94,273.4c0.14,1.28,0.91,2.27,1.74,2.21c0.83-0.06,1.42-1.14,1.3-2.43c-0.12-1.3-0.91-2.27-1.74-2.21
		C291.41,271.03,290.82,272.12,290.94,273.4z"/>
	<path class="st14" d="M286.5,274.35c1.92,3.83,4.35,7.38,7.22,10.57c-0.83,0.7-1.81,1.21-2.86,1.48c-1.05,0.27-2.15,0.31-3.22,0.1
		L286.5,274.35z"/>
	<path class="st9" d="M282.69,290.33c-1.49-0.05-2.95-0.4-4.3-1.04c-1.35-0.63-2.55-1.54-3.53-2.65c-0.04-0.04-0.07-0.08-0.08-0.13
		c-0.02-0.05-0.03-0.1-0.03-0.15c0-0.05,0.01-0.1,0.03-0.15s0.05-0.09,0.08-0.13c0.07-0.07,0.16-0.1,0.26-0.1
		c0.1,0,0.19,0.04,0.26,0.1c1.08,1.2,2.43,2.14,3.94,2.73c1.51,0.59,3.13,0.82,4.74,0.68c0.05-0.01,0.1,0,0.15,0.02
		c0.05,0.02,0.09,0.04,0.13,0.08c0.04,0.03,0.07,0.08,0.09,0.12c0.02,0.05,0.03,0.1,0.03,0.15c0.01,0.05,0,0.1-0.01,0.14
		c-0.01,0.05-0.04,0.09-0.07,0.13c-0.03,0.04-0.07,0.07-0.12,0.09c-0.04,0.02-0.09,0.03-0.14,0.03
		C283.65,290.31,283.17,290.33,282.69,290.33z"/>
	<path class="st9" d="M271.49,270.05c-0.13-0.01-0.25-0.05-0.37-0.12c-0.08-0.05-0.16-0.12-0.21-0.2c-0.06-0.08-0.1-0.17-0.12-0.27
		c-0.02-0.1-0.03-0.2-0.01-0.29c0.02-0.1,0.05-0.19,0.1-0.27c0.61-1.03,1.47-1.89,2.49-2.51s2.18-0.99,3.37-1.06
		c0.2,0,0.39,0.08,0.53,0.22c0.14,0.14,0.22,0.33,0.22,0.53c0,0.2-0.08,0.4-0.23,0.55c-0.15,0.14-0.34,0.23-0.55,0.23
		c-0.93,0.07-1.83,0.37-2.63,0.86c-0.79,0.49-1.46,1.17-1.93,1.98c-0.07,0.11-0.17,0.21-0.29,0.27
		C271.76,270.02,271.63,270.06,271.49,270.05z"/>
	<path class="st9" d="M296.64,267.96c-0.12-0.01-0.24-0.04-0.35-0.11c-0.11-0.06-0.19-0.15-0.26-0.26c-0.47-0.84-1.14-1.56-1.94-2.1
		c-0.8-0.54-1.71-0.89-2.67-1.02c-0.1-0.01-0.2-0.03-0.29-0.07c-0.09-0.04-0.17-0.11-0.24-0.18c-0.07-0.08-0.12-0.16-0.15-0.26
		c-0.03-0.1-0.04-0.2-0.04-0.3c0.02-0.2,0.11-0.38,0.25-0.51c0.15-0.13,0.34-0.2,0.54-0.2c1.2,0.14,2.36,0.56,3.37,1.23
		c1.01,0.67,1.85,1.57,2.45,2.62c0.05,0.09,0.08,0.18,0.1,0.28s0.01,0.2-0.01,0.29c-0.02,0.1-0.07,0.19-0.13,0.27
		c-0.06,0.08-0.14,0.15-0.22,0.2C296.94,267.92,296.79,267.96,296.64,267.96z"/>
	<path class="st8" d="M260.34,442.19l19.12-2.03l-10.02,17.5c0,0-14.48-1.46-13.06-8.82L260.34,442.19z"/>
	<path class="st8" d="M293.31,444.85l-9.47,15.13l-14.36-2.37l10.02-17.5L293.31,444.85z"/>
	<path class="st8" d="M388.39,399.89l15.54-3.31l-11.38-13.57c0,0-14.2,5.8-10.14,12.17L388.39,399.89z"/>
	<path class="st8" d="M412.74,388.55l-10.18-14.09l-10.02,8.56l11.38,13.57L412.74,388.55z"/>
	<path class="st11" d="M292.91,522.19h229.87c6.69,0,13.11,2.66,17.84,7.39c4.73,4.73,7.39,11.15,7.39,17.84v347.4H267.68v-347.4
		c0-6.69,2.66-13.11,7.39-17.84C279.8,524.85,286.22,522.19,292.91,522.19z"/>
	<path class="st11" d="M605.91,547.42h-2.03v46.54h2.03V547.42z"/>
	<path class="st11" d="M605.91,605.69h-2.03v13.97h2.03V605.69z"/>
	<path class="st11" d="M343.73,522.19h229.85c6.69,0,13.11,2.66,17.84,7.39c4.73,4.73,7.39,11.15,7.39,17.84v347.4H318.5v-347.4
		c0-6.69,2.66-13.11,7.39-17.84C330.62,524.85,337.04,522.19,343.73,522.19z"/>
	<path class="st5" d="M590.4,547.4v347.4H326.9V547.4c0-4.46,1.77-8.74,4.92-11.89c3.15-3.15,7.43-4.92,11.89-4.92h229.87
		c4.46,0,8.74,1.77,11.89,4.92C588.62,538.67,590.4,542.94,590.4,547.4z"/>
	<path class="st6" d="M585.94,547.42v347.4H326.9v-347.4c0-2.21,0.44-4.4,1.29-6.44c0.85-2.04,2.09-3.89,3.66-5.45
		c1.57-1.56,3.42-2.8,5.47-3.64c2.04-0.84,4.23-1.27,6.44-1.27h225.37c4.45,0,8.73,1.77,11.88,4.92
		C584.15,538.7,585.93,542.97,585.94,547.42z"/>
	<path class="st11" d="M431.34,469.79H348.9c-8.24,0-14.93,6.68-14.93,14.93v22.55c0,8.24,6.68,14.93,14.93,14.93h82.44
		c8.24,0,14.92-6.68,14.92-14.93v-22.55C446.27,476.47,439.58,469.79,431.34,469.79z"/>
	<path class="st9" d="M429.15,472.75h-56.22c-7.22,0-13.08,5.86-13.08,13.08v20.32c0,7.22,5.86,13.08,13.08,13.08h56.22
		c7.22,0,13.08-5.86,13.08-13.08v-20.32C442.23,478.61,436.37,472.75,429.15,472.75z"/>
	<path class="st3" d="M343.65,485.81c0,0.66-0.26,1.3-0.73,1.76c-0.47,0.47-1.1,0.73-1.76,0.73c-0.66,0-1.3-0.26-1.76-0.73
		c-0.47-0.47-0.73-1.1-0.73-1.76c0-0.66,0.26-1.3,0.73-1.76c0.47-0.47,1.1-0.73,1.76-0.73c0.66,0,1.3,0.26,1.76,0.73
		C343.39,484.52,343.65,485.15,343.65,485.81z"/>
	<path class="st3" d="M343.65,493.76c0,0.49-0.15,0.98-0.42,1.39c-0.27,0.41-0.66,0.73-1.12,0.92c-0.46,0.19-0.96,0.24-1.44,0.14
		c-0.48-0.1-0.93-0.33-1.28-0.68c-0.35-0.35-0.59-0.79-0.68-1.28c-0.1-0.48-0.05-0.98,0.14-1.44c0.19-0.46,0.51-0.85,0.92-1.12
		c0.41-0.27,0.89-0.42,1.39-0.42c0.66,0,1.29,0.27,1.76,0.74S343.64,493.1,343.65,493.76z"/>
	<path class="st15" d="M517.21,439.15h-38.76l6.51,83.05h38.76L517.21,439.15z"/>
	<path class="st11" d="M519.58,432.03h-38.76l6.51,83.05h38.76L519.58,432.03z"/>
	<path class="st16" d="M520.55,485.02h-32.39l-3.91-49.83h32.39L520.55,485.02z"/>
	<path class="st16" d="M522.66,511.91h-32.41l-1.5-19.1h32.41L522.66,511.91z"/>
	<path class="st11" d="M520.86,431.56l-38.76-0.08l6.35,83.55l38.76,0.08L520.86,431.56z"/>
	<path class="st16" d="M521.71,484.88l-32.39-0.08l-3.79-50.11l32.39,0.06L521.71,484.88z"/>
	<path class="st16" d="M523.78,511.93l-32.41-0.06l-1.46-19.22l32.41,0.06L523.78,511.93z"/>
	<path class="st11" d="M521.91,430.51l-38.76-0.08l6.35,84.57l38.76,0.08L521.91,430.51z"/>
	<path class="st16" d="M522.78,484.47l-32.41-0.08l-3.79-50.74l32.41,0.08L522.78,484.47z"/>
	<path class="st16" d="M524.85,511.85l-32.43-0.08l-1.46-19.45l32.43,0.06L524.85,511.85z"/>
	<path class="st17" d="M475.19,439.15h3.27l6.51,83.05h-3.25L475.19,439.15z"/>
	<path class="st18" d="M811.31,382.36c0.95,2.21,1.66,4.06,2.37,6.08c0.71,2.03,1.38,3.89,2.03,5.84c1.3,3.89,2.43,7.81,3.51,11.72
		c2.03,7.87,3.83,15.78,5.23,23.75l0.53,2.98l0.12,0.75l0.14,0.91c0.13,0.82,0.21,1.66,0.22,2.49c0.06,2.96-0.46,5.9-1.5,8.66
		c-1.72,4.45-4.2,8.56-7.32,12.17c-5.52,6.45-11.99,12.03-19.18,16.55l-5.74-7.06c4.99-5.5,9.49-11.44,13.43-17.75
		c1.68-2.68,2.95-5.6,3.77-8.66c0.24-0.99,0.3-2.01,0.16-3.02l-1.16-4.48c-2.03-7.5-4.06-14.95-6.29-22.31
		c-1.09-3.67-2.31-7.32-3.49-10.93c-0.59-1.8-1.22-3.61-1.85-5.37l-1.88-5.07L811.31,382.36z"/>
	<path class="st18" d="M799.46,471.45l5.54,11.9l-7.61,4.44c0,0-14.91-21.76-3.67-22.47L799.46,471.45z"/>
	<path class="st11" d="M768.84,877.52c1.6-0.03,3.19-0.24,4.75-0.63c0.08-0.02,0.16-0.06,0.22-0.12c0.06-0.06,0.1-0.14,0.11-0.22
		c0.01-0.08,0-0.16-0.03-0.24s-0.09-0.14-0.16-0.19c-0.61-0.41-6.08-3.93-8.11-2.98c-0.23,0.11-0.43,0.27-0.58,0.48
		c-0.15,0.21-0.23,0.46-0.25,0.71c-0.09,0.4-0.07,0.82,0.05,1.22c0.12,0.39,0.34,0.75,0.64,1.04
		C766.45,877.28,767.64,877.61,768.84,877.52z M772.39,876.28c-3.12,0.61-5.47,0.51-6.39-0.32c-0.2-0.19-0.34-0.43-0.42-0.69
		c-0.08-0.26-0.09-0.54-0.03-0.81c0-0.12,0.04-0.23,0.11-0.32c0.06-0.1,0.15-0.17,0.26-0.22
		C767.01,873.42,770.16,874.93,772.39,876.28z"/>
	<path class="st11" d="M773.48,876.89c0.07,0.02,0.15,0.02,0.22,0c0.06-0.04,0.12-0.09,0.15-0.16c0.04-0.06,0.05-0.14,0.05-0.21
		c0-0.22,0-5.39-2.03-7.12c-0.24-0.22-0.53-0.39-0.84-0.49c-0.31-0.1-0.64-0.13-0.97-0.08c-0.34,0.01-0.67,0.13-0.93,0.35
		c-0.26,0.22-0.44,0.52-0.51,0.85c-0.4,2.03,2.86,5.9,4.58,6.87L773.48,876.89z M770.44,869.61c0.17,0,0.34,0.03,0.51,0.1
		c0.16,0.07,0.31,0.16,0.43,0.29c1.16,1.01,1.56,3.93,1.66,5.66c-1.7-1.38-3.75-4.28-3.49-5.52c0-0.2,0.14-0.45,0.69-0.51
		L770.44,869.61z"/>
	<path class="st18" d="M770.06,320.41c-2.03,10.67-6.49,32.27,0.95,39.36c0,0-2.9,10.83-22.71,10.83c-21.78,0-10.4-10.83-10.4-10.83
		c11.88-2.84,11.58-11.66,9.51-19.94L770.06,320.41z"/>
	<path class="st9" d="M731.14,368.15c-3,0.39,4.06-9.17,5.25-10.14c2.8-2.25,39.32-4.16,39.14,1.42c-0.12,2.39-0.99,7.06-2.58,8.58
		C771.38,369.53,757.38,364.21,731.14,368.15z"/>
	<path class="st9" d="M734.95,294.65c-0.13-0.01-0.26-0.06-0.38-0.13s-0.21-0.17-0.27-0.29c-0.5-0.94-1.21-1.76-2.08-2.37
		c-0.87-0.62-1.87-1.02-2.93-1.18c-0.11-0.01-0.22-0.03-0.32-0.08c-0.1-0.05-0.19-0.11-0.27-0.2c-0.08-0.08-0.13-0.18-0.17-0.29
		c-0.04-0.11-0.06-0.22-0.05-0.33c0.01-0.23,0.12-0.44,0.29-0.59c0.17-0.15,0.39-0.23,0.62-0.22c1.34,0.18,2.62,0.67,3.73,1.44
		c1.11,0.77,2.02,1.79,2.66,2.98c0.06,0.1,0.09,0.2,0.11,0.31c0.01,0.11,0.01,0.22-0.02,0.33c-0.03,0.11-0.08,0.21-0.15,0.3
		c-0.07,0.09-0.16,0.16-0.26,0.21C735.31,294.64,735.13,294.68,734.95,294.65z"/>
	<path class="st19" d="M729.05,304.29c-1.54,3.2-3.5,6.17-5.84,8.84c0.7,0.58,1.51,1,2.39,1.23c0.87,0.23,1.79,0.27,2.68,0.11
		L729.05,304.29z"/>
	<path class="st9" d="M730.63,301.89c-0.1,1.44-0.95,2.56-1.91,2.49c-0.95-0.06-1.62-1.3-1.52-2.74c0.1-1.44,0.97-2.58,1.91-2.49
		C730.05,299.24,730.63,300.45,730.63,301.89z"/>
	<path class="st9" d="M729.44,299.26l-3.41-1.26C726.03,298,727.61,300.84,729.44,299.26z"/>
	<path class="st18" d="M794.39,876.47h-17.97l1.4-41.59h17.97L794.39,876.47z"/>
	<path class="st9" d="M774.98,874.4h20.28c0.34-0.01,0.68,0.11,0.94,0.34c0.26,0.22,0.43,0.54,0.48,0.88l2.31,15.98
		c0.04,0.4,0,0.81-0.13,1.2c-0.12,0.39-0.33,0.74-0.6,1.04c-0.27,0.3-0.6,0.54-0.97,0.7s-0.77,0.25-1.18,0.24
		c-7.04-0.12-10.42-0.53-19.31-0.53c-5.46,0-13.44,0.57-20.99,0.57c-7.54,0-7.93-7.46-4.79-8.11c14.07-3.02,16.22-7.2,21.03-11.19
		C772.88,874.82,773.91,874.43,774.98,874.4z"/>
	<g class="st20">
		<path class="st10" d="M795.79,834.87h-17.97l-0.81,24.11h17.97L795.79,834.87z"/>
	</g>
	<path class="st18" d="M716.44,388.1c-3.57,8.96-7.4,17.5-11.72,26.02c-4.24,8.68-9.05,17.06-14.4,25.11
		c-1.44,2.03-2.86,4.06-4.48,6.08c-0.85,1.03-1.56,2.03-2.54,3.06c-1.14,1.26-2.4,2.42-3.75,3.45c-2.65,1.94-5.63,3.38-8.8,4.24
		c-2.87,0.79-5.83,1.18-8.8,1.16c-5.33-0.06-10.61-0.96-15.66-2.68c-2.39-0.77-4.73-1.69-7.02-2.74c-2.31-1.03-4.56-2.19-6.73-3.49
		l3.83-8.25c8.21,2.19,17.38,3.67,24.7,2.62c3.08-0.29,5.99-1.53,8.33-3.55c0.44-0.44,0.86-0.92,1.24-1.42l1.74-2.45
		c1.2-1.68,2.33-3.55,3.45-5.38c2.25-3.73,4.4-7.62,6.45-11.62c2.05-3.99,4.06-8.11,6.08-12.17c3.83-8.11,7.6-16.63,11.09-24.86
		L716.44,388.1z"/>
	<path class="st11" d="M709.38,363.63c-8.92,2.17-19.92,26.69-19.92,26.69l21.25,27.22c0,0,21.94-31.05,19.02-40.56
		C726.68,367.05,720.21,360.97,709.38,363.63z"/>
	<path class="st18" d="M640.53,441.34l-13.32-4.2l-2.94,13.99c0,0,13.1,2.55,18.25-3.16L640.53,441.34z"/>
	<path class="st18" d="M614.77,438.74l2.53,10.65l6.92,1.74l2.94-13.99L614.77,438.74z"/>
	<path class="st18" d="M779.49,300.57c-2.41,17.66-3.06,25.19-12.72,33.62c-14.5,12.7-35.67,5.86-38.53-12.17
		c-2.62-16.22,1.76-42.39,19.67-48.14c3.94-1.28,8.13-1.53,12.2-0.73c4.06,0.8,7.85,2.62,11.01,5.29c3.16,2.67,5.59,6.11,7.05,9.98
		C779.64,292.3,780.09,296.48,779.49,300.57z"/>
	<path class="st9" d="M739.6,310.61c14.01,24.5,21.11,27.82,31.94,31.88c0,0,4.99-15.07,15.8-24.46
		c14.56-12.61,6.09-36.67-2.8-39.55c4.42-14.2-47.54-18.25-53.07,2.94C727.49,296.64,739.6,310.61,739.6,310.61z"/>
	<path class="st18" d="M747.75,305.87c-0.83,3.93-2.97,7.46-6.08,10c-4.18,3.45-7.79,0.75-7.93-3.89c-0.1-4.18,1.93-11.01,6.73-12.7
		C745.28,297.59,748.6,301.24,747.75,305.87z"/>
	<path class="st9" d="M737.22,472.04c0,0,10.42,123.3,21.25,192.8c8.74,56.13,15.62,187.33,15.62,187.33h24.5
		c0,0,11.68-126.71,7.24-182.22c-11.21-140.48,8.48-165.34-14.91-197.91H737.22z"/>
	<path class="st10" d="M744.83,551.6c3.31,32.45,7.42,69.38,11.72,99.51c6.92-16.22,14.2-38.43,15.6-84.32
		C772.92,535.84,755.84,529.8,744.83,551.6z"/>
	<path class="st11" d="M680.22,869.81c0.07,0,0.15-0.01,0.21-0.05c0.07-0.04,0.12-0.09,0.16-0.15c0.06-0.07,0.09-0.16,0.09-0.24
		c0-0.09-0.03-0.17-0.09-0.24c-0.61-0.69-5.92-6.71-8.42-6.41c-0.23,0.03-0.46,0.12-0.65,0.26c-0.19,0.14-0.35,0.32-0.45,0.53
		c-0.18,0.34-0.27,0.72-0.27,1.1c0,0.39,0.09,0.77,0.27,1.11c1.18,2.33,6.25,3.57,9.15,4.06V869.81z M672.33,863.57
		c1.4,0,4.54,2.84,6.71,5.17c-3.93-0.85-6.63-2.03-7.28-3.41c-0.12-0.22-0.19-0.47-0.19-0.72c0-0.25,0.07-0.5,0.19-0.72
		c0.03-0.09,0.09-0.16,0.17-0.22c0.08-0.06,0.16-0.09,0.26-0.1H672.33z"/>
	<path class="st11" d="M680.22,869.81h0.1c0.07-0.02,0.14-0.06,0.19-0.11c0.05-0.05,0.09-0.12,0.11-0.19c0-0.18,1.44-4.85,0-7.42
		c-0.19-0.37-0.47-0.7-0.79-0.97s-0.71-0.46-1.11-0.57c-1.16-0.32-1.68,0.12-2.03,0.53c-1.05,1.79,1.46,6.94,3.1,8.62
		c0.05,0.06,0.12,0.09,0.2,0.12C680.06,869.83,680.14,869.83,680.22,869.81z M677.99,861.3c0.17-0.03,0.34-0.03,0.51,0
		c0.3,0.08,0.58,0.22,0.83,0.42c0.24,0.19,0.45,0.44,0.59,0.72c0.67,1.97,0.7,4.09,0.1,6.08c-1.56-2.03-3.12-5.92-2.47-6.98
		c0.02-0.08,0.12-0.24,0.36-0.24H677.99z"/>
	<path class="st18" d="M698.27,882.1l-16.79-7.26l4.75-21.48l4.81-21.62l0.55-2.51l17.42,4.4l-0.61,2.84l-4.64,20.93L698.27,882.1z"
		/>
	<path class="st10" d="M703.74,857.4l-17.85-2.53l5.13-23.12l17.36,4.73L703.74,857.4z"/>
	<path class="st9" d="M717.96,472.04c0,0-12.17,132.79-16.71,195.7c-4.06,56.78-16.49,176.01-16.49,176.01l24.23,3.61
		c0,0,32.45-134.23,37.52-173.07c14.54-111.54,43.01-146.02,36.06-202.25H717.96z"/>
	<path class="st9" d="M682.06,867.97l18.8,7.38c0.33,0.12,0.6,0.36,0.76,0.66c0.16,0.31,0.2,0.66,0.12,1l-3.69,15.7
		c-0.11,0.39-0.29,0.76-0.55,1.07c-0.26,0.32-0.58,0.57-0.94,0.76c-0.36,0.18-0.76,0.28-1.17,0.3c-0.41,0.02-0.81-0.05-1.19-0.21
		c-6.51-2.68-9.51-4.3-17.77-7.54c-5.09-2.03-15.8-5.62-22.82-8.37c-7.02-2.76-4.66-9.84-1.5-9.31c14.2,2.33,20.89,0.47,26.77-1.5
		C679.91,867.55,681.04,867.57,682.06,867.97z"/>
	<path class="st11" d="M680.64,848.93l30.74,5.29l3.53-11.6l-32.91-5.7L680.64,848.93z"/>
	<path class="st11" d="M770.75,852.66h31.21l1.64-10.95l-33.04-1.11L770.75,852.66z"/>
	<path class="st11" d="M819.3,391.59l-18.03,14.36l-10.83,8.64c0,0-1.14-3.02-2.51-7.34c-2.62-8.37-6.08-21.62-3.67-27.72
		c3.71-9.65,10.79-18.35,19.61-16.43C811.33,364.74,819.3,391.59,819.3,391.59z"/>
	<path class="st10" d="M798.71,408l-8.27,6.59c0,0-1.14-3.02-2.51-7.34l6.43-31.86L798.71,408z"/>
	<path class="st11" d="M709.38,363.63c0,0-8.56,3,8.58,108.42h73.01c-1.22-29.69-1.26-48,12.94-108.94
		c-10.22-2.1-20.57-3.46-30.99-4.06c-11.03-0.8-22.11-0.8-33.14,0C725.52,360.32,709.38,363.63,709.38,363.63z"/>
	<path class="st9" d="M773.65,340.69l-6.96-0.14c-12.07,16.65,1.83,17.36,1.8,31.68c-0.02,14.32-15.53,22.75,3.59,32.83
		C758.01,390.27,797.39,381.67,773.65,340.69z"/>
	<path class="st11" d="M759.02,335.42c0.49,2.55,0.82,5.12,0.97,7.71c0,0.54,0.21,1.05,0.59,1.43c0.38,0.38,0.9,0.59,1.43,0.59
		c3.51,0,10.5,0,13.87,0c0.53-0.04,1.02-0.26,1.39-0.63c0.37-0.37,0.6-0.87,0.64-1.39c0.29-2.97,0.42-5.94,0.39-8.92
		c0-0.54-0.21-1.05-0.59-1.43c-0.38-0.38-0.9-0.59-1.43-0.59c-5.33,0-11.94,0.34-15.43,0.59c-0.59,0.11-1.12,0.46-1.46,0.95
		C759.05,334.21,758.92,334.82,759.02,335.42z"/>
	<path class="st11" d="M792.02,467.76l3.28,6.53c0.26,0.51-0.34,1.03-1.17,1.03h-76.54c-0.65,0-1.2-0.32-1.24-0.75l-0.65-6.53
		c0-0.45,0.51-0.83,1.24-0.83h73.88c0.23-0.02,0.46,0.02,0.67,0.12C791.7,467.43,791.88,467.58,792.02,467.76z"/>
	<path class="st12" d="M792.02,467.76l3.28,6.53c0.26,0.51-0.34,1.03-1.17,1.03h-76.54c-0.65,0-1.2-0.32-1.24-0.75l-0.65-6.53
		c0-0.45,0.51-0.83,1.24-0.83h73.88c0.23-0.02,0.46,0.02,0.67,0.12C791.7,467.43,791.88,467.58,792.02,467.76z"/>
	<path class="st9" d="M782.1,476.02h2.03c0.4,0,0.69-0.2,0.67-0.45l-0.93-8.48c0-0.24-0.36-0.47-0.75-0.47h-2.03
		c-0.39,0-0.69,0.22-0.67,0.47l0.93,8.48C781.33,475.81,781.7,476.02,782.1,476.02z"/>
	<path class="st9" d="M734.12,476.02h2.03c0.39,0,0.69-0.2,0.67-0.45l-0.93-8.48c0-0.24-0.37-0.47-0.77-0.47h-2.03
		c-0.41,0-0.69,0.22-0.67,0.47l0.93,8.48C733.39,475.81,733.73,476.02,734.12,476.02z"/>
</g>
</svg>
