<?xml version="1.0" encoding="utf-8"?>
<!-- Generator: Adobe Illustrator 24.3.0, SVG Export Plug-In . SVG Version: 6.00 Build 0)  -->
<svg version="1.1" id="Layer_1" xmlns="http://www.w3.org/2000/svg" xmlns:xlink="http://www.w3.org/1999/xlink" x="0px" y="0px"
	 viewBox="0 0 1080 1080" style="enable-background:new 0 0 1080 1080;" xml:space="preserve">
<style type="text/css">
	.st0{fill:#90BCD9;}
	.st1{fill:#232123;}
	.st2{fill:#271D1E;}
	.st3{fill:#2B181C;}
	.st4{fill:#EAE24C;}
	.st5{fill:#D84027;}
	.st6{fill:#EEEAE9;}
	.st7{fill:#EDE8E7;}
	.st8{fill:#2E87C8;}
	.st9{fill:#91BDD8;}
	.st10{fill:#2D8BCB;}
	.st11{fill:#E6E4E6;}
	.st12{fill:#91BBD9;}
	.st13{fill:#EFEAE8;}
	.st14{fill:#ECE6E6;}
	.st15{fill:#ECE6E4;}
	.st16{fill:#D34127;}
	.st17{fill:#D33E27;}
	.st18{fill:#2C85C4;}
	.st19{fill:#8EB8D7;}
	.st20{fill:#2F8BCB;}
	.st21{fill:#92BAD7;}
	.st22{fill:#EBE5E2;}
	.st23{fill:#E7E1DE;}
	.st24{fill:#E9E2DE;}
	.st25{fill:#F0EAE9;}
	.st26{fill:#EBE7E8;}
	.st27{fill:#ECE4E5;}
	.st28{fill:#E9E4E1;}
	.st29{fill:#9FB4CA;}
	.st30{fill:#353332;}
	.st31{fill:#35302E;}
	.st32{fill:#37312E;}
	.st33{fill:#363332;}
	.st34{fill:#3C3734;}
	.st35{fill:#342D2B;}
	.st36{fill:#322F2E;}
	.st37{fill:#36302F;}
	.st38{fill:#34302F;}
	.st39{fill:#38322F;}
	.st40{fill:#36322F;}
	.st41{fill:#37322E;}
	.st42{fill:#2D2928;}
	.st43{fill:#2F2C2B;}
	.st44{fill:#302B2C;}
	.st45{fill:#2F2B29;}
	.st46{fill:#302C2B;}
	.st47{fill:#332F2C;}
	.st48{fill:#E5E2E2;}
	.st49{fill:#DFDBDB;}
</style>
<g>
	<g>
		<path class="st0" d="M540.18,997.95c-98.94,0-197.87-0.06-296.81,0.13c-6.59,0.01-8.97-1.84-10.71-8.49
			c-4.11-15.71-9.85-31-14.76-46.51c-9.72-30.67-19.27-61.4-29.01-92.06c-7.63-24.02-15.53-47.95-23.15-71.98
			c-12.8-40.37-25.41-80.8-38.21-121.17c-10.93-34.47-22.07-68.86-33.04-103.32C82.8,517.82,71.35,481,59.42,444.35
			c-1.85-5.68-0.43-8.49,4.03-11.73c21.96-15.92,43.66-32.19,65.53-48.23c28.24-20.71,56.59-41.27,84.82-62
			c23.84-17.5,47.56-35.16,71.37-52.69c28.4-20.91,56.88-41.7,85.27-62.63c24.59-18.12,49.07-36.38,73.65-54.51
			c28.15-20.75,56.59-41.13,84.37-62.36c6.41-4.9,9.88-4.98,16.31-0.17c21.52,16.11,43.73,31.3,65.66,46.87
			c25.06,17.81,50.13,35.6,75.13,53.49c24.98,17.87,49.82,35.93,74.84,53.76c24.47,17.43,49.15,34.57,73.61,52.01
			c24.63,17.56,49.08,35.38,73.68,52.98c25.91,18.54,51.92,36.94,77.86,55.44c10.86,7.74,21.44,15.9,32.58,23.22
			c4.26,2.8,3.54,5.32,2.35,8.99c-10.78,33.33-21.59,66.66-32.13,100.07c-10.34,32.77-20.32,65.66-30.58,98.46
			c-9.71,31.06-19.6,62.07-29.38,93.1c-15.09,47.86-30.28,95.68-45.22,143.59c-11.58,37.12-22.78,74.37-35.18,111.23
			c-1.62,4.83-0.96,11.63-5.13,14.04c-3.77,2.18-9.71,0.63-14.7,0.64c-71.49,0.02-142.99,0.02-214.48,0.02
			C589.18,997.95,564.68,997.95,540.18,997.95z"/>
		<path class="st1" d="M812.01,718.63c-4.04,16.94-8.1,33.87-12.11,50.82c-0.91,3.87-2,5.57-6.88,3.91
			c-10.27-3.48-20.96-5.7-31.37-8.78c-2.69-0.8-3.85-0.57-5.18,1.97c-6.58,12.61-13.45,25.05-22.02,36.46
			c-1.66,2.21-0.98,4.21,0.56,6.11c6.67,8.26,12.87,16.98,20.21,24.58c4.71,4.88,3,7.03-1.07,10.48
			c-13.61,11.54-26.91,23.45-40.51,35.01c-3.04,2.58-3.79,4.58-2.25,8.55c8.2,21.26,16.08,42.64,23.82,64.07
			c1.09,3.01,3.21,5.88,0.44,10.05c-1.75,2.65,1.57,7.11,3.01,10.64c1.28,3.15,3.17,6.62-0.09,9.34c-3.26,2.72-6.34,0.31-9.21-1.57
			c-28.62-18.7-59.48-30.61-94.17-30.01c-26.61,0.46-51.7,7.35-75.06,20.03c-7.39,4.01-13.47,3.84-21.19-0.1
			c-40.56-20.67-82.6-26.79-126.46-10.77c-14.47,5.28-28.11,12.07-40.78,20.78c-1.91,1.31-3.83,2.54-6.03,2.91
			c-4.23,0.71-6.8-1.14-6.07-5.59c0.46-2.84,1.92-5.51,2.88-8.28c1.11-3.2,4.01-6.21,0.29-9.79c-1.47-1.42,0.33-3.41,0.92-5.04
			c7.15-19.76,14.23-39.55,21.66-59.21c1.44-3.81,1.18-5.96-2.06-8.6c-7.18-5.86-14.17-12-20.84-18.43
			c-2.86-2.76-4.03-1.77-6.27,0.52c-13.27,13.55-26.7,26.95-40.11,40.37c-1.11,1.11-1.86,3.68-4.19,1.59
			c-1.67-1.51-1.41-3.25-0.15-4.86c8.76-11.15,16.2-23.3,25.89-33.72c1.37,0.14,2.45,1.29,3.92,1.1
			c15.23-13.65,29.21-28.53,43.55-43.03c11-11.12,21.49-22.77,32.64-33.73c41.59-40.87,81.8-83.09,122.8-124.55
			c35.39-35.79,70.66-71.69,106.23-107.3c0.6-0.6,1.44-1.06,1.53-2.61c-9.91,1.18-19.88,0.97-29.65,1.98
			c-9.93,1.02-19.9,1.26-29.81,1.97c-20.31,1.46-40.68,2.44-61.05,3.1c-6.57,0.21-13.02,2-19.64,1.35c-2.42-0.24-5.6,0.53-6.66-2.19
			c-0.96-2.48,1.25-4.67,2.82-6.57c12.59-15.19,25.34-30.24,38.18-45.22c14.02-16.34,28.22-32.53,42.27-48.85
			c2.62-3.04,4.9-6.57,8.79-8.32c3.28,0.4,5.6,3.48,9.11,3.26c20.18,5.11,37.62,15.74,54.03,27.93
			c24.66,18.32,43.38,41.84,56.63,69.47c11.88,24.77,18.58,50.92,20.18,78.53c2.99,51.51-11.7,97.47-41.82,138.9
			c-3.07,4.23-7.12,7.61-10.24,11.83c-2.06,2.79-2.81,5.4-1.55,8.81c8.63,23.4,17.59,46.68,26.44,70c2.19,5.77,3.56,6.04,8.12,1.99
			c10-8.89,20.15-17.6,30.29-26.33c5.03-4.33,5.13-5.98,0.67-11.21c-5.74-6.73-11.04-13.82-16.87-20.48
			c-3.54-4.04-3.58-7.41-0.2-11.97c8.1-10.92,15.36-22.43,21.04-34.87c3.97-8.71,6.34-9.74,15.42-6.89
			c7.36,2.31,14.87,4.08,22.2,6.47c4.3,1.4,6.79,0.38,7.77-4.44c2.08-10.21,5.82-20.02,7.58-30.33c0.46-2.7,1.27-5.3,3.02-7.5
			C807.37,720.8,808.77,718.06,812.01,718.63z"/>
		<path class="st2" d="M340.17,875.16c-0.86-1.04-1.71-2.07-2.57-3.11c1.15-4.37,4.65-7.14,7.28-10.48
			c2.85-3.61,3.22-6.55-0.98-9.57c-3.84-2.76-7.24-6.12-10.89-9.14c-2.73-2.25-3.9-3.83-0.72-7.32
			c7.27-7.99,13.77-16.69,20.64-25.05c2.37-2.88,3.09-5.12,0.26-8.67c-8.03-10.05-14.31-21.3-20.04-32.8
			c-1.87-3.74-3.9-4.68-7.95-3.44c-10.1,3.1-20.39,5.58-30.51,8.63c-3.73,1.12-4.89-0.48-5.67-3.53
			c-7.71-29.96-15.38-59.93-23.23-89.85c-0.99-3.78,0.71-4.75,3.74-5.58c10.22-2.79,20.35-5.9,30.6-8.52
			c3.83-0.98,4.66-2.41,4.54-6.51c-0.36-13.08-0.51-26.23,1.76-39.22c0.73-4.18-0.04-6.35-4.73-7.83
			c-9.89-3.12-19.42-7.36-29.18-10.93c-3.26-1.19-4.78-2.28-3.34-6.26c7.54-20.84,14.79-41.78,22.08-62.7
			c2.67-7.68,5.29-15.37,7.74-23.12c1.2-3.82,2.3-5.69,7.09-3.67c9.75,4.11,19.96,7.13,29.83,11c3.54,1.39,5.58,0.57,7.24-2.42
			c6.63-11.9,15.21-22.39,23.93-32.74c1.6-1.9,1.9-2.88,0.43-4.97c-6.48-9.24-12.62-18.72-19.18-27.9
			c-2.58-3.61-2.93-5.88,1.09-8.79c23.44-16.96,46.76-34.08,70.01-51.3c3.84-2.84,5.66-3.16,8.45,1.64
			c5.44,9.34,11.95,18.07,18,27.05c1.39,2.06,2.91,3.08,5.61,1.97c12.73-5.22,25.64-9.97,39.18-12.68c3.04-0.61,3.63-2.09,3.57-5.17
			c-0.22-11.31,0.26-22.64,0-33.94c-0.09-4.12,0.81-5.51,5.13-5.48c26.97,0.21,53.94,0.01,80.91,0.31
			c5.05,0.06,8.74-1.03,11.21-5.47c2.81,0.22,3.06,2.33,3.31,4.45c-2.02,7.19-7.15,12.59-11.21,18.49
			c-20.34,29.5-40.93,58.83-61.18,88.38c-17.18,25.07-34.21,50.24-51.36,75.33c-13.95,20.41-28.14,40.65-41.77,61.28
			c-1.21,1.83-2.71,3.53-3.59,6.46c6.8-0.16,13.08,0.24,19.35-0.3c14.21-1.21,28.43-2.09,42.69-2.58
			c12.43-0.43,24.87-1.08,37.27-2.38c3.85-0.4,9.15-2.09,11.27,1.96c1.69,3.23-2.49,6.42-4.57,9.21
			c-27.87,37.49-55.2,75.38-82.95,112.95c-24.79,33.56-49.26,67.35-74.08,100.89c-9.57,12.93-18.39,26.43-28.99,38.59
			C344.07,872.18,342.71,874.34,340.17,875.16z"/>
		<path class="st1" d="M593.98,361.61c-0.82-1.34-1.64-2.69-2.46-4.03c6.62-9.93,13.25-19.85,19.87-29.78
			c1.44-2.16,3.61-1.42,5.58-1.43c20.61-0.05,41.22-0.11,61.83-0.11c6.55,0,11.59-4.3,12.38-10.5c0.35-2.72-1.87-2.86-3.28-3.44
			c-16.31-6.73-32.98-12.48-49.93-17.35c-20.9-6.01-42.16-10.3-63.79-12.87c-28.47-3.38-56.76-2.9-85.18,1.1
			c-28.34,3.99-55.48,12.1-82.35,21.48c-2.13,0.74-4.2,1.64-6.27,2.54c-10.75,4.71-11.49,5.32-4.1,14.59
			c10.82,13.59,3.54,32.54-11.78,38.66c-38.63,15.44-76.88,31.83-115.73,48.02c-0.95-5.63,1.82-10.05,2.84-14.72
			c1.79-8.17,4.05-16.25,6.39-24.28c1.15-3.93,0.77-5.6-3.98-5.52c-13.58,0.22-27.17-0.04-40.76-0.03c-2.49,0-5.39,0.81-6.26-2.43
			c-0.78-2.95,2.26-3.66,3.98-4.78c22.74-14.75,45.48-29.51,68.4-43.98c4.3-2.71,5.44-5.04,2.67-9.56
			c-3.52-5.76-6.03-12.17-9.82-17.72c-2.61-3.83-1.54-5.39,1.79-7.28c20.59-11.68,41.51-22.76,63.35-31.88
			c25.01-10.45,50.71-18.99,77.14-25.16c38.27-8.94,77.1-13.33,116.34-11.64c35.52,1.53,70.57,6.84,105.03,16.21
			c42.74,11.61,83.52,27.84,122.58,48.63c4.58,2.44,9.11,5.02,13.79,7.27c2.01,0.97,2.52,1.92,1.19,4.15
			c-3.45,5.8-6.1,12.12-9.91,17.65c-3.03,4.41-1.73,6.49,2.13,8.92c17.01,10.72,33.94,21.59,50.89,32.41
			c6.27,4,12.56,7.99,18.79,12.07c1.66,1.09,3.59,2.29,2.68,4.86c-0.87,2.46-3.11,1.51-4.69,1.54c-13.99,0.23-27.99,0.48-41.99,0.3
			c-4.36-0.06-5.71,0.37-4.31,5.19c3.69,12.74,6.79,25.65,10.49,39.88c-10.97-4.57-20.99-8.8-31.05-12.93
			c-27.34-11.25-54.7-22.46-82.06-33.68c-1.88-0.77-4.17-1.07-5.58-2.35c-6.44-5.82-10.76-3.58-15.4,2.67
			c-5.51,7.41-11.89,14.18-18,21.12c-1.62,1.83-2,3.41-0.33,5.29c-5.99,5.93-7.87,6.07-11.77,0.93c0.47-3.61,2.97-6.02,5.13-8.63
			c13.04-15.69,26.88-30.7,39.85-46.58c-1.37-1.71-3.04-0.97-4.44-0.98c-23.16-0.04-46.32,0.12-69.47-0.14
			c-6.12-0.07-10.22,1.68-13.33,7.19c-3.21,5.7-7.41,10.86-11.11,16.29C598.55,358.9,597.35,361.72,593.98,361.61z"/>
		<path class="st3" d="M653.75,390.13c4.48,4.95,7.54-1.32,11.37-1.44c15.58,11.03,31.18,22.01,46.72,33.09
			c8.99,6.41,17.81,13.05,26.85,19.41c2.78,1.96,3.91,3.12,1.4,6.58c-6.76,9.3-12.8,19.12-19.42,28.53
			c-1.8,2.55-1.89,4.08,0.19,6.38c8.91,9.88,16.9,20.46,23.56,32.01c1.73,3,3.47,4.31,7.59,2.54c9.69-4.16,19.92-7.07,29.68-11.06
			c4.1-1.68,5.26-0.52,6.49,3.12c6.87,20.26,13.93,40.45,20.93,60.66c2.8,8.08,5.27,16.29,8.55,24.17c1.94,4.65,0.76,6.16-3.69,7.72
			c-9.99,3.51-19.67,7.92-29.67,11.42c-3.33,1.17-4.14,2.47-3.7,5.73c1.81,13.21,2.74,26.48,1.76,39.82
			c-0.32,4.42,1.15,6.82,5.79,7.92c9.88,2.35,19.58,5.44,29.44,7.89c3.76,0.93,5.44,2.11,4.15,6.35c-2.56,8.4-3.82,17.17-7.09,25.38
			c-3.3,3.53-1.17,8.26-2.68,12.19c0,0,0.01,0.07,0.01,0.07c-1.86,1.33-3.71,2.65-5.57,3.98c-2.04-2.26-0.87-4.77-0.42-7.13
			c1.7-8.92,4.4-17.6,6.36-26.46c1.73-7.81,1.75-8.11-6.07-10.49c-7.38-2.25-14.93-3.88-22.35-5.96c-8.26-2.31-8.65-3.37-8.06-11.95
			c0.97-14.08-1.23-28.04-1.86-42.06c-0.34-7.63-0.08-8.84,7.02-11.76c7.76-3.19,15.86-5.45,23.56-8.88
			c4.36-1.94,5.97-4.33,4.24-8.95c-8.74-23.37-16.49-47.09-24.8-70.61c-1.3-3.68-3.06-4.47-6.59-3.03
			c-8.4,3.43-17.26,5.65-25.47,9.57c-4.35,2.08-7.79,1.46-10.54-2.74c-8.2-12.52-16.24-25.16-26.53-36.13
			c-3.8-4.05-3.54-7.75-0.68-12.17c4.93-7.62,10.19-15.01,15.13-22.63c2.49-3.84,2.1-6.4-1.61-9.14
			c-19.16-14.15-38.28-28.34-57.9-41.87c-5.69-3.92-6.88-3.77-10.83,2.1c-4.43,6.59-8.62,13.34-13.13,19.88
			c-2.72,3.95-5.86,7-11.3,5.34c-2.45-0.75-4.47,0.34-6.09,2.11c-8.6,9.35-16.61,19.2-24.71,28.98c-1.24,1.5-0.93,3.47-1.7,5.11
			c-3.81,0.74-6.06-1.62-8.23-4.15c-0.63-3.57,2.45-5.08,4.2-7.23c9.09-11.18,19-21.67,27.93-32.99c1.38-1.75,2.98-3.43,5.42-3.75
			c1.95,0.37,2.85,2.88,5.16,2.53c5.02-2.61,6.56-7.94,9.57-12.11c1.09-2,2.88-3.38,4.39-5.01c2.56-2.78,4.14-5.74,1.32-9.3
			C652.06,390.69,652.52,389.96,653.75,390.13z"/>
		<path class="st1" d="M812,718.56c-0.13-2.39,0.26-4.97-0.52-7.13c-1.27-3.52,0.94-4.15,3.2-5.06
			C814.4,710.57,813.51,714.63,812,718.56z"/>
		<path class="st4" d="M631.93,415.7c-11.28,11.1-20.44,24.07-31.2,35.63c-2.43,2.61-4.57,5.5-6.84,8.26
			c-30.93,35.97-61.86,71.94-94.1,109.44c51.81-2.92,101.76-5.73,151.72-8.54c0.47,0.65,0.94,1.31,1.41,1.96
			c-6.72,6.23-13.68,12.22-20.13,18.73c-52.91,53.46-105.75,106.99-158.55,160.55c-39.73,40.3-79.38,80.68-119.06,121.02
			c-3.33,3.38-6.56,6.87-10.07,10.05c-1.29,1.17-2.3,3.7-4.94,2.35c15.89-19.48,30.05-40.25,45-60.42
			c27.91-37.65,55.63-75.45,83.33-113.26c22.46-30.66,44.79-61.42,68.06-93.35c-38.51,2.02-75.87,3.98-114.41,6.01
			c5.13-10.24,11.56-18.29,17.28-26.74c16.36-24.19,32.97-48.21,49.51-72.27c19.49-28.36,39.07-56.67,58.51-85.07
			c15.58-22.76,31.02-45.63,46.53-68.45c5.73-8.11,11.71-16.07,17.1-24.41c2.58-3.99,5.17-5.98,10.25-5.92
			c26.76,0.28,53.52,0.13,81.75,0.13c-16.93,20.16-33.13,39.44-49.33,58.72c-0.44,0.42-0.89,0.83-1.33,1.25
			C647.16,400.81,640.19,408.8,631.93,415.7z"/>
		<path class="st5" d="M602.12,463.74c-1.37-1.22-3.64-1.79-1.23-4.5c9.48-10.66,18.78-21.47,27.98-32.37
			c2.06-2.45,4.17-2.76,6.45-1.11c3.73,2.7,5.69,0.65,7.64-2.26c5.8-8.64,11.69-17.22,17.47-25.89c2.12-3.18,3.78-3.99,7.47-1.29
			c20.57,15.11,41.41,29.84,62.16,44.71c3.93,2.81,4.97,5.5,1.61,10.05c-6.18,8.36-11.46,17.37-17.33,25.97
			c-1.53,2.24-1.82,3.52,0.18,5.75c10.89,12.14,20.44,25.29,28.71,39.35c1.8,3.07,4.21,2.85,7.02,1.75
			c9.69-3.79,19.46-7.38,29.07-11.37c3.4-1.41,4.58-0.88,5.79,2.67c8.21,24.21,16.65,48.34,25.1,72.47
			c2.96,8.45,3.11,8.5-5.06,11.78c-8.19,3.29-16.38,6.63-24.74,9.42c-4.02,1.34-5.24,3.23-4.83,7.39
			c1.58,16.01,2.93,32.07,1.37,48.15c-0.41,4.24,2.12,4.97,5.03,5.82c9.98,2.91,20.15,5.09,30.03,8.42c3.97,1.34,4.17,2.78,3.29,6.3
			c-3.13,12.5-5.93,25.08-8.86,37.64c-3.54,13.31-7.44,26.54-10.42,39.98c-1.13,5.07-3.04,5.73-7.32,4.44
			c-9.29-2.78-18.68-5.28-27.95-8.12c-4.18-1.28-6.48-0.47-8.38,3.86c-6.3,14.35-14.68,27.54-24.06,40.05
			c-1.87,2.49-1.81,3.92,0.21,6.29c6.91,8.09,13.44,16.5,20.28,24.66c2.74,3.27,3.39,5.7-0.4,8.88
			c-12.12,10.19-23.99,20.68-35.94,31.07c-2.88,2.5-4.62,3.46-6.44-1.48c-9.33-25.27-19.04-50.39-28.73-75.53
			c-1.36-3.53-0.23-5.76,2.19-8.32c20.45-21.61,34.6-47.06,43.29-75.27c10.85-35.25,12.74-71.15,4.54-107.38
			c-8.72-38.54-26.52-72.08-55-99.59C652.19,486.71,628.94,472.21,602.12,463.74z"/>
		<path class="st6" d="M730.59,953.19c-9.58-4.89-17.22-9.7-25.46-13.49c-36.9-16.95-74.64-20.57-113.8-8.83
			c-11.98,3.59-23.47,8.19-34.58,13.75c-4.49,2.24-5.15,1.13-5.15-3.35c0.04-42.16-0.08-84.32-0.14-126.48
			c-0.01-8.38,0.22-16.76,0.04-25.14c-0.07-3.27,0.81-4.81,4.22-5.49c36.86-7.38,73.35-7.29,109.37,4.72
			c3.31,1.1,5.24,2.82,6.48,6.13c11.35,30.29,22.95,60.49,34.29,90.78C714.08,907.73,722.01,929.77,730.59,953.19z"/>
		<path class="st7" d="M369.35,953.57c6.14-17.02,11.47-32.11,17.03-47.13c13.03-35.21,26.16-70.38,39.28-105.55
			c2.49-6.68,6.82-11.25,13.96-13.49c33.8-10.63,67.9-9.7,102.26-3.47c4.4,0.8,5.21,2.8,5.2,6.84c-0.1,42.66-0.01,85.32,0.03,127.98
			c0.01,7.26-0.18,14.54,0.14,21.79c0.22,5.01-0.27,6.36-5.65,3.69c-21.45-10.63-44.01-18.08-68.03-19.87
			c-33.89-2.52-64.99,6.76-94.18,23.43C376.66,949.35,373.92,950.94,369.35,953.57z"/>
		<path class="st8" d="M717.35,612.41c-6.15,0-12.17,0.25-18.16-0.09c-4.2-0.24-5.41,1.1-5.39,5.32c0.16,28.6-0.11,57.21,0.18,85.81
			c0.06,5.68-1.46,7.11-7.1,7.1c-55.38-0.13-110.76,0.04-166.14,0.1c-2.18,0-4.36-0.23-6.68-0.36c0.49-3.18,2.65-4.57,4.34-6.28
			c34.4-35.03,68.76-70.09,103.22-105.05c11.44-11.61,23.22-22.89,34.65-34.5c3.24-3.29,5.29-3.3,8.83-0.11
			c16.16,14.54,32.67,28.69,48.97,43.08C715.3,608.52,717.06,609.48,717.35,612.41z"/>
		<path class="st9" d="M722.43,607.92c-11.36-9.86-21.59-18.66-31.72-27.55c-24.93-21.88-49.81-43.84-74.74-65.72
			c-10.86-9.53-21.75-19.03-32.77-28.36c-2.42-2.05-3.07-3.64-0.64-5.9c0.17-0.15,0.37-0.27,0.51-0.44
			c12.64-15.42,13.57-15.38,35.3-4.7c22.35,10.98,42.27,25.1,58.99,43.65C700.07,544.07,714.78,573.26,722.43,607.92z"/>
		<path class="st10" d="M511.41,563.63c11.69-13.85,21.83-25.97,32.1-37.99c9.86-11.55,19.87-22.97,29.76-34.5
			c1.92-2.24,3.31-4.09,6.5-1.3c24.29,21.29,48.69,42.45,74.72,65.09C606.09,557.87,559.79,560.68,511.41,563.63z"/>
		<path class="st11" d="M724.79,964.33c-17.01-8.15-33.79-15.85-52.02-20.13c-18.11-4.25-36.34-4.74-54.7-2.88
			c-22.15,2.24-42.82,9.42-62.41,19.76c-4.52,2.39-8.5,1.96-12.66-0.25c-33.31-17.65-68.63-24.31-105.94-18.58
			c-19.87,3.06-38.38,10.45-55.99,20.1c-1.89,1.03-3.84,1.95-6.01,3.04c0.86-8.38,5.35-12.84,12.28-16.53
			c43.91-23.35,88.8-26.18,135.05-7.74c8.64,3.44,17.23,6.87,24.81,12.36c1.76,1.27,2.99,0.7,4.74-0.31
			c48.98-28.21,99.48-32.53,151.57-9.17c5.56,2.49,10.83,5.66,16.09,8.74C723.85,955.25,722.73,960.38,724.79,964.33z"/>
		<path class="st12" d="M698.68,663.96c0-13.82,0.07-27.64-0.06-41.46c-0.03-3.55,0.69-5.54,4.82-5.05
			c2.91,0.34,5.89,0.06,8.83,0.09c12.73,0.11,12.61,0.13,13.82,12.95c2.33,24.6,0.4,48.82-5.59,72.8c-1.4,5.58-3.79,7.56-9.69,7.38
			c-12.11-0.37-12.13,0-12.13-12.03C698.68,687.08,698.69,675.52,698.68,663.96z"/>
		<path class="st13" d="M563.51,715.96c9.08,0,18.17,0.17,27.24-0.08c3.92-0.11,5.11,1.2,4.99,5.05
			c-0.23,7.71-0.15,15.44,0.06,23.15c0.09,3.19-0.84,4.39-4.2,4.37c-18.61-0.11-37.23-0.09-55.84,0.09
			c-3.28,0.03-3.71-1.46-3.7-4.07c0.01-8.17,0-16.34-0.2-24.5c-0.08-3.3,1.16-4.22,4.41-4.14c9.07,0.22,18.16,0.08,27.24,0.08
			C563.51,715.93,563.51,715.95,563.51,715.96z"/>
		<path class="st14" d="M632.37,748.47c-8.84,0-17.67-0.14-26.51,0.07c-3.63,0.09-5.37-0.69-5.22-4.8
			c0.27-7.7,0.19-15.41-0.02-23.11c-0.09-3.33,0.59-4.87,4.4-4.84c18.13,0.17,36.26,0.14,54.39,0c3.44-0.03,4.2,1.35,4.16,4.42
			c-0.1,7.93-0.16,15.87,0.19,23.79c0.18,4-1.68,4.41-4.88,4.36c-8.84-0.13-17.68-0.05-26.52-0.05
			C632.37,748.37,632.37,748.42,632.37,748.47z"/>
		<path class="st15" d="M666.64,752.84c8.82-0.01,17.65-0.05,26.47,0.03c1.69,0.01,4.01-0.93,4.84,1.23
			c0.7,1.81-0.98,3.24-1.95,4.75c-5.14,7.99-11.05,15.39-16.96,22.82c-3.2,4.02-6.89,4.78-11.33,3.13
			c-9.13-3.38-18.44-6.19-28.11-7.24c-4.38-0.48-5.1-2.49-4.82-6.16c0.46-5.99-2.69-13.7,1.23-17.52c3.61-3.51,11.21-0.78,17.05-1
			C657.6,752.71,662.12,752.84,666.64,752.84z"/>
		<path class="st7" d="M529.95,753.02c8.85,0,17.7,0.11,26.54-0.05c3.66-0.07,5.49,0.89,5.04,4.96c-0.34,3.14-0.07,6.34-0.08,9.52
			c-0.04,11.03-2.17,13.83-13.07,12.39c-15.72-2.07-31.71-2.68-47.12-5.79c-8-1.61-1.73-11.59-3.3-17.58
			c-1.03-3.94,2.29-3.46,4.76-3.46C511.81,753.02,520.88,753.02,529.95,753.02z"/>
		<path class="st7" d="M598.45,752.9c8.61,0,17.22,0.16,25.83-0.07c3.93-0.1,5.99,0.8,5.53,5.22c-0.3,2.91,0.01,5.88,0.01,8.83
			c-0.01,9.32-0.02,9.35-8.92,8.39c-15.64-1.68-31.21-0.65-46.7,1.45c-5.35,0.72-7.94,0.61-7.81-6.27
			c0.33-17.6-0.07-17.6,17.79-17.49c4.76,0.03,9.52,0,14.27,0C598.45,752.93,598.45,752.92,598.45,752.9z"/>
		<path class="st16" d="M417.43,808.14c-3.61,9.88-6.72,18.49-9.89,27.07c-5.64,15.24-11.37,30.45-16.93,45.73
			c-1.21,3.32-2.25,3.94-5.05,1.27c-5.72-5.45-11.54-10.85-17.71-15.78c-4.02-3.21-4.09-5.68-0.58-9.16
			c10.14-10.02,20.07-20.26,30.21-30.28C403.53,821.02,409.85,815.29,417.43,808.14z"/>
		<path class="st15" d="M692.77,715.79c6.35,0,12.7,0.14,19.04-0.05c3.67-0.11,5.25,0.77,3.39,4.54c-0.4,0.81-0.67,1.68-1.02,2.52
			c-3.55,8.56-5.24,20.53-12.41,24.16c-7.99,4.04-19.46,1.13-29.41,1.42c-3.3,0.1-3.65-1.71-3.64-4.25
			c0.02-8.15,0.11-16.31-0.12-24.45c-0.08-2.99,0.82-3.99,3.77-3.93C679.17,715.89,685.97,715.79,692.77,715.79z"/>
		<path class="st7" d="M475.23,746.2c9.93-9.49,19.85-18.99,29.81-28.44c1.56-1.48,19.32-2.67,21.07-1.55
			c1.4,0.9,1.12,2.33,1.12,3.65c0.04,8.14,0,16.27,0.11,24.41c0.04,2.62-0.39,4.24-3.6,4.22c-15.73-0.1-31.46-0.05-47.2-0.05
			C476.1,747.7,475.67,746.95,475.23,746.2z"/>
		<path class="st15" d="M443.41,778.27c5.99-5.5,12.4-10.62,17.85-16.62c5.69-6.26,11.66-9.45,20.52-8.8
			c11.5,0.85,11.55,0.16,11.5,11.6c-0.01,1.36-0.2,2.75,0.02,4.07c0.8,4.74-1.11,6.1-5.84,6.25c-14.44,0.48-28.73,2.58-42.9,5.54
			C444.18,779.64,443.8,778.95,443.41,778.27z"/>
		<path class="st17" d="M540.8,368.18c11.81,0,23.61-0.02,35.42,0.03c1.98,0.01,4.65-0.86,5.77,0.85c1.38,2.11-1.34,3.48-2.41,5.04
			c-17.45,25.36-34.99,50.66-52.39,76.05c-2.35,3.43-5.07,5.42-9.27,5.98c-59.18,7.98-103.05,39.72-133.43,89.68
			c-30.33,49.88-36.77,103.88-21.6,160.44c6.97,26,18.63,49.53,35.4,70.49c3.68,4.61,3.33,7.67-0.17,12.26
			c-14.41,18.91-28.47,38.1-42.4,57.37c-3.03,4.19-4.78,5.59-9.2,1.23c-9.57-9.42-9.82-9.13-1.22-19.66
			c5.01-6.13,9.83-12.42,14.94-18.47c1.76-2.08,2.19-3.65,0.45-5.92c-9.8-12.79-18.32-26.36-24.97-41.06
			c-1.6-3.55-3.56-4.83-7.88-3.3c-9.15,3.24-18.58,5.7-27.93,8.35c-3.82,1.08-6.04,0.96-7.35-4.38c-6.2-25.3-13.17-50.4-19.97-75.55
			c-1.27-4.71-1.6-7.72,4.79-8.99c9.5-1.89,18.69-5.26,28.07-7.79c3.61-0.97,5.5-2.65,4.99-6.65c-1.99-15.67-0.25-31.25,1.58-46.79
			c0.48-4.11-0.54-6.16-4.56-7.56c-9.41-3.27-18.63-7.09-27.97-10.53c-3.6-1.33-4.63-2.66-3.11-6.92
			c9.11-25.61,17.79-51.37,26.43-77.14c1.27-3.79,2.83-3.51,5.95-2.24c9.24,3.75,18.69,6.99,27.96,10.67
			c3.92,1.55,6.36,1.47,8.82-2.77c7.52-12.94,16.19-25.14,26.45-36.1c2.98-3.19,3.37-5.57,0.6-9.35
			c-5.9-8.03-10.69-16.89-16.82-24.71c-3.85-4.91-1.45-7.2,1.99-9.75c12.91-9.55,25.89-19.01,38.84-28.5
			c7.66-5.62,15.38-11.16,22.96-16.9c2.35-1.78,3.73-2.62,5.79,0.61c6.07,9.53,12.64,18.74,18.78,28.23
			c1.98,3.06,4.22,3.05,6.94,1.76c13.98-6.66,28.58-11.47,43.75-14.51c3.39-0.68,4.16-2.56,4.11-5.77
			c-0.17-10.44,0.23-20.9-0.17-31.33c-0.2-5.27,1.7-6.6,6.63-6.48C517.18,368.37,528.99,368.18,540.8,368.18z"/>
		<path class="st18" d="M393.82,672.25c-0.09-17.69-0.38-35.38-0.15-53.06c0.07-4.91-1.35-6.23-6.08-5.87
			c-5.79,0.44-11.64,0.11-17.47,0.11c-0.29-0.62-0.58-1.25-0.87-1.87c38.66-34.02,77.33-68.04,115.99-102.07
			c0.31,0.27,0.63,0.53,0.94,0.8c-24.5,35.85-49.01,71.7-74.45,108.91c23.74-1.01,45.77-1.95,67.8-2.89
			c2.07,2.15,4.83,4.13,2.41,7.48c1.52-0.13,1.73-2.63,3.45-3.36c2.95-1.26,5.54-0.5,5.19,2.74c-0.55,5.16,1.2,10.17-0.15,15.48
			c-1.07,4.24-0.89,7.94-6.86,7.49c-2.42-0.18-2.84,2.38-2.93,4.58c-0.32,7.82-3.34,13.13-11.85,14.93
			c-4.45,0.94-9.1,2.75-12.74,5.78c-3.42,2.85-6.56,2.56-8.76-0.63c-5.33-7.73-13.32-9.13-21.53-9.27
			c-6.95-0.12-13.19,4.16-20.26,4.59c-2.09,0.13-1.96,3.35-3.19,4.91C399.94,674.07,397.37,676.92,393.82,672.25z"/>
		<path class="st19" d="M365.44,608.08c16.1-80.16,84.74-139.93,153.34-146.72c-9.87,17.28-22.1,32.15-37.28,44.99
			c-25.14,21.26-49.47,43.49-74.19,65.25C393.81,583.48,380.21,595.23,365.44,608.08z"/>
		<path class="st20" d="M393.82,672.25c4.95,2.58,7.38,0.27,7.94-4.49c0.42-3.56,1.87-4.31,5.37-4.13c3.5,0.18,7.3-0.37,10.55-1.66
			c11.07-4.38,22.74-1.68,30.55,7.58c2.41,2.86,4.22,4.31,6.93-0.23c2.37-3.98,7.83-3.27,11.74-4.91
			c10.71-4.49,10.98-3.84,11.42-15.72c0.14-3.89,3.15-5.3,9.87-4.64c0.09-6.21,1.91-12.36,0.53-18.66
			c-0.27-1.25,1.91-3.01-0.04-4.17c-2.14-1.28-3.21,0.84-4.39,2.11c-0.89,0.95-1.22,2.54-3.69,2.29c2.21-3.44-0.44-6.17-1.07-9.28
			c1.25-0.03,2.49-0.06,3.74-0.09c6.39-1.53,12.98,0.44,19.36-1.11c2.52-0.58,5.06-0.82,7.62-0.28c4.32,0.06,8.96-2.64,12.8,1.52
			c-1.08,2.37-2.34,4.5-4.02,6.63c-10.65,13.45-20.56,27.51-30.38,41.55c-9.67,13.82-20.12,27.08-29.5,41.09
			c-2.34,3.5-4.97,5.23-9.43,5.17c-17-0.22-34-0.09-51,0.06c-3.41,0.03-5.54-0.34-5.4-4.63
			C393.68,694.9,393.68,683.57,393.82,672.25z"/>
		<path class="st21" d="M388.67,665.05c0,13.75-0.06,27.51,0.05,41.26c0.02,3.01-0.58,4.7-4.06,4.56c-4.05-0.17-8.13,0-12.18,0.15
			c-3.81,0.14-4.1-2.58-4.79-5.29c-5.83-22.88-8.47-46.07-6.62-69.66c1.43-18.23,1.56-18.11,19.82-18.36
			c5.52-0.08,8.43,0.56,7.99,7.62c-0.81,13.2-0.23,26.48-0.23,39.73C388.64,665.05,388.66,665.05,388.67,665.05z"/>
		<path class="st22" d="M451.5,716.06c-7.88,10.78-15.13,20.69-22.36,30.61c-1.21,1.66-2.84,1.94-4.75,1.93
			c-8.14-0.06-16.28-0.19-24.41,0.06c-3.44,0.11-4.22-1.19-4.15-4.3c0.18-7.91,0.09-15.82,0.13-23.73c0.01-2.24-0.39-4.62,3.19-4.61
			C416.22,716.1,433.29,716.06,451.5,716.06z"/>
		<path class="st23" d="M388.75,753.56c11.89,0,22.98,0,35.06,0c-5.77,8.07-11.06,15.47-16.37,22.86c-1.55,2.16-2.68,0.69-3.64-0.59
			C398.59,768.88,392.93,762.21,388.75,753.56z"/>
		<path class="st24" d="M390.98,732.18c0,4.07,0.06,8.15-0.02,12.22c-0.03,1.64,0.77,3.88-2.06,4.15c-1.82,0.17-3.68,0.3-4.67-1.78
			c-4.37-9.16-9.14-18.14-12.23-27.86c-0.67-2.11,0.13-2.97,2.24-2.88c0.45,0.02,0.91,0.01,1.36-0.01
			C390.94,715.16,390.94,715.16,390.98,732.18z"/>
		<path class="st18" d="M502.65,615.12c-6.33,2.55-12.91,0.78-19.36,1.11C489.67,614.6,496.18,615.22,502.65,615.12z"/>
		<path class="st18" d="M523.06,616.35c-3.99-2.77-8.58-0.6-12.79-1.52c3.99-1.72,8.19-0.74,12.29-0.86
			C525.22,613.89,524.92,615.11,523.06,616.35z"/>
		<path class="st25" d="M528.55,214.49c48.89-0.61,96.57,6.62,143.32,20.98c33.21,10.2,65.24,23.07,96.06,39.04
			c5.21,2.7,10.39,5.46,15.7,7.97c3.32,1.57,4.2,3.38,2.29,6.8c-8.25,14.83-16.39,29.72-24.43,44.66c-1.62,3.01-3.05,3.53-6.32,1.97
			c-21.04-10.02-42.37-19.39-64.06-27.92c-59.06-23.23-119.67-37.89-183.75-32.16c-36.11,3.23-70.83,12.42-104.68,25.32
			c-25.2,9.61-49.43,21.21-73.24,33.75c-3.56,1.87-4.81,0.71-6.26-2c-8.31-15.57-16.51-31.21-25.03-46.67
			c-1.81-3.28-0.37-4.09,2.06-5.51c24.66-14.44,50.39-26.55,77.08-36.79c33.15-12.73,67.3-21.45,102.42-26.06
			C495.86,215.75,512.2,214.61,528.55,214.49z"/>
		<path class="st6" d="M275.02,400.55c3.41-12.99,6.27-24.77,9.68-36.39c1.22-4.14,0.39-5.01-3.69-4.96
			c-14.02,0.18-28.05,0.07-43.23,0.07c4.44-5.15,9.76-7.14,14.27-10.12c16.8-11.1,33.82-21.86,50.6-32.98
			c3.52-2.33,5.4-2.25,7.32,1.63c3.62,7.28,8,14.22,11.23,21.66c7.87,18.12,15.76,21.23,34.82,11.29
			c10.61-5.54,20.66-12.17,32.31-15.5c2.57-0.73,5.87-2.5,7.68-0.62c2.05,2.13,0.28,5.48-0.58,8.26c-1.64,5.27-4.79,9.17-9.95,11.31
			c-29.63,12.33-59.28,24.65-88.9,37.01C289.78,394.05,283.05,397.07,275.02,400.55z"/>
		<path class="st26" d="M846.65,359c-13.55,0-27.11,0.28-40.65-0.13c-5.96-0.18-6.5,1.36-4.84,6.71c3.41,10.97,5.99,22.2,9.09,33.98
			c-4.55-0.01-7.87-2.62-11.4-4.06c-31.79-13.02-63.49-26.26-95.21-39.48c-11.1-4.63-10.84-4.49-3.46-13.48
			c3.41-4.15,6.04-4.13,10.65-1.9c9.15,4.42,17.29,10.81,27.17,13.78c11.49,3.45,16.62,1.27,22.64-9.55
			c5.17-9.28,10.46-18.49,15.65-27.76c1.16-2.07,1.95-4.21,5.01-2.22c21.92,14.22,43.89,28.38,65.84,42.55
			C846.98,357.97,846.82,358.49,846.65,359z"/>
		<path class="st27" d="M339.52,351.77c-5.81-0.34-8.73-3.76-10.77-8.42c-0.98-2.24,0.61-2.83,1.93-3.56
			c16.79-9.26,34.2-17.26,51.61-25.26c1.76-0.81,3.44-1.21,4.64,0.95c2.18,3.94,6.35,7.96,6.14,11.75
			c-0.26,4.74-6.79,3.4-10.45,4.61c-9.77,3.22-18.15,8.97-27.17,13.54C350.21,348.04,345.22,351.18,339.52,351.77z"/>
		<path class="st28" d="M712.64,326.25c-6.51,0-13.37,0-20.4,0c4.2-11.31,4.23-11.31,14.02-6.92c14.61,6.55,29.28,12.99,43.8,19.72
			c2.16,1,6.57,1.15,5.72,4.44c-0.99,3.81-3.87,7.11-8.55,7.71c-4.01,0.52-7.67-0.73-11.07-2.46c-8.45-4.29-17-8.46-25.06-13.42
			C704.96,331.52,713.55,330.37,712.64,326.25z"/>
		<path class="st1" d="M631.93,415.7c6.26-8.59,13.4-16.43,20.49-24.32c0.76,2.39,3.25,2.75,5.3,3.84
			c-3.69,4.03-7.05,7.69-10.41,11.35c-4.25,4.05-6.72,9.54-11.02,13.54C633.34,420.12,632.18,418.36,631.93,415.7z"/>
		<path class="st29" d="M636.29,420.11c1.96-5.91,6.01-10.12,11.02-13.54C643.8,411.22,643.16,418.2,636.29,420.11z"/>
		<path class="st30" d="M617.7,906c12.45-1.09,29.48,0.81,46.39,3.9c10.98,2,21.78,4.8,32.26,8.75c1.8,0.68,2.96,1.76,2.09,3.45
			c-0.76,1.49-2.35,0.59-3.62,0.1c-30.4-11.77-61.98-14.69-94.11-11.29c-9.14,0.97-18.57,2.31-27.12,6.57
			c-1.4,0.7-3.52,2.5-4.54-0.21c-0.95-2.51,1.64-2.89,3.2-3.38C585.5,909.76,598.97,906.73,617.7,906z"/>
		<path class="st30" d="M628.39,886.93c20.72,0.55,40.92,3.89,60.57,10.38c1.76,0.58,4.82,1,4.05,3.5c-1,3.29-3.48,0.56-4.99,0.06
			c-29.49-9.88-59.44-12.75-90.18-6.98c-7.94,1.49-15.88,2.65-23.14,6.43c-1.43,0.75-3.18,1.49-4.04-0.54
			c-0.93-2.21,1.18-2.58,2.56-3.09c10.53-3.88,21.38-6.52,32.49-7.88C613.24,887.9,620.83,887.54,628.39,886.93z"/>
		<path class="st31" d="M629.07,869.38c15.57-0.6,32.43,2.71,49.03,7.11c3.3,0.88,10.52,1.54,9.31,5.1
			c-1.6,4.66-6.61-0.57-9.58-1.47c-25.04-7.59-50.27-8.87-76.08-5.21c-10.9,1.55-21.38,3.97-31.5,8.18c-1.14,0.48-2.7,1.74-3.5-0.01
			c-1.07-2.35,0.95-3.09,2.69-3.77c10.26-4.01,20.98-6.33,31.78-8.11C609.81,869.77,618.53,869.02,629.07,869.38z"/>
		<path class="st32" d="M616.61,851.29c17.2-0.85,34.04,1.25,50.6,5.79c3.43,0.94,6.79,2.08,10.19,3.14c1.6,0.5,3.27,1.19,2.4,3.23
			c-0.7,1.64-2.31,1-3.54,0.49c-20.3-8.4-41.57-9.9-63.19-8.79c-14.78,0.76-29.17,3.36-42.81,9.36c-1.61,0.71-3.75,2.14-4.85,0.2
			c-1.26-2.22,1.15-2.87,2.81-3.55C583.74,854.86,600.11,852.71,616.61,851.29z"/>
		<path class="st33" d="M625.93,831.48c16.21,0.07,30.2,2.59,43.96,6.61c1.7,0.5,4.05,0.89,3.1,3.35c-0.75,1.95-2.76,0.9-4.17,0.43
			c-32.81-10.99-65.02-8.23-96.85,4.08c-1.69,0.65-4.25,3.04-5.3,0.51c-1.32-3.16,2.47-2.94,4.24-3.72c9-3.94,18.38-6.77,28.05-8.36
			C608.48,832.81,617.98,830.62,625.93,831.48z"/>
		<path class="st34" d="M671.86,826.61c-5.05,2.09-8.48-0.54-11.81-1.77c-29.22-10.78-58.25-10.24-87.23,0.73
			c-1.25,0.47-2.41,1.2-3.69,1.53c-1.19,0.31-2.89,1.14-3.45-0.66c-0.48-1.58,1.05-2.38,2.3-2.87c15.32-6.03,31.19-9.65,47.66-9.9
			c18.56-0.29,36.4,3.58,53.57,10.54C669.94,824.51,670.46,825.33,671.86,826.61z"/>
		<path class="st35" d="M619.69,795.94c16.57-0.14,32.72,4.01,48.47,10.05c1.18,0.45,3.03,0.84,2.32,2.61
			c-0.8,2-2.46,1.19-4.01,0.61c-17.06-6.43-34.51-10.66-52.95-10.12c-15.18,0.44-29.44,4.57-43.51,9.77
			c-1.38,0.51-3.22,1.99-4.18,0.03c-0.97-1.96,1.18-2.61,2.58-3.16C584.72,799.29,601.54,795.36,619.69,795.94z"/>
		<path class="st36" d="M480.38,905.93c13.14-0.5,29.44,2.99,45.55,7.69c1.71,0.5,4.71,0.81,3.78,3.65
			c-0.86,2.64-3.08,0.91-4.58,0.32c-18.67-7.25-38.15-8.78-57.85-7.76c-17,0.88-33.86,3.21-50.22,8.24
			c-3.99,1.23-7.87,2.8-11.79,4.23c-1.69,0.62-3.75,1.7-4.52-0.75c-0.65-2.09,1.73-2.3,3.05-2.85c14.99-6.2,30.89-8.61,46.78-11.02
			C459.19,906.39,467.86,905.82,480.38,905.93z"/>
		<path class="st31" d="M458.15,887.98c16.91-1.49,33.54-0.37,49.93,3.6c6.08,1.47,12.05,3.45,18.04,5.28
			c1.59,0.49,3.13,1.54,2.05,3.43c-0.82,1.44-2.41,0.72-3.68,0.21c-27.18-10.81-55.07-11.4-83.58-6.68
			c-10.2,1.69-20.12,3.89-29.83,7.32c-1.49,0.53-3.53,2.57-4.58-0.1c-0.96-2.42,1.73-2.93,3.2-3.43
			c12.97-4.47,26.39-7.08,39.94-8.82C452.44,888.44,455.26,886.67,458.15,887.98z"/>
		<path class="st37" d="M473.7,869.35c19.88,0.11,37.98,3.79,55.63,9.92c1.74,0.6,3.98,1.4,2.95,3.61c-1.08,2.32-3.15,0.64-4.69,0
			c-21.28-8.8-43.5-10.8-66.24-9.46c-15.88,0.93-31.49,2.95-46.22,9.44c-1.32,0.58-2.88,0.79-3.44-0.84
			c-0.75-2.15,1.21-2.56,2.63-3.12c9.85-3.89,20.23-5.81,30.57-7.59C454.75,869.62,464.79,868.91,473.7,869.35z"/>
		<path class="st38" d="M473.56,851.18c19.58-0.22,38.54,3.09,56.89,9.92c1.59,0.59,4.16,1.35,3.12,3.53
			c-0.91,1.92-3.12,0.72-4.8,0.02c-21.45-8.96-43.76-10.87-66.78-9.16c-13.32,0.99-26.08,3.44-38.44,8.37
			c-1.37,0.55-3.37,1.52-3.9-0.77c-0.57-2.47,1.84-2.71,3.48-3.27C439.48,854.28,456.28,851.43,473.56,851.18z"/>
		<path class="st39" d="M532.47,845.66c-0.64,2.99-2.59,1.43-4.09,0.95c-8.07-2.58-15.97-5.94-24.21-7.73
			c-24.44-5.3-48.85-5.71-72.87,2.64c-1.61,0.56-3.92,2.93-4.91-0.35c-0.7-2.32,1.83-2.67,3.53-3.19
			c33.76-10.35,66.85-7.86,99.38,5.2C531.54,844.08,532.31,844.72,532.47,845.66z"/>
		<path class="st40" d="M427.68,826.55c5.82-4.61,12.35-6.17,18.45-7.88c22.43-6.3,45.13-6.43,67.75-0.86
			c5.37,1.32,10.51,3.59,15.74,5.49c1.44,0.52,3.61,1.06,3.02,2.99c-0.81,2.67-3.04,1.1-4.44,0.51c-9.71-4.11-19.76-6.9-30.19-8.42
			c-19.92-2.9-39.28-0.87-58.07,6.39C435.13,826.62,432.27,827.22,427.68,826.55z"/>
		<path class="st41" d="M482.54,796.1c16.96-0.41,32.47,3.75,47.6,9.64c1.39,0.54,3.57,0.99,2.49,3.09
			c-0.98,1.93-2.71,0.6-4.14,0.05c-17.26-6.64-34.96-10.64-53.63-9.52c-14.43,0.87-28.09,4.83-41.59,9.56
			c-1.68,0.59-3.83,2.08-4.61-0.24c-0.81-2.4,2.02-2.21,3.53-2.83C448.49,799.14,465.38,795.47,482.54,796.1z"/>
		<path class="st42" d="M354.51,274.16c3.66-0.18,5.39,0.96,6.59,3.19c0.84,1.56,0.35,2.83-0.97,3.36
			c-1.57,0.63-2.28,4.45-5.15,1.27c-1.13-1.25-16.48,5.24-16.7,6.9c-0.16,1.2,0.38,2.65,1.01,3.77c0.99,1.75,2.24,0.54,3.4-0.03
			c4.67-2.28,9.34-4.58,14.05-6.79c4.06-1.91,7.71-1.66,9.42,3.09c1.77,4.93,7.09,10.47-0.25,14.86c-6.37,3.81-13.26,6.8-20.1,9.74
			c-2.34,1-5.5,1.58-7.22-1.56c-0.78-1.42-2.87-2.79-1.32-4.74c1.22-1.54,3.39-4.28,4.7-3.03c3.74,3.59,6.2-0.31,9.01-0.95
			c3-0.68,5.68-2.69,8.54-4.04c2.07-0.98,2.52-2.31,1.4-4.32c-1.02-1.82-2.19-1.75-3.92-0.92c-4.67,2.25-9.53,4.13-14.15,6.47
			c-6.3,3.19-8.55-1.03-10.78-5.5c-2.29-4.6-3.72-9.03,2.49-11.86C341.48,279.89,347.91,275.49,354.51,274.16z"/>
		<path class="st43" d="M576.17,253.98c3.51,4.32,8,6.83,10.56,11.77c-5.94,0.39-11.01,0.43-14.42-5.14c-1.39-2.26-3.89-3.82-5.45-6
			c-1.81-2.53-4.29-2.64-6.63-2.01c-2.69,0.72-1.26,3.43-1.67,5.25c-0.54,2.43,1.5,6.26-3.84,5.88c-3.35-0.24-4.82-0.89-4.4-4.73
			c0.88-8.09,1.4-16.24,1.76-24.37c0.16-3.53,1.83-4,4.79-3.73c6.31,0.59,12.66,0.75,18.95,1.46c4.47,0.51,9.94-0.19,10.13,7.07
			C586.24,250.12,584.86,252.55,576.17,253.98z"/>
		<path class="st44" d="M383.81,274.63c1.86,5.75,3.19,10.54,4.97,15.16c1.07,2.77,0.69,4.17-2.3,4.83
			c-2.41,0.53-3.41,0.08-4.18-2.65c-2.14-7.61-4.99-15.03-7.24-22.61c-0.45-1.5-3.04-3.58,0.05-5.16c2.26-1.15,4.45-1.98,6.94-0.1
			c3.78,2.88,7.83,5.4,11.65,8.22c3.27,2.42,5.55,3.87,6.55-2.09c0.82-4.86,3.05-9.47,4.48-14.24c0.83-2.78,2.91-4.21,5.36-4.61
			c3.52-0.58,2.87,3.01,3.5,4.74c2.56,6.99,4.47,14.22,7.03,21.21c1.25,3.42,0.25,4.7-2.83,6.04c-3.92,1.7-3.52-1.42-4.21-3.24
			c-1.64-4.38-3.12-8.81-5.18-14.68c-2.16,6.49-3.91,11.47-5.45,16.51c-1.01,3.32-2.25,3.6-5.23,1.65
			C393.39,280.78,389.89,276.66,383.81,274.63z"/>
		<path class="st45" d="M694.72,284.39c1.74-5.77,2.76-9.91,4.27-13.86c0.89-2.33,0.28-6.55,5.15-5.3c4.84,1.25,3.38,4.28,2.29,7.34
			c-2.36,6.58-4.55,13.23-7.06,19.76c-0.63,1.65,0.43,4.83-2.59,4.69c-2.44-0.11-4.71-1.49-6.04-3.88
			c-3.61-6.51-7.24-13.01-10.86-19.51c-0.85-1.53-1.25-3.4-3.63-4.44c-1.59,4.89-3.29,9.64-4.67,14.49
			c-0.87,3.06-2.22,3.88-5.32,2.7c-2.88-1.09-3.02-2.3-1.96-5.03c2.69-6.95,4.86-14.09,7.36-21.12c0.67-1.9-0.23-4.94,3.21-5.09
			c2.94-0.13,4.38,1.81,5.65,4.1C684.93,267.12,689.39,274.95,694.72,284.39z"/>
		<path class="st38" d="M511.65,251.6c0,3.11-0.29,5.6,0.07,8.01c0.56,3.82-1.32,4.49-4.56,4.79c-3.66,0.34-3.42-1.94-3.51-4.18
			c-0.3-8.16-0.4-16.33-0.93-24.48c-0.24-3.62,1.43-3.97,4.35-4.18c3.19-0.23,4.01,1.1,3.91,3.88c-0.09,2.38-0.02,4.78-0.02,8
			c8.9-4.95,13.89-15.69,26.46-12.22c-6.27,5.2-12.07,10.01-18.24,15.13c6.34,6.42,14.81,9.84,21.49,15.91
			C527.78,267.34,521.43,256.12,511.65,251.6z"/>
		<path class="st46" d="M439.4,255.26c7.54-6.44,10.85-17.92,23.36-16.95c-2.4,5.38-7.08,9.02-10.95,13.01
			c-4.78,4.93-3.21,6.81,2.11,8.91c5.83,2.3,11.47,5.08,17.74,7.9c-11.85,7.86-20.06-2.51-29.97-4.65c-0.95,2.43,0.23,4.7,0.62,6.98
			c0.45,2.6,1.65,4.85-2.81,5.78c-4.68,0.97-4.65-1.33-5.23-4.46c-1.36-7.32-2.89-14.61-4.61-21.86c-0.68-2.88-0.6-4.48,2.82-5.32
			c3.62-0.89,4.92,0.09,5.19,3.68C437.83,250.43,438.69,252.51,439.4,255.26z"/>
		<path class="st46" d="M655.12,281.91c-4.91-0.88-9.65-0.35-9.91-6.64c-0.08-1.99-1.76-2.97-3.71-3.41
			c-3.96-0.9-7.91-1.87-11.84-2.89c-1.79-0.46-3.56-1.15-4.78,0.94c-2.57,4.41-6.17,4.48-10.99,1.94
			c7.52-8.6,14.91-17.28,22.58-25.7c2.23-2.44,8.47-0.65,9.34,2.42C648.92,259.38,651.88,270.23,655.12,281.91z"/>
		<path class="st36" d="M762.76,291.65c-1.28,3.55-2.35,6.75-3.6,9.87c-2.17,5.44-4.52,10.81-6.67,16.25
			c-0.78,1.96-1.01,4.11-4.02,2.33c-2.15-1.28-4.61-1.84-3-5.39c2.33-5.12,4.19-10.44,6.35-15.64c1.02-2.44,1.89-4.64-1.5-5.98
			c-1.66-0.66-2.31-1.76-1.42-3.71c0.89-1.96,2.12-1.99,3.81-1.49c2.59,0.76,5.23,1.38,7.8,2.21
			C761.42,290.4,762.87,290.4,762.76,291.65z"/>
		<path class="st47" d="M610.19,240.94c-1.64,8.93-3.25,17.35-4.72,25.79c-0.46,2.64-1.21,4.14-4.37,3.05
			c-2.5-0.86-4.42-1.16-3.6-4.86c1.81-8.13,3.05-16.39,4.39-24.63c0.34-2.12,0.15-4.35,3.38-3.06
			C607.36,238.08,611.57,236.51,610.19,240.94z"/>
		<path class="st48" d="M567.73,245.89c-2.65-1.17-8.96,2.91-7.99-5.19c0.27-2.28,1.02-3.21,3.33-2.96
			c3.79,0.41,7.59,0.82,11.4,1.02c3.19,0.17,3.39,2.07,3.32,4.58c-0.09,3.07-2.13,2.92-4.19,2.86
			C571.81,246.15,570.02,246.02,567.73,245.89z"/>
		<path class="st49" d="M639.32,254.41c0.42,3.66,4.8,7.26,1.1,10.12c-1.37,1.06-7.53-0.93-7.63-1.9
			C632.4,258.63,636.53,256.96,639.32,254.41z"/>
	</g>
</g>
</svg>
