<?xml version="1.0" encoding="utf-8"?>
<!-- Generator: Adobe Illustrator 24.3.0, SVG Export Plug-In . SVG Version: 6.00 Build 0)  -->
<svg version="1.1" id="Layer_1" xmlns="http://www.w3.org/2000/svg" xmlns:xlink="http://www.w3.org/1999/xlink" x="0px" y="0px"
	 viewBox="0 0 1080 388" style="enable-background:new 0 0 1080 388;" xml:space="preserve">
<style type="text/css">
	.st0{fill:#009AFE;}
	.st1{fill:#FCC201;}
	.st2{fill:#01B07E;}
	.st3{fill:#36C202;}
	.st4{fill:#0FB90D;}
	.st5{fill:#054BAD;}
	.st6{fill:#FEC853;}
	.st7{fill:#E00165;}
	.st8{fill:#93E443;}
	.st9{fill:#FA0203;}
	.st10{fill:#1F45D3;}
	.st11{fill:#FCE436;}
	.st12{fill:#83DF3D;}
	.st13{fill:#8901AC;}
	.st14{fill:#4992F0;}
	.st15{fill:#01247B;}
	.st16{fill:#1F46D4;}
	.st17{fill:#6FE4E0;}
	.st18{fill:#FFFFFF;}
	.st19{fill:#366EE3;}
	.st20{fill:#44E01E;}
	.st21{fill:#02257C;}
	.st22{fill:#61D42E;}
	.st23{fill:#20449A;}
	.st24{fill:#189BCD;}
	.st25{fill:#24D1E4;}
	.st26{fill:#44CB22;}
	.st27{fill:#22C09B;}
	.st28{fill:#3357AD;}
	.st29{fill:#8902AC;}
	.st30{fill:#0C67B8;}
	.st31{fill:#3ACBB0;}
	.st32{fill:#1EB7D9;}
	.st33{fill:#476BBF;}
	.st34{fill:#E20263;}
	.st35{fill:#FBB614;}
	.st36{fill:#259E05;}
	.st37{fill:#049AFC;}
	.st38{fill:#0682F1;}
</style>
<path class="st0" d="M99.15,148.86c-5.86,1.57-11.88,2.63-17.27,5.69c-4.47,2.54-7.56,6.08-8.54,11.22
	c-1.55,8.13,1.63,13.69,9.44,16.34c4.17,1.42,8.41,2.64,12.61,3.95c0.81,2.92-0.88,5.32-1.84,7.77
	c-5.03,12.81-13.47,23.3-22.96,33.03c-0.33,0.34-0.78,0.42-1.25,0.31c-18.98,0.88-36.83-13.7-39.96-33.91
	c-5.6-36.15,11.81-70.49,54.35-79.79c3.55-0.78,7.11-1.73,10.81-1.63c1.83,1.7,1.94,4.05,2.2,6.27c0.99,8.41,2.07,16.8,3.19,25.2
	C100.2,145.21,100.86,147.21,99.15,148.86z"/>
<path class="st1" d="M449.94,155.29c8.69,14.18,15.98,29.13,23.63,43.87c4.63,8.93,8.74,18.13,13.18,27.17
	c1.36,2.76,0.98,4.28-2.14,5.48c-13.29,5.12-27.1,6.97-41.23,7.2c-3.31,0.06-4.53-2.2-5.89-4.31c-6.3-9.77-11.48-20.15-16.22-30.73
	c-6.75-15.04-15.13-29.23-22.42-43.99c-3.27-6.63-3.36-13.26,2.46-18.92c4.24-0.88,7.85,1.29,11.67,2.43
	c10.97,4.69,22.01,9.16,33.98,10.69C448.02,154.34,449.03,154.7,449.94,155.29z"/>
<path class="st2" d="M214.02,209.85c-2.69-7.42-5.37-14.84-8.09-22.25c-0.83-2.27-1.83-4.46-3.87-6.6
	c-1.69,10.42-0.29,20.61-1.64,30.63c-1.42,1.43-3.35,1.53-5.11,1.64c-9.26,0.54-18.48,1.85-27.79,1.43
	c-1.98-0.09-3.97-0.27-5.63-1.57c1.08-26.44,2.15-52.88,3.23-79.32c19.11,20.3,42.45,32.72,69.91,37.47c1.38,0.24,2.73,0.1,4.1-0.03
	c1.76,3.25,3.52,6.51,5.28,9.76c0.85,1.04,1.86,1.94,1.96,3.45c0.28,4.5,2.2,8.45,4.21,12.37c1.11,2.16,1.46,4.3-0.23,6.37
	c-2.72,2.32-6.24,2.3-9.45,3.06c-7.41,1.76-14.86,3.35-22.46,4.08C216.91,210.5,215.39,210.89,214.02,209.85z"/>
<path class="st3" d="M391.32,198.98c-0.07,15.13-0.19,30.25-0.15,45.38c0.01,2.35-1.39,3.23-2.97,4.13
	c-8.44,4.83-17.74,6.41-27.26,6.85c-12.91,0.6-12.93,0.5-12.88-12.5c0.11-25.07,0.23-50.14,0.38-75.21
	c0.01-2.44,0.27-4.88,0.41-7.32c1.36-2.41,3.88-3.38,6.02-4.79c4.08-2.69,8.45-4.92,12.47-7.71c1.27-0.88,2.66-1.57,4.29-0.84
	c2.23,2.45,2.16,5.59,2.42,8.58c0.65,7.33,2.15,14.47,4.69,21.35c1.87,5.06,4.92,9.15,10.68,10.22c1.66,0.31,2.35,1.09,2.22,2.78
	C391.43,192.91,392.02,195.97,391.32,198.98z"/>
<path class="st4" d="M239.12,171.26c-0.67,1.99-2.09,1.68-3.72,1.41c-20.01-3.37-38.19-11.2-54.66-22.89
	c-5.19-3.69-9.09-9.03-14.45-12.63c-1.22-0.82-0.77-2.23-1.18-3.33c0.4-8.22,0.87-16.44,1.16-24.68c0.17-4.9,2.52-8.01,7.08-9.52
	c10.33-3.41,20.81-5.83,31.8-5.87c3.3-0.01,4.85,1.13,6.08,4.03c8.48,20.08,16.17,40.47,23.68,60.92
	C236.42,162.86,237.72,167.08,239.12,171.26z"/>
<path class="st0" d="M813.78,131.39c0,12.23-0.11,24.45,0.08,36.68c0.04,2.84-1.03,4.14-3.47,4.92c-4.25,1.37-8.59,2.01-13.05,2.18
	c-2.89,0.12-3.56-1.11-3.54-3.78c0.07-8.56-0.18-17.12-0.12-25.67c0.02-2.7-0.77-3.69-3.44-2.84c-0.87,0.28-1.78,0.43-2.67,0.66
	c-4.08,1.06-9.78-0.02-11.93,3.12c-1.94,2.84-0.58,7.96-0.61,12.07c-0.04,5.65-0.11,11.31,0.04,16.96c0.06,2.22-0.66,3.17-2.82,3.86
	c-4.27,1.35-8.6,2.01-13.03,2.38c-3.02,0.25-4.29-0.58-4.25-4.01c0.31-24.6,0.47-49.21,0.49-73.81c0-2.8,1.2-3.76,3.45-4.38
	c4.28-1.18,8.67-1.59,13.07-2.01c2.56-0.25,3.11,0.61,3.08,2.97c-0.1,7.64,0.13,15.29-0.07,22.92c-0.08,3.02,0.96,3.84,3.69,3.25
	c2.24-0.48,4.48-1,6.74-1.32c8.75-1.21,8.78-1.18,8.74-10.19c-0.03-5.96-0.05-11.92-0.25-17.88c-0.08-2.36,0.66-3.58,3-4.28
	c4.27-1.29,8.57-2.09,13.04-2.3c2.93-0.14,3.97,0.74,3.92,3.83c-0.17,12.22-0.07,24.45-0.07,36.68
	C813.82,131.39,813.8,131.39,813.78,131.39z"/>
<path class="st0" d="M822.71,129.38c0-12.38,0.06-24.76-0.05-37.14c-0.02-2.72,0.98-3.57,3.61-3.99c12.96-2.1,25.89-4.41,38.81-6.74
	c3.14-0.57,4.95-0.18,4.64,3.71c-0.18,2.37,0.13,4.83,0.22,7.23c0.18,5.29-2.11,7.06-7.07,7.53c-5.6,0.54-11.09,2.15-16.69,2.83
	c-3.01,0.36-3.62,1.54-3.59,4.32c0.1,8.31-0.02,8.3,8.03,6.91c1.81-0.31,3.62-0.58,5.44-0.81c7.96-0.98,7.96-0.98,8.54,7.24
	c0.56,7.88-0.3,9.04-7.99,10.67c-2.39,0.51-4.82,0.84-7.19,1.4c-2.26,0.53-5.48-0.2-6.44,2.34c-1.6,4.21-1.11,8.75-0.12,13.11
	c0.34,1.47,1.77,0.66,2.75,0.48c6.46-1.16,12.93-2.27,19.36-3.55c3.71-0.74,5.92,0.13,5.91,4.34c0,1.21,0.33,2.42,0.43,3.64
	c0.57,7.07-1.08,9.42-8.15,10.71c-12.17,2.22-24.38,4.2-36.56,6.34c-2.89,0.51-4.06-0.2-4.01-3.44c0.17-12.38,0.07-24.76,0.07-37.14
	C822.68,129.38,822.7,129.38,822.71,129.38z"/>
<path class="st0" d="M601.94,209.18c-1.56-0.1-4.31-0.47-7.05-0.42c-3.44,0.05-4.18-1.55-3.45-4.55c1.01-4.15,2.01-8.31,2.85-12.5
	c0.51-2.53,2.12-2.07,3.82-1.79c5.25,0.84,10.48,2.42,15.84,0.62c1.01-0.34,2.09-0.53,3.05-0.96c3.84-1.72,7.84-3.59,7.45-8.68
	c-0.37-4.92-4.56-5.53-8.34-6.33c-1.94-0.41-3.89-0.76-5.82-1.22c-15.61-3.73-21.86-17.01-15.02-31.63
	c4.94-10.54,13.31-16.43,24.55-18.49c6.69-1.22,13.4-0.7,20.11-0.02c2.17,0.22,2.93,1.11,2.61,3.23c-0.66,4.4-2.02,8.6-3.58,12.75
	c-0.62,1.65-1.66,1.79-3.25,1.49c-3-0.56-6.04-1.01-9.08-1.19c-3.75-0.23-7.31,0.7-10.41,2.89c-2.11,1.49-3.28,3.49-3.06,6.25
	c0.23,2.81,2.23,4,4.39,4.7c4.64,1.5,9.4,2.64,14.09,4.02c9.55,2.82,13.55,8.1,13.77,18.02c0.36,16.83-11.34,29.96-29.49,33.08
	C611.69,209.18,607.42,209.29,601.94,209.18z"/>
<path class="st5" d="M449.94,155.29c-9.87-0.05-19.01-3.15-27.99-6.84c-3.21-1.32-6.38-2.71-9.57-4.06
	c-0.83-2.35,0.47-4.14,1.65-5.89c4.73-7.02,7.09-14.75,7.15-23.19c0.02-2.15,0.19-4.26,1-6.27c0.86-2.21,2.56-3.77,4.22-5.35
	c13.88-13.2,25.93-27.94,36.9-43.61c2.47-3.53,4.22-7.42,6.21-11.2c0.76-1.45,1.08-3.23,2.73-4.11c3.34-1,6.88-0.2,10.3-1.52
	c2.72-1.04,1.92,1.43,1.41,2.75c-3.07,7.95-5.99,15.97-9.38,23.78c-9.15,21.09-18.36,42.15-27.89,63.07
	c-2.93,6.45-3.2,12.18,1.02,17.99C448.66,152.17,449.2,153.8,449.94,155.29z"/>
<path class="st6" d="M138.78,262.53c0.37,6.16-3.57,10.53-6.81,14.88c-11.22,15.11-26.2,24.83-44.47,29.46
	c-14.13,3.58-28.44,5.53-43.04,4.73c-5.18-0.29-10.31-1.08-14.96-3.68c-0.52-2.14,1.27-2.87,2.44-3.94
	c6.81-6.21,14.9-10.53,22.88-14.92c9.86-5.43,20.13-10.05,30.61-14.21c4.62-1.41,9.09-3.3,13.79-4.46c2.5-0.77,5.04-1.43,7.57-2.11
	c8.75-2.46,17.66-4.17,26.52-6.11C135.1,261.78,137.08,260.75,138.78,262.53z"/>
<path class="st7" d="M349.01,94.18c-0.26-7.33-0.49-14.66-0.81-21.99c-0.08-1.88,0.27-3.14,2.29-3.84
	c12.16-4.24,24.35-8.18,37.53-7.21c2.44,0.18,3.96,0.53,3.94,3.59c-0.12,22.63-0.09,45.26-0.12,67.89c0,0.59-0.24,1.19-0.37,1.78
	c-0.81,1.05-1.87,0.94-2.97,0.64c-2.27-1.13-4.12-2.87-6.2-4.28c-2.77-2.2-5.29-4.72-8.33-6.59
	C363.92,115.6,356.34,104.99,349.01,94.18z"/>
<path class="st0" d="M999.68,66.75c0.48-8.89,0.47-8.98,8.35-10.42c14.71-2.69,29.45-5.28,44.18-7.88c1.33-0.23,2.93-0.81,3.98,0.22
	c3.31,3.23,2.21,7.41,1.87,11.28c-0.26,2.85-0.74,5.87-4.64,6.34c-2.72,0.32-5.41,0.92-8.11,1.43c-6.83,1.29-6.98,1.3-6.98,8.46
	c0,14.22,0.19,28.43,0.3,42.65c0.02,1.99,0.06,3.98,0.05,5.96c-0.01,8.13-0.26,8.42-8.39,9.81c-11.28,1.92-11.28,1.92-11.28-9.48
	c-0.01-16.05-0.12-32.11,0.04-48.16c0.04-3.5-0.77-4.77-4.36-3.8c-2.94,0.79-6.02,1.07-8.97,1.82c-4.08,1.02-6.22-0.04-5.85-4.61
	C999.98,68.85,999.71,67.31,999.68,66.75z"/>
<path class="st8" d="M288.25,78.43c9.72-3.64,19.91-4.01,30.11-4.23c2.66-0.06,3.13,1.62,3.19,3.93c0.25,9.3,0.67,18.6,0.99,27.9
	c0.51,14.63,1,29.26,1.5,43.89c-6.14,3.68-11.46,8.83-18.74,10.48c-2.1-0.5-3.7-1.7-4.03-3.87c-0.49-3.32-2.18-6.52-2.05-9.79
	c0.45-11.27-3.5-21.9-4.34-32.97c-0.81-10.76-4.21-21.16-4.54-31.98C290.3,80.14,288.91,79.57,288.25,78.43z"/>
<path class="st9" d="M69.35,227.17c1.62-1.99,3.1-4.12,4.89-5.95c9.8-10.08,16.66-21.9,21.16-35.16c10.87,1.2,21.11,4.54,30.75,9.53
	c10.58,5.47,15.74,14.81,17.55,26.27c-0.78,1.94-2.59,1.97-4.22,2.14c-17.47,1.76-34.95,3.42-52.39,5.46
	c-2.48,0.29-4.82-0.72-7.27-0.57C76.4,227.93,72.7,228.62,69.35,227.17z"/>
<path class="st10" d="M161.88,213.14c12.88,0.52,25.7-0.59,38.53-1.5c-0.06,16.2-0.41,32.39-1.53,48.55
	c-1.25,1.42-2.97,1.45-4.63,1.46c-9.89,0.09-19.79,0.1-29.68,0c-1.52-0.02-3.06-0.13-4.26-1.3
	C160.84,244.61,161.36,228.88,161.88,213.14z"/>
<path class="st11" d="M197.6,310.85c-0.05,8.38,0.08,16.77-0.2,25.14c-0.26,7.95-4.46,10.41-12.12,8.27
	c-16.28-4.54-22.59-16.76-25.39-31.88c-1.23-6.63-1.35-13.32-1.07-20.04c2.75-2.24,6.13-2.79,9.43-3.02
	c8.37-0.59,16.73-0.36,25.04,1.17c3.42,0.63,5.04,2.05,4.69,5.79C197.54,301.11,198.3,306.01,197.6,310.85z"/>
<path class="st12" d="M288.25,78.43c3.03,0.09,6.08,0.11,3.13,4.47c-0.61,0.9,0.05,2.04,0.23,3.08c1.72,10.1,3.76,20.17,4.87,30.34
	c0.69,6.34,2.6,12.39,3.33,18.69c0.23,1.96,0.75,3.96,0.43,5.86c-0.91,5.47,2.15,10.36,2.06,15.67c-0.04,2.44,2.66,1.85,3.51,3.28
	c-0.18,1.85-1.78,2.31-3.07,3.02c-4.42,2.41-9.26,3.72-14.03,5.21c-1.33,0.42-2.69,0.62-3.74-0.68c-0.8-0.82,0.91-3.66-2.14-2.68
	c-2.28-3.28-2.25-7.21-2.92-10.91c-2.12-11.86-3.18-23.88-5.86-35.66c-0.91-3.98-0.06-8.28-2.07-12.09
	c2.64-8.02,5.76-15.83,9.88-23.23C283.29,80.25,285.3,78.69,288.25,78.43z"/>
<path class="st0" d="M585.12,171.62c0,12.06-0.15,24.12,0.09,36.18c0.07,3.46-1.23,4.97-4.3,5.84c-3.99,1.13-8,1.85-12.17,1.82
	c-2.23-0.01-3.24-0.59-3.23-3.11c0.13-25.03,0.17-50.07,0.15-75.1c0-2.29,1.01-3.28,2.99-3.89c4.25-1.31,8.65-1.72,13.02-2.38
	c2.89-0.43,3.63,0.77,3.6,3.54c-0.13,12.36-0.06,24.73-0.06,37.09C585.18,171.62,585.15,171.62,585.12,171.62z"/>
<path class="st10" d="M214.02,209.85c12.05-1.91,24.14-3.63,35.8-7.42c5.76-3.14,12.36-3.81,18.36-6.27
	c1.03-0.16,1.98-0.02,2.76,0.74c-2.76,10.95-6.36,21.63-10.32,32.19c-1.83,4.89-5.89,7.25-10.46,8.88c-7.14,2.55-14.61,3-22.11,3.26
	c-1.73,0.06-2.85-0.39-3.48-2.16C221.1,229.31,217.54,219.59,214.02,209.85z"/>
<path class="st13" d="M99.15,148.86c-1.53-12.34-3.06-24.68-4.59-37.02c12.01-2.74,24.03-1.46,36,0.15
	c9.08,1.22,9.03,1.41,7.52,10.69c-1.51,9.24-4.76,17.98-7.47,26.89c-0.84,2.78-2.61,2.51-4.59,2.29
	C117.06,150.88,108.11,149.86,99.15,148.86z"/>
<path class="st7" d="M472.23,44.77c-4,12.15-12.07,21.78-19.71,31.66c-8.88,11.48-18.71,22.1-29.24,32.08
	c-3.6,4.21-6.98,8.69-12.85,9.96c0.53-6.2,3.42-11.65,5.65-17.28c5.44-13.75,12.35-26.9,17-40.98c1.53-4.64,4.53-7.91,9.21-9.46
	C452.01,47.52,461.93,45.18,472.23,44.77z"/>
<path class="st14" d="M327.93,233.63c1.4,7.54,0.61,15.19,1.21,22.77c0.19,2.43-2.1,3.16-3.79,4.05c-8.3,4.37-17.38,5.46-26.53,5.97
	c-3.6,0.2-8.01,1.79-10.65-0.35c-2.58-2.09-1-6.62-1.15-10.05c-0.36-8.37-0.23-16.76-0.3-25.14c2.34,3.63,5.52,3.04,8.93,1.9
	C306.49,229.17,317.24,230.34,327.93,233.63z"/>
<path class="st15" d="M85.42,275.91c-14.62,6.44-29.27,12.82-42.73,21.56c-4.72,3.07-9.45,6.13-13.17,10.45
	c-6.4-0.98-6.36-0.97-4.95-7.06c2.36-10.22,4.79-20.43,6.92-30.69c0.73-3.5,2.17-4.89,5.79-4.3c5.1,0.82,10.29,1.12,15.37,2.02
	c10.86,1.92,21.5,1.68,31.89-2.38C84.74,268.98,84.51,272.49,85.42,275.91z"/>
<path class="st16" d="M286.44,214.35c-1.04-7.63-0.31-15.31-0.81-22.96c1.05-2.08,3.02-2.91,5.02-3.69
	c10.22-4.02,19.97-8.99,29.48-14.46c4.88-2.8,5.37-2.46,5.42,3.32c0.02,2.12-0.28,4.26,0.22,6.36c0.39,9.86,0.78,19.72,1.17,29.58
	c-1.34,1.21-3,1.38-4.7,1.42c-10.79,0.25-21.62-0.63-32.35,1.24C288.67,215.37,287.47,215.13,286.44,214.35z"/>
<path class="st6" d="M197.6,310.85c-0.04-5.03-0.15-10.07-0.09-15.1c0.02-2.19-0.58-3.11-2.99-3.51
	c-10.85-1.81-21.65-3.06-32.51-0.13c-1.01,0.27-2.12,0.17-3.18,0.24c-0.36-10.71,0.47-21.36,1.49-32
	c12.86-0.05,25.72-0.11,38.57-0.16C198.71,277.08,198.68,293.98,197.6,310.85z"/>
<path class="st17" d="M325.78,182.92c-1.15-3.4-0.19-6.97-0.98-11.11c-12.51,7.95-25.82,13.82-39.17,19.59
	c-0.22-8-0.44-16.01-0.65-24.01c7.52-0.94,14.28-3.96,20.84-7.55c6.3-2.9,11.43-7.94,18.24-9.9
	C324.56,160.93,326.25,171.87,325.78,182.92z"/>
<path class="st18" d="M675.21,240.97c0-1.07-0.01-2.14,0-3.21c0.1-10.86,1.5-12.74,12.31-13.64c5.04-0.42,9.97-0.68,14.61-2.84
	c0.54-0.25,1.19-0.28,1.79-0.37c5.34-0.81,8.99,1.46,10.32,6.7c1.52,6.01,1.42,12.16,0.55,18.23c-0.66,4.59-4.93,2.31-7.45,3.1
	c-2.76,0.87-1.91-2.01-1.95-3.41c-0.12-3.97-0.01-7.95,0.01-11.93c0.01-2.08-0.67-3.65-3.05-3.72c-2.6-0.08-2.89,1.74-2.87,3.71
	c0.04,4.74,0.14,9.48,0.15,14.22c0.02,5.63-4.79,3.02-7.25,3.78c-3.26,1.01-1.82-2.28-1.9-3.68c-0.26-4.11-0.1-8.25-0.29-12.37
	c-0.08-1.77-0.68-3.13-3.14-2.82c-2.2,0.28-2.28,1.46-2.29,3.11c-0.02,4.9,0.02,9.8-0.2,14.68c-0.26,5.68-5.16,2.92-7.82,3.7
	c-2.54,0.75-1.52-2.25-1.59-3.62c-0.17-3.2-0.05-6.42-0.05-9.64C675.14,240.97,675.18,240.97,675.21,240.97z"/>
<path class="st19" d="M286.44,214.35c13.4-2.9,26.99-1.55,40.51-1.85c1.17,7,0.95,14.07,0.98,21.13c-1.93,0.61-3.84,0.59-5.77-0.04
	c-9.52-3.1-18.96-2.02-28.22,1c-4.02,1.31-7.08,1.97-7.23-3.71C286.62,225.38,286.53,219.87,286.44,214.35z"/>
<path class="st20" d="M388.66,134.6c0.94-0.07,1.87-0.14,2.81-0.2c0.81,7.01,0.25,14.04,0.26,21.06c0.01,12.85,0.02,25.7-0.02,38.55
	c0,1.66-0.25,3.32-0.39,4.99c-0.08-1.37-0.21-2.74-0.22-4.11c-0.02-3.44,0.93-6.78-4.74-7.37c-3.86-0.41-6.46-4.4-8.02-8.14
	c-3.12-7.48-4.87-15.32-5.49-23.4c-0.23-3.01-0.49-5.98-1.96-8.69c-0.07-1.92,1.53-2.58,2.76-3.28
	C378.79,141.06,383.5,137.47,388.66,134.6z"/>
<path class="st21" d="M79.82,228.88c13.9-1.52,27.81-3.02,41.71-4.55c7.39-0.81,14.78-1.65,22.17-2.48
	c0.64,1.32,0.81,2.72,0.66,4.17c0.66,2.4,0.09,4.86,0.33,7.27c0.36,3.65-1.53,5.06-4.86,4.92c-12.25-0.49-23.97,1.58-35.06,6.94
	c-1.76,0.85-3.61,1.86-5.58,0.4c-1.04-9.14-7.56-12.58-15.32-14.81C82.46,230.35,81.17,229.52,79.82,228.88z"/>
<path class="st22" d="M271.99,106.04c4.28,0.71,2.81,4.58,2.96,6.71c0.57,8.32,2.85,16.31,3.86,24.53
	c1.13,9.17,2.67,18.28,4.02,27.42c-0.68,1.22-1.37,2.45-2.05,3.67c-2.94,2.32-6.2,2.69-9.71,1.68c-2.5-1.26-2.91-3.6-3.31-6.06
	c-1.43-8.81-2.02-17.78-4.61-26.36c-0.84-2.77,2.08-5.25,0.08-7.86C265.91,121.78,268.58,113.77,271.99,106.04z"/>
<path class="st23" d="M99.19,245.57c6.06-0.98,11.04-4.9,17.01-6.2c7.82-1.7,15.61-3.26,23.7-2.23c2.63,0.33,4.43-0.72,4.35-3.82
	c-0.06-2.43,0.06-4.86,0.11-7.29c1.52,6.83,1.16,13.63-0.25,20.42c-1.22,1.24-2.75,1.19-4.28,0.98c-10.74-1.5-20.52,1.28-29.77,6.55
	c-2.67,1.52-5.09,3.35-7.01,5.79c-2.67,3.39-4.58,7.02-3.81,11.55c-4.61,1.53-9.21,3.06-13.82,4.59c-3.2-3.22-2.18-6.8-0.88-10.4
	c2.43-1.5,4.98-2.85,7.27-4.54C96.97,257.18,98.83,251.71,99.19,245.57z"/>
<path class="st18" d="M609.44,251.62c0,2.75-0.38,5.57,0.08,8.24c0.82,4.79-1.78,6.42-5.69,7.64c-15.12,4.71-19.68,1.45-19.7-14.38
	c0-2.44,0.43-4.88,0.38-7.32c-0.05-2.65,1.16-3.77,3.65-4.3c5.13-1.1,5.71-0.66,5.68,4.62c-0.02,3.82,0.17,7.63,0.27,11.45
	c0.06,2.43,1.38,2.89,3.63,2.81c2.45-0.08,2.16-1.52,2.17-3.05c0.02-5.05-0.1-10.1,0.13-15.14c0.24-5.44,4.83-2.62,7.38-3.42
	c3.12-0.98,1.91,1.91,1.98,3.21C609.56,245.2,609.45,248.41,609.44,251.62z"/>
<path class="st18" d="M330.45,300.24c4.8-7.16,4.49-17.96,16.72-15.19c-1.53,3.29-2.85,6.47-4.46,9.48
	c-1.71,3.2-1.53,6.09,0.57,8.98c0.71,0.99,1.6,2.02,1.82,3.15c0.41,2.08,4.78,3.92,0.82,6.27c-4.3,2.55-7.69,1.53-9.92-2.3
	c-1.58-2.71-2.53-5.81-5.64-8.86c0,4.36,0.19,7.93-0.05,11.47c-0.36,5.33-4.97,2.65-7.53,3.42c-2.74,0.82-1.77-2.1-1.79-3.47
	c-0.1-6.88,0.21-13.78-0.11-20.64c-0.25-5.3,3.58-4.2,6.44-4.73c3.91-0.73,3.1,2.13,3.13,4.29
	C330.47,294.37,330.45,296.63,330.45,300.24z"/>
<path class="st18" d="M897.58,203.2c0,3.45,0.17,6.92-0.04,10.36c-0.32,5.25-4.82,2.96-7.43,3.59c-3.27,0.79-2.01-2.25-2.04-3.7
	c-0.11-6.88,0.06-13.77-0.02-20.65c-0.07-5.55,4.51-3.93,7.26-4.55c3.4-0.75,2.31,2.3,2.41,4.02c0.14,2.28,0.03,4.57,0.43,7.21
	c3.83-6.47,5.22-15.66,16.2-14.02c-1.45,3.21-2.77,6.54-4.44,9.68c-1.71,3.2-1.66,6.04,0.63,8.89c0.66,0.82,1.32,1.78,1.56,2.78
	c0.52,2.17,4.36,4.11,1.36,6.46c-3.58,2.8-8.18,1.48-10.27-2.28c-1.47-2.65-2.91-5.32-4.37-7.98
	C898.42,203.07,898,203.14,897.58,203.2z"/>
<path class="st18" d="M823.85,219.09c0,2.14-0.09,4.28,0.02,6.42c0.13,2.31-0.39,3.44-3.13,3.8c-6.35,0.84-6.32,1.06-6.32-5.39
	c0-5.81,0.14-11.63-0.09-17.44c-0.11-2.93,0.88-4.63,3.64-5.46c4.43-1.34,8.96-2.06,13.57-1.6c4.85,0.49,7.45,3.6,6.15,8.2
	c-1.6,5.68-2.23,10.84,1.93,15.72c1.39,1.63,0.68,2.99-1.51,2.81c-2.69-0.22-5.91,2.35-7.81,0.21c-2.35-2.65-3.53-6.35-5.08-9.66
	c-0.52-1.12,0.41-1.95,1.11-2.79c0.67-0.81,1.4-1.72,1.64-2.7c0.4-1.63,0.63-3.76-1.3-4.39c-2.46-0.81-2.69,1.58-2.81,3.11
	c-0.23,3.04-0.07,6.1-0.07,9.15C823.82,219.09,823.83,219.09,823.85,219.09z"/>
<path class="st18" d="M531.09,266.36c0-2.29,0.34-4.64-0.07-6.86c-1-5.48,1.83-7.3,6.59-8.67c14.46-4.16,18.76-1.08,18.61,14.1
	c-0.03,2.75-0.29,5.49-0.21,8.24c0.06,2.08-0.85,2.93-2.75,3.48c-5.97,1.73-6.97,0.88-6.47-5.44c0.28-3.5,0.28-7.03-0.73-10.44
	c-0.44-1.49-1.25-2.97-3.09-2.86c-1.67,0.1-2.02,1.58-2.37,2.95c-1.25,4.84-0.54,9.71-0.24,14.56c0.4,6.38-4.79,3.6-7.49,4.26
	c-3.44,0.83-1.72-2.37-1.83-3.71c-0.27-3.18-0.09-6.4-0.09-9.61C531,266.36,531.05,266.36,531.09,266.36z"/>
<path class="st18" d="M917.01,197.81c0-2.75,0.35-5.55-0.08-8.23c-0.75-4.76,1.5-6.56,5.77-7.09c3.32-0.41,6.55-1.49,9.96-1.31
	c6.59,0.34,10.26,4.65,7.26,10.28c-2.72,5.12-1.09,8.67,1.43,12.37c2.42,3.56,0.63,4.27-2.4,4.84c-3.92,0.74-7.01,0.63-8.42-4.24
	c-1.07-3.7-4.54-6.95-0.36-10.88c0.82-0.77,1.03-2.59,0.17-3.89c-0.58-0.87-1.52-0.92-2.45-0.53c-1.59,0.67-1.58,2.18-1.59,3.5
	c-0.07,4.73-0.24,9.47,0.1,14.18c0.22,3.04-0.61,4.2-3.7,4.5c-5.74,0.56-5.72,0.74-5.71-4.81c0-2.9,0-5.8,0-8.7
	C916.98,197.81,917,197.81,917.01,197.81z"/>
<path class="st18" d="M376.03,293.69c0-3.52,0.11-7.04-0.04-10.55c-0.1-2.38,0.93-3.79,3.05-4.49c4.23-1.38,8.52-2.42,13.03-1.87
	c7.16,0.87,9.95,5.2,6.38,11.46c-2.1,3.69-1.78,6.23,0.29,9.33c0.74,1.12,1.11,2.51,1.54,3.81c0.28,0.83,0.56,1.63-0.55,2.33
	c-3.06,1.92-7.96,0.62-9.48-2.62c-0.65-1.38-1.29-2.77-2-4.12c-1.33-2.5-2.54-4.91,0.59-7.09c0.91-0.63,1.18-1.85,1.03-2.91
	c-0.18-1.31-0.28-2.81-2.24-2.88c-1.98-0.07-2.16,1.18-2.19,2.68c-0.13,5.35-0.52,10.7-0.38,16.04c0.15,5.64-4.15,3.64-6.76,4.1
	c-3.67,0.64-2.13-2.48-2.24-4.05c-0.22-3.04-0.06-6.11-0.06-9.17C376,293.69,376.01,293.69,376.03,293.69z"/>
<path class="st18" d="M744.49,228.87c0-2.6,0.27-5.23-0.06-7.79c-0.55-4.26,1.41-6.46,5.17-7.88c3.82-1.44,7.7-1.88,11.71-1.58
	c3.77,0.28,6.17,2.23,7.2,5.95c1.71,6.17,1.53,12.46,0.7,18.66c-0.57,4.2-4.74,3.12-7.43,3.43c-3.07,0.35-1.83-2.52-1.9-4.07
	c-0.18-3.96-0.03-7.94-0.22-11.91c-0.08-1.54-0.04-3.38-2.78-3.13c-2.35,0.21-3.1,0.96-3.02,3.32c0.17,4.73-0.04,9.48,0.03,14.22
	c0.08,5.67-4.54,3.13-7.05,3.88c-3.15,0.94-2.28-1.86-2.32-3.47C744.43,235.29,744.49,232.08,744.49,228.87z"/>
<path class="st18" d="M613.15,252.18c0.01-2.75,0.31-5.55-0.07-8.25c-0.59-4.2,1.5-5.89,5.07-7.2c14.64-5.36,20.04-1.77,20.11,13.62
	c0.01,1.83,0.01,3.67-0.07,5.5c-0.29,6.16-1.41,7.03-7.62,6.81c-1.92-0.07-1.87-1.07-1.86-2.33c0.02-3.52,0.09-7.04,0.07-10.55
	c-0.01-1.21-0.1-2.45-0.36-3.63c-0.43-1.95-1.82-2.6-3.75-2.6c-2.44,0-2.05,1.69-2.07,3.17c-0.06,4.74-0.32,9.49-0.11,14.22
	c0.23,5.07-3.67,3.92-6.32,4.45c-3.43,0.69-3.07-1.86-3.04-4.03C613.17,258.3,613.14,255.24,613.15,252.18z"/>
<path class="st0" d="M717,158.84c-0.36-9.55-0.27-9.65,7.96-11.06c6.47-1.11,12.96-2.15,19.4-3.43c2.41-0.48,3.28,0.23,3.62,2.55
	c0.51,3.51,0.43,7.02,0.27,10.52c-0.12,2.6-1.6,4.08-4.3,4.52c-7.23,1.2-14.48,2.35-21.64,3.92c-4.16,0.91-5.68-0.37-5.32-4.45
	C717.09,160.2,717,158.97,717,158.84z"/>
<path class="st24" d="M388.66,134.6c-4.71,5.92-12.18,7.97-17.76,12.68c-7.35,4.35-14.69,8.69-22.04,13.04
	c-0.53-7.7-0.15-15.39,0.11-23.09c2.22-1.84,4.62-0.95,6.97-0.45c8.22,1.76,15.61-0.43,22.52-4.75c1.43-0.89,2.7-1.96,4.48-1.98
	C385.2,131.11,386.83,132.97,388.66,134.6z"/>
<path class="st18" d="M490.39,266.72c0.83,2.15,2.52,1.82,3.96,1.95c3.34,0.31,6.6,1.17,7.76,4.61c1.25,3.73,0.13,7.33-2.72,10.06
	c-4.88,4.68-11,5.49-17.43,5.11c-1.71-0.1-2.15-1.23-1.73-2.5c0.7-2.09-0.02-5.27,3.55-5.47c2.27-0.12,4.58,0.43,6.81-0.29
	c0.92-0.3,1.74-1.01,1.57-1.96c-0.08-0.44-1.14-0.82-1.82-1.01c-0.87-0.25-1.81-0.27-2.71-0.42c-7.1-1.2-9.4-7.44-4.89-13.22
	c3.3-4.23,12.32-6.88,17.64-5.29c1.16,0.35,1.66,1.01,1.05,1.89c-1.27,1.82,0.28,5.3-3.36,5.69
	C495.55,266.15,493.03,266.43,490.39,266.72z"/>
<path class="st18" d="M233.35,324.25c-1.58-1.84-3.71-1.56-5.57-2.03c-6.45-1.63-8.42-7.4-4.29-12.65
	c3.09-3.94,12.79-7.03,17.62-5.83c1.55,0.39,1.71,1.26,1.25,2.26c-0.9,1.93,0.61,5.34-3.18,5.56c-1.82,0.1-3.66-0.02-5.49,0.01
	c-0.86,0.01-1.6,0.58-1.66,1.31c-0.07,0.83,0.76,1.19,1.57,1.3c0.75,0.1,1.5,0.33,2.26,0.34c3.05,0.07,5.92,0.59,7.18,3.8
	c1.4,3.58,0.49,6.94-1.75,9.9c-3.14,4.14-13.5,7.24-18.55,5.82c-2.1-0.59-1.53-2.13-1.34-3.27c0.4-2.41,0.91-4.9,4.33-4.78
	C228.36,326.1,231.23,326.79,233.35,324.25z"/>
<path class="st25" d="M349.01,94.18c3.84,3.3,6.64,7.49,9.6,11.51c4.79,6.49,10.17,12.42,16.05,17.93
	c-4.24,6.1-10.24,7.47-17.06,5.99c-2.9-0.63-6.06-0.58-8.62-2.48C348.99,116.14,349,105.16,349.01,94.18z"/>
<path class="st26" d="M263.22,129.78c3.65-0.51,2.43,2.35,1.71,3.3c-1.53,2.01-0.68,3.69-0.17,5.54c2.28,8.32,2.96,16.92,4.22,25.42
	c0.3,2.05,0.91,3.75,1.94,5.42c-3.37,3.4-8.13,2.28-12.11,3.74c-3.3-0.18-6.65,2.17-9.9-0.21
	C253.08,158.39,258.17,144.09,263.22,129.78z"/>
<path class="st27" d="M248.91,172.99c3.36-0.31,6.72-0.63,10.08-0.94c0.9,0.65,1.56,1.5,1.75,2.59c1.36,7.89,3.25,15.59,7.53,22.5
	c-5.96,2.44-12.07,4.35-18.45,5.29c0.59-1.25,1.29-2.5,0.35-3.87c-3.62-5.29-4.86-11.36-5.76-17.54
	C247.77,179.39,246.95,175.41,248.91,172.99z"/>
<path class="st18" d="M1036.49,176.61c0-1.07,0-2.14,0-3.2c0.05-10.73,0.05-10.74,10.84-12.48c1.81-0.29,3.64-0.78,5.43-0.69
	c1.62,0.09,4.39-1.7,4.63,1.52c0.2,2.7,0.48,6.06-3.75,6.47c-1.97,0.19-3.95,0.36-5.91,0.63c-1.47,0.2-2.04,1.26-1.96,2.63
	c0.13,2.2,1.65,1.11,2.7,1.06c0.76-0.04,1.57-0.35,2.26-0.17c1.46,0.39,4.06-1.89,4.25,1.39c0.14,2.51,1.02,6.06-3.1,6.37
	c-4.8,0.37-6.5,2.21-6.39,7.32c0.1,4.45-4.58,2.48-7.14,3.02c-3.07,0.66-1.76-2.08-1.83-3.35c-0.18-3.5-0.06-7.01-0.06-10.52
	C1036.47,176.61,1036.48,176.61,1036.49,176.61z"/>
<path class="st28" d="M99.24,271.32c-2.32-4.42-1.64-7.89,3.43-13.04c6.76-6.86,15.31-10.09,24.68-11.92
	c5.71-1.12,11.18-0.08,16.76,0.1c0.12,1.6-0.11,3.15-0.78,4.62c-1.01,2.66-2.86,3.41-5.7,3.22c-6.96-0.47-13.58,0.97-19.77,4.31
	c-3.31,1.79-6,4.16-7.7,7.52c-0.79,1.57-1.76,2.8-3.56,3.19C104.24,270.32,101.8,271.05,99.24,271.32z"/>
<path class="st29" d="M124.93,95.19c0.2-6.16,5.58-11.22,11.69-11c6.07,0.22,11.32,5.8,11.06,11.75
	c-0.27,6.09-5.79,11.23-11.81,10.99C129.72,106.7,124.73,101.34,124.93,95.19z"/>
<path class="st30" d="M410.43,118.46c4.28-3.32,8.57-6.64,12.85-9.96c-1.89,5.1-0.48,10.5-1.69,15.78
	c-1.71,7.45-6.05,13.46-9.21,20.11c-3.69-1.1-7.38-2.21-11.08-3.31C403.71,133.28,406.87,125.79,410.43,118.46z"/>
<path class="st18" d="M583.07,247.57c0.57,2.5-0.4,3.84-3.53,3.8c-3.54-0.04-5.04,1.83-4.76,5.53c0.32,4.09,0.26,8.23,0.09,12.34
	c-0.15,3.66-5.56,6.41-8.64,4.56c-1.15-0.69-0.83-1.86-0.84-2.88c-0.04-4.11-0.29-8.25,0.02-12.34c0.26-3.48-0.8-4.62-4.27-4.06
	c-1.33,0.21-3.94,1.89-3.88-1.68c0.05-2.68-0.68-5.67,3.42-6.26c6.18-0.89,12.32-2.03,18.49-2.92
	C583.05,243.07,583.06,243.18,583.07,247.57z"/>
<path class="st18" d="M1003.54,176.82c-1.66,0.3-2.84,0.71-4.01,0.68c-1.61-0.03-3.97,1.09-4.12-2c-0.12-2.46-0.47-5.31,2.78-5.93
	c6.74-1.29,13.53-2.29,20.31-3.32c1.29-0.19,3.22-0.31,2.78,1.79c-0.41,1.97,1.52,5.54-1.73,5.7c-6.6,0.33-6.91,4.14-6.48,9.13
	c0.26,3.03-0.04,6.11,0.05,9.16c0.19,6.34-4.97,3.5-7.69,4.2c-3.48,0.89-1.73-2.42-1.79-3.69
	C1003.4,187.39,1003.54,182.22,1003.54,176.82z"/>
<path class="st31" d="M268.27,197.14c-4.65-2.59-5.18-7.49-6.43-11.87c-1.23-4.33-1.92-8.81-2.85-13.22
	c3.98-0.87,7.95-1.73,11.93-2.59c3.37,0.36,6.55-0.94,9.86-1.09c-3.28,9.51-6.56,19.02-9.84,28.52
	C270.05,196.98,269.16,197.06,268.27,197.14z"/>
<path class="st18" d="M418.99,281.47c-0.12,2.59-0.15,5.19-0.39,7.77c-0.82,8.7-4.51,12.51-13.21,13.51
	c-1.16,0.13-3.54,1.69-3.37-1.12c0.14-2.25-1.6-5.32,1.71-6.75c5.49-2.37,6.84-5.15,5.34-11.02c-0.31-1.21-0.67-2.01-2.04-1.85
	c-3.06,0.36-3.46-1.35-3.38-3.89c0.08-2.58,0.54-4.56,3.6-4.76c0.61-0.04,1.21-0.16,1.82-0.24
	C418.64,271.95,418.64,271.95,418.99,281.47z"/>
<path class="st32" d="M348.98,127.13c3.23-0.32,6.22,0.83,9.32,1.38c5.12,0.91,10.17,0.95,13.65-3.93c0.78-1.09,2.17,0.3,2.72-0.97
	c3.19,1.59,5.73,4.01,8.28,6.43c-5.36,5.94-12.8,7.15-20.04,8.84c-2.84,0.66-5.45-0.43-8.05-1.14c-1.98-0.54-3.92-0.43-5.89-0.53
	C348.97,133.86,348.97,130.49,348.98,127.13z"/>
<path class="st33" d="M106.6,269.31c3.26-4.64,5.81-9.71,11.55-12.28c6.09-2.72,12.31-4.42,18.87-3.96c2.67,0.18,4.57-0.15,6.31-2
	c-0.7,4.14-1.44,8.27-4.55,11.46C128.06,264.79,117.33,267.05,106.6,269.31z"/>
<path class="st18" d="M802.03,217.7c0-3.67,0.1-7.34-0.03-11.01c-0.17-4.82,3.68-3.45,6.16-4.09c3.1-0.81,3.04,1.38,3.07,3.45
	c0.11,7.34,0.4,14.68,0.33,22.01c-0.05,4.9-4.29,3.13-6.89,3.75c-3.15,0.76-2.92-1.48-2.88-3.56c0.07-3.52,0.02-7.03,0.02-10.55
	C801.88,217.7,801.96,217.7,802.03,217.7z"/>
<path class="st18" d="M245.56,316.96c0-3.21-0.03-6.41,0.01-9.62c0.05-4.26,3.49-6.7,7.78-5.8c1.56,0.33,1.44,1.27,1.46,2.31
	c0.13,7.79,0.45,15.57,0.3,23.35c-0.09,4.76-4.35,3.17-6.99,3.68c-3.36,0.66-2.6-2-2.62-3.85c-0.04-3.36-0.01-6.72-0.01-10.08
	C245.51,316.96,245.53,316.96,245.56,316.96z"/>
<path class="st34" d="M429.99,54.2c-0.1,5-4.56,9.36-9.52,9.31c-5.04-0.05-9.32-4.38-9.32-9.45c-0.01-5.3,4.45-9.68,9.7-9.52
	C425.83,44.7,430.09,49.2,429.99,54.2z"/>
<path class="st18" d="M1023.63,179.13c0-2.9,0-5.81,0-8.71c0-5.62,1.29-6.72,6.91-6.53c1.85,0.06,2.33,0.67,2.35,2.39
	c0.05,7.64,0.32,15.28,0.28,22.91c-0.03,5.21-4.44,3.45-7.17,3.97c-3.58,0.68-2.31-2.29-2.38-3.95c-0.14-3.36-0.04-6.72-0.04-10.08
	C1023.59,179.13,1023.61,179.13,1023.63,179.13z"/>
<path class="st18" d="M852.34,210.66c0,3.51-0.14,7.03,0.03,10.53c0.27,5.43-3.85,3.83-6.67,4.36c-3.75,0.7-2.86-2-2.86-3.97
	c0-7.02,0.11-14.04,0.06-21.07c-0.04-5.47,4.43-3.5,7.02-4.09c3.23-0.73,2.03,2.23,2.1,3.71c0.17,3.5,0.05,7.02,0.05,10.53
	C852.16,210.66,852.25,210.66,852.34,210.66z"/>
<path class="st35" d="M47.95,332.31c0.08,5.01-3.41,8.73-8.33,8.87c-5,0.14-8.88-3.4-9.07-8.27c-0.18-4.63,3.78-8.89,8.47-9.1
	C43.64,323.59,47.87,327.62,47.95,332.31z"/>
<path class="st36" d="M403.53,222.29c-4.31,0.11-7.9-3.35-7.93-7.65c-0.03-4.04,3.38-7.6,7.38-7.72c4.14-0.12,7.98,3.55,8.02,7.65
	C411.05,218.55,407.53,222.19,403.53,222.29z"/>
<path class="st37" d="M28.43,220.99c3.55-0.06,6.73,2.97,6.89,6.56c0.17,3.86-2.89,7.06-6.77,7.09c-3.47,0.03-6.91-3.14-7.05-6.49
	C21.34,224.63,24.81,221.05,28.43,220.99z"/>
<path class="st38" d="M274.2,243.02c-0.3,3.35-3.21,5.87-6.57,5.68c-3.54-0.2-6.15-3.26-5.86-6.89c0.29-3.55,3.3-5.9,7.07-5.51
	C272.26,236.67,274.52,239.49,274.2,243.02z"/>
<path class="st18" d="M873.7,199.69c-0.06,5.41-0.84,5.93-7.32,6.01c-4.62,0.05-2.47-3.33-2.61-5.18c-0.29-3.84,2.88-5.91,8.07-5.73
	C873.76,194.84,873.76,194.84,873.7,199.69z"/>
<path class="st18" d="M467.5,272.12c-0.03,5.7-0.71,6.17-7.35,6.34c-4.6,0.12-2.5-3.31-2.64-5.17c-0.3-4.02,2.42-5.83,8.07-5.61
	C469.55,267.83,466.35,271.06,467.5,272.12z"/>
<path class="st18" d="M660.98,235.93c-0.06,5.97-0.48,6.15-7.36,6.37c-4.8,0.15-2.46-3.31-2.61-5.08c-0.32-3.85,2.43-5.65,7.66-5.61
	C662.58,231.62,660.24,234.68,660.98,235.93z"/>
<path class="st0" d="M559.9,190.62c-0.49-6.94-3.6-12.17-10.25-14.97c-2.43-1.02-0.92-2.28-0.11-3.5c3.08-4.65,5.31-9.59,5.44-15.32
	c0.23-9.85-4.22-15.62-14.01-17.11c-11.29-1.72-22.12,1.01-32.87,4.1c-2.96,0.85-4.1,2.49-4.07,5.57
	c0.12,12.22,0.05,24.45,0.05,36.67c-0.03,0-0.06,0-0.09,0c0,12.22,0.08,24.45-0.06,36.67c-0.03,2.84,0.8,3.82,3.62,3.56
	c4.25-0.4,8.57-0.28,12.79-0.86c11.75-1.63,23.21-4.17,32.03-13.01C558.37,206.41,560.48,198.93,559.9,190.62z M523.54,164.8
	c0-0.87-0.13-1.37,0.02-1.77c0.83-2.29-1.93-5.88,2.21-6.9c3.29-0.81,7.09-1.19,9.19,2c2.04,3.09,1.37,6.74-0.69,9.87
	c-0.57,0.86-1.41,1.65-2.31,2.14c-2.41,1.32-5.4,3.21-7.66,1.82C521.82,170.44,524.19,166.95,523.54,164.8z M535.99,203.82
	c-3.38,2.65-7.68,4.59-11.4,3.15c-3.12-1.2-0.37-5.72-1.27-7.96c0-1.43,0-2.19,0-2.95c0-7.6,0-7.64,7.41-7.72
	c3.48-0.04,7.12-0.41,8.65,4.02C540.73,196.26,539.43,201.12,535.99,203.82z"/>
<path class="st0" d="M922.28,110.24c-1.48-0.97-1.84-1.55-0.64-3.11c2.74-3.55,4.38-7.66,5.34-12.04
	c2.71-12.34-4.31-21.03-16.93-21.38c-10.38-0.29-20.31,1.7-30.14,4.77c-2.55,0.79-3.23,1.98-3.2,4.53
	c0.13,12.22,0.06,24.45,0.06,36.67c-0.02,0-0.04,0-0.06,0c0,11.92,0.25,23.84-0.12,35.75c-0.15,4.76,1.74,5.72,5.79,5.4
	c12.26-0.97,24.17-3.24,35.31-8.73c3.49-1.72,6.43-4.09,8.91-7.05C935.71,134.19,933.7,117.73,922.28,110.24z M900.83,89.8
	c5.01,0.29,7.93,2.93,7.71,7.53c-0.23,4.89-5.78,9.46-10.78,9.12c-1.55-0.11-1.73-0.8-1.73-1.97c0.01-1.98,0-3.95,0-5.93
	c-0.01,0-0.01,0-0.02,0c0-0.76,0.06-1.52-0.01-2.28C895.7,92.68,895.65,89.5,900.83,89.8z M910.45,135.66
	c-2.93,4.36-7.42,5.54-12.27,6.01c-1.52,0.15-2.3-0.35-2.27-1.96c0.04-2.13,0.01-4.27,0.01-6.4c-0.05,0-0.1,0-0.15,0
	c0-1.07-0.01-2.14,0-3.2c0.08-7.08,1.28-8.17,8.37-7.64C911.86,123.05,914.8,129.19,910.45,135.66z"/>
<path class="st0" d="M1000.69,135.46c-1.33-4.21-2.43-8.51-3.78-12.71c-6.02-18.73-12.16-37.42-18.11-56.16
	c-1.12-3.53-2.61-5.23-6.74-4.61c-4.09,0.61-8.04,1.79-12.1,2.39c-2.48,0.37-3.46,1.7-4.13,4.08c-4.63,16.28-9.46,32.5-14.2,48.75
	c-2.95,10.11-5.86,20.22-8.76,30.34c-0.38,1.33-1.58,3.12,1.28,3.17c5.39,0.09,10.91-0.23,15.61-2.8c3.01-1.65,2.87-5.87,3.45-9.07
	c0.98-5.39,3.32-8.34,9.29-7.34c1.57,0.26,3.3-0.39,4.94-0.71c3.24-0.62,7.02-3.74,9.33-2.12c2.15,1.51,2.45,5.95,3.11,9.19
	c0.65,3.2,1.89,5.08,5.12,4.25c4.84,0.08,9.06-1.34,13.36-2.34C1000.95,139.17,1001.44,137.82,1000.69,135.46z M970.99,115.75
	c-3.07,0.97-6.22,1.57-9.48,1.22c-1.7-0.18-2.41-0.85-1.95-2.69c2.17-8.71,4.26-17.43,6.37-26.15c0.28,0.05,0.55,0.1,0.83,0.15
	c1.96,7.99,3.85,16,5.95,23.95C973.22,114.17,972.67,115.22,970.99,115.75z"/>
<path class="st0" d="M714.53,185.51c-6.41-20.04-12.41-40.22-18.94-60.22c-1.45-4.44-0.61-11.04-5.94-12.65
	c-4.61-1.4-9.9,0.7-14.81,1.91c-3.2,0.79-4.66,2.57-5.55,5.76c-7.07,25.26-14.36,50.46-21.57,75.69c-1.55,5.43-1.54,5.43,4.23,4.9
	c12.55-1.16,12.68-1.12,15.93-13.43c1.08-4.07,2.8-6.34,7.36-5.82c2.09,0.24,4.27-0.11,6.39-0.35c3.37-0.37,6.95-4.39,9.61-2.02
	c2.22,1.97,2.33,6.43,3.13,9.84c0.61,2.63,1.71,4.17,4.12,3.48c4.99-0.24,9.3-1.15,13.59-2.32
	C714.82,189.54,715.48,188.49,714.53,185.51z M683.69,167.14c-0.56,0.22-1.18,0.28-1.78,0.37c-8.94,1.38-9.4,0.93-7.39-7.62
	c1.66-7.08,3.39-14.14,5.41-22.49c2.26,9.32,4.06,17.35,6.2,25.28C686.85,165.35,685.73,166.35,683.69,167.14z"/>
<path class="st18" d="M798.98,217.19c-0.4-6.62-3.81-9.95-10.43-10.23c-4.33-0.18-8.43,1.03-12.62,1.8c-2.24,0.41-3.09,1.3-3,3.59
	c0.15,3.65,0.04,7.32,0.04,10.98c-0.04,0-0.08,0-0.12,0c0,2.9,0.02,5.8-0.01,8.7c-0.06,5.64-0.07,5.64,5.65,5.31
	C791.8,236.55,799.68,228.81,798.98,217.19z M789.2,225.76c-1.13,1.51-2.77,2.26-4.5,2.93c-2.47,0.96-3.64,0.6-3.39-2.42
	c0.25-3.01,0.25-6.06,0.07-9.08c-0.17-2.87,1.23-3.78,3.77-3.74c2.42-0.07,4.12,1.16,4.94,3.29
	C791.3,219.82,791.3,222.95,789.2,225.76z"/>
<path class="st18" d="M961.01,177.18c-5.43-0.93-12.13,2.41-15.27,8.02c-3.25,5.8-3.84,12.07-0.17,17.75
	c3.66,5.65,9.5,4.3,14.95,3.13c1.03-0.22,2.02-0.69,3.03-1.01c3.48-1.1,4.93-3.1,3.53-6.85c-1.65-4.41-3.97-0.73-5.87-0.52
	c-2.65,0.3-5.44,2.6-7.87-1.57c4.23-0.91,8.18-1.71,12.1-2.62c1.42-0.33,3.03-0.31,3.74-2.13
	C971.23,186.07,966.72,178.15,961.01,177.18z M959.45,189.22c-2.15,0.57-4.4,0.75-7.17,1.18c0.62-3.9,2.72-5.79,5.93-6.54
	c2.28-0.53,3.32,0.92,3.9,2.81C962.89,189.19,960.62,188.91,959.45,189.22z"/>
<path class="st18" d="M366.29,281.26c-5.7-1.17-12.25,2.02-15.91,7.75c-3.36,5.26-3.6,14.12-0.16,18.22c4.37,5.22,10,4.16,15.6,2.56
	c1.02-0.29,2.02-0.67,3.03-1c3.7-1.2,3.9-3.7,2.66-6.87c-1.42-3.63-3.44-0.92-5.12-0.47c-2.84,0.75-5.66,2.51-8.79-1.25
	c4.8-1.08,8.95-1.99,13.07-2.96c1.12-0.26,2.39-0.1,3.01-1.6C375.75,290.7,371.5,282.33,366.29,281.26z M364.27,293
	c-2.36,0.27-4.6,1.51-7.17,1.03c0.16-3.82,2.74-5.35,5.76-6.19c2.27-0.64,3.23,0.99,3.78,2.93
	C367.3,293.08,365.47,292.86,364.27,293z"/>
<path class="st18" d="M527.4,261.45c-0.88-4.27-3.7-6.35-7.67-6.48c-4.28-0.14-8.47,1.02-12.38,2.78c-3.13,1.4-1.3,4.08-0.92,6
	c0.51,2.55,2.4,0.84,3.63,0.44c2.54-0.82,5-2.12,8.56,0.01c-4.63,1.82-8.74,2.64-11.91,5.4c-3.21,2.8-4.28,6.2-2.74,10.24
	c1.39,3.63,4.26,4.86,7.95,4.91c4.86,0.07,9.24-1.6,13.65-3.31c1.51-0.59,1.98-1.72,2.12-3.19
	C528.21,272.65,528.56,267.05,527.4,261.45z M519.71,272.98c1.03,4.62-1.67,5.11-4.62,5.06c-1.69-0.03-3.93,0.37-4.28-2.2
	c-0.28-2.05,4.69-5.63,7.47-5.61C521.09,270.25,519.42,272.4,519.71,272.98z"/>
<path class="st18" d="M426.62,271.07c-0.14,0.05-0.29,0.09-0.43,0.15c-3.58,1.6-1.11,4.33-0.86,6.33c0.29,2.28,2.07,0.56,3.18,0.25
	c2.61-0.72,5.17-1.96,8.72-0.26c-4.03,2.15-7.99,2.77-11.17,5.21c-3.68,2.81-4.63,6.32-3.32,10.5c1.26,4.02,4.61,4.99,8.35,4.97
	c1.67-0.01,3.39-0.11,4.99-0.55c12.18-3.32,10.44-2.67,10.92-13.06C447.89,265.62,438.89,266.79,426.62,271.07z M433.73,291.61
	c-1.67,0.01-3.97,0.34-4.01-2.42c-0.04-2.28,4.74-5.56,7.69-5.46c2.51,0.08,0.85,2.06,1.21,2.46
	C439.77,291.12,436.81,291.59,433.73,291.61z"/>
<path class="st18" d="M722.02,218.9c-0.14,0.06-0.3,0.06-0.44,0.11c-3.84,1.22-1.64,4.19-1.41,6.16c0.3,2.64,2.28,0.72,3.55,0.52
	c2.56-0.4,5.07-2.55,8.2,0.13c-2.31,0.87-4.32,1.54-6.26,2.36c-7.02,2.95-9.67,6.93-8.26,12.3c1.29,4.89,4.89,6.36,12.74,5.2
	c10.22-1.5,11.18-2.54,11.68-12.62C742.61,217.06,736.97,213.03,722.02,218.9z M733.45,234.75c1.1,4.81-2.31,4.7-4.87,4.85
	c-1.54,0.09-3.99,0.25-4.06-2.46c-0.06-2.08,5.1-5.6,7.75-5.46C735.29,231.85,732.39,234.31,733.45,234.75z"/>
<path class="st18" d="M994.97,178.91c-0.74-3.46-2.62-6.23-6.58-6.68c-4.86-0.55-9.44,0.8-13.77,2.72
	c-2.96,1.31-1.03,3.97-0.72,5.98c0.41,2.66,2.1,0.7,3.1,0.5c2.69-0.56,5.29-2.25,8.1-0.55c-0.05,1.3-0.98,1.18-1.63,1.4
	c-3.61,1.23-7.27,2.4-10.07,5.18c-2.78,2.77-3.43,6.02-1.95,9.65c1.4,3.41,4.07,4.5,7.65,4.59c5.05,0.14,9.63-1.31,14.14-3.23
	c0.98-0.41,1.84-0.88,1.93-2.23C995.56,190.45,996.19,184.64,994.97,178.91z M987.46,190.36c0.77,4.6-2.1,4.8-5.02,4.77
	c-1.73-0.02-3.99,0.47-4.1-2.32c-0.08-2.24,4.88-5.79,7.69-5.58C988.67,187.43,987.12,189.53,987.46,190.36z"/>
<path class="st18" d="M281.64,304.1c-0.76-3.54-2.8-6.05-6.72-6.48c-4.88-0.53-9.45,0.79-13.74,2.79c-2.9,1.36-0.89,4.03-0.52,6
	c0.47,2.53,2.24,0.55,3.19,0.34c2.73-0.6,5.33-2.49,8.59,0.04c-3.99,1.48-7.88,2.45-11.05,4.85c-3.54,2.67-4.89,6.15-3.35,10.46
	c1.39,3.9,4.41,5.05,8.3,5.03c4.86-0.02,9.29-1.5,13.65-3.38c1.07-0.46,1.71-1.08,1.82-2.34
	C282.31,315.63,282.87,309.83,281.64,304.1z M269.04,320.52c-1.66,0.06-4,0.37-4.03-2.43c-0.02-2.21,5-5.71,7.74-5.53
	c2.84,0.19,0.61,2.54,1.38,3.12C274.97,320.46,271.76,320.42,269.04,320.52z"/>
<path class="st18" d="M309.06,300.6c-0.99-5.33-4.86-8.3-11.31-8.34c-3.14,0.11-6.51,0.94-9.8,2.27c-1.8,0.73-2.52,1.74-2.5,3.73
	c0.07,7.48-0.05,14.96-0.07,22.43c0,1.29-0.37,3.05,1.87,2.74c2.36-0.33,6.57,0.78,6.43-2.21c-0.25-5.48,2.91-5.96,6.67-7.15
	C306.24,312.21,310.05,305.94,309.06,300.6z M294.69,308.73c-3.54-0.32-0.78-3.25-1.67-4.26c-0.26-3.07-0.7-5.82,3.43-5.69
	c3.05,0.09,5.04,1.25,5.1,4.53C301.59,306.03,297.89,309.02,294.69,308.73z"/>
</svg>
